G04 #@! TF.FileFunction,Soldermask,Top*
%FSLAX46Y46*%
G04 Gerber Fmt 4.6, Leading zero omitted, Abs format (unit mm)*
G04 Created by KiCad (PCBNEW 4.0.0-rc1-stable) date Tue 08 Dec 2015 07:53:02 AM PST*
%MOMM*%
G01*
G04 APERTURE LIST*
%ADD10C,0.100000*%
%ADD11C,0.150000*%
%ADD12C,0.300000*%
%ADD13C,0.400000*%
%ADD14R,0.500000X0.900000*%
%ADD15R,0.600000X1.550000*%
%ADD16R,1.000000X0.250000*%
%ADD17R,0.250000X1.000000*%
%ADD18R,1.350000X0.400000*%
%ADD19O,0.950000X1.250000*%
%ADD20O,1.550000X1.000000*%
%ADD21O,3.014980X1.506220*%
%ADD22R,1.600000X1.000000*%
%ADD23R,0.750000X0.800000*%
%ADD24R,1.000000X1.600000*%
%ADD25R,0.800000X0.750000*%
%ADD26R,1.250000X1.000000*%
%ADD27R,1.000000X0.800000*%
%ADD28R,0.700000X1.200000*%
%ADD29R,1.000000X1.300480*%
%ADD30R,1.300000X1.900000*%
%ADD31R,1.000000X2.800000*%
%ADD32R,1.000000X1.200000*%
%ADD33R,0.797560X0.797560*%
%ADD34R,1.000000X0.400000*%
%ADD35R,0.800000X0.300000*%
%ADD36R,2.000000X3.700000*%
%ADD37R,2.032000X1.727200*%
%ADD38O,2.032000X1.727200*%
%ADD39R,0.800100X0.800100*%
%ADD40R,0.900000X0.500000*%
%ADD41R,1.524000X1.270000*%
%ADD42R,1.300000X1.550000*%
%ADD43C,1.143000*%
%ADD44R,0.650000X1.060000*%
%ADD45R,0.280000X1.000000*%
%ADD46R,1.650000X2.380000*%
%ADD47R,0.675000X0.250000*%
%ADD48R,1.600000X1.900000*%
%ADD49R,1.000000X0.380000*%
%ADD50R,0.600000X0.420000*%
%ADD51R,0.590000X0.450000*%
%ADD52R,1.295400X0.797560*%
%ADD53R,0.797560X1.295400*%
G04 APERTURE END LIST*
D10*
D11*
X177002200Y-166007200D02*
X177002200Y-198007200D01*
X285002200Y-198007200D01*
X285002200Y-166007200D01*
X177002200Y-166007200D01*
D10*
D11*
X10000000Y-10000000D02*
X10000000Y-200007200D01*
X287002200Y-200007200D01*
X287002200Y-10000000D01*
X10000000Y-10000000D01*
D10*
D11*
X12000000Y-12000000D02*
X12000000Y-198007200D01*
X285002200Y-198007200D01*
X285002200Y-12000000D01*
X12000000Y-12000000D01*
D10*
D11*
X60000000Y-12000000D02*
X60000000Y-10000000D01*
D10*
D11*
X110000000Y-12000000D02*
X110000000Y-10000000D01*
D10*
D11*
X160000000Y-12000000D02*
X160000000Y-10000000D01*
D10*
D11*
X210000000Y-12000000D02*
X210000000Y-10000000D01*
D10*
D11*
X260000000Y-12000000D02*
X260000000Y-10000000D01*
D10*
D11*
X35990476Y-11588095D02*
X35247619Y-11588095D01*
X35619048Y-11588095D02*
X35619048Y-10288095D01*
X35495238Y-10473810D01*
X35371429Y-10597619D01*
X35247619Y-10659524D01*
D10*
D11*
X85247619Y-10411905D02*
X85309524Y-10350000D01*
X85433333Y-10288095D01*
X85742857Y-10288095D01*
X85866667Y-10350000D01*
X85928571Y-10411905D01*
X85990476Y-10535714D01*
X85990476Y-10659524D01*
X85928571Y-10845238D01*
X85185714Y-11588095D01*
X85990476Y-11588095D01*
D10*
D11*
X135185714Y-10288095D02*
X135990476Y-10288095D01*
X135557143Y-10783333D01*
X135742857Y-10783333D01*
X135866667Y-10845238D01*
X135928571Y-10907143D01*
X135990476Y-11030952D01*
X135990476Y-11340476D01*
X135928571Y-11464286D01*
X135866667Y-11526190D01*
X135742857Y-11588095D01*
X135371429Y-11588095D01*
X135247619Y-11526190D01*
X135185714Y-11464286D01*
D10*
D11*
X185866667Y-10721429D02*
X185866667Y-11588095D01*
X185557143Y-10226190D02*
X185247619Y-11154762D01*
X186052381Y-11154762D01*
D10*
D11*
X235928571Y-10288095D02*
X235309524Y-10288095D01*
X235247619Y-10907143D01*
X235309524Y-10845238D01*
X235433333Y-10783333D01*
X235742857Y-10783333D01*
X235866667Y-10845238D01*
X235928571Y-10907143D01*
X235990476Y-11030952D01*
X235990476Y-11340476D01*
X235928571Y-11464286D01*
X235866667Y-11526190D01*
X235742857Y-11588095D01*
X235433333Y-11588095D01*
X235309524Y-11526190D01*
X235247619Y-11464286D01*
D10*
D11*
X285866667Y-10288095D02*
X285619048Y-10288095D01*
X285495238Y-10350000D01*
X285433333Y-10411905D01*
X285309524Y-10597619D01*
X285247619Y-10845238D01*
X285247619Y-11340476D01*
X285309524Y-11464286D01*
X285371429Y-11526190D01*
X285495238Y-11588095D01*
X285742857Y-11588095D01*
X285866667Y-11526190D01*
X285928571Y-11464286D01*
X285990476Y-11340476D01*
X285990476Y-11030952D01*
X285928571Y-10907143D01*
X285866667Y-10845238D01*
X285742857Y-10783333D01*
X285495238Y-10783333D01*
X285371429Y-10845238D01*
X285309524Y-10907143D01*
X285247619Y-11030952D01*
D10*
D11*
X60000000Y-198007200D02*
X60000000Y-200007200D01*
D10*
D11*
X110000000Y-198007200D02*
X110000000Y-200007200D01*
D10*
D11*
X160000000Y-198007200D02*
X160000000Y-200007200D01*
D10*
D11*
X210000000Y-198007200D02*
X210000000Y-200007200D01*
D10*
D11*
X260000000Y-198007200D02*
X260000000Y-200007200D01*
D10*
D11*
X35990476Y-199595295D02*
X35247619Y-199595295D01*
X35619048Y-199595295D02*
X35619048Y-198295295D01*
X35495238Y-198481010D01*
X35371429Y-198604819D01*
X35247619Y-198666724D01*
D10*
D11*
X85247619Y-198419105D02*
X85309524Y-198357200D01*
X85433333Y-198295295D01*
X85742857Y-198295295D01*
X85866667Y-198357200D01*
X85928571Y-198419105D01*
X85990476Y-198542914D01*
X85990476Y-198666724D01*
X85928571Y-198852438D01*
X85185714Y-199595295D01*
X85990476Y-199595295D01*
D10*
D11*
X135185714Y-198295295D02*
X135990476Y-198295295D01*
X135557143Y-198790533D01*
X135742857Y-198790533D01*
X135866667Y-198852438D01*
X135928571Y-198914343D01*
X135990476Y-199038152D01*
X135990476Y-199347676D01*
X135928571Y-199471486D01*
X135866667Y-199533390D01*
X135742857Y-199595295D01*
X135371429Y-199595295D01*
X135247619Y-199533390D01*
X135185714Y-199471486D01*
D10*
D11*
X185866667Y-198728629D02*
X185866667Y-199595295D01*
X185557143Y-198233390D02*
X185247619Y-199161962D01*
X186052381Y-199161962D01*
D10*
D11*
X235928571Y-198295295D02*
X235309524Y-198295295D01*
X235247619Y-198914343D01*
X235309524Y-198852438D01*
X235433333Y-198790533D01*
X235742857Y-198790533D01*
X235866667Y-198852438D01*
X235928571Y-198914343D01*
X235990476Y-199038152D01*
X235990476Y-199347676D01*
X235928571Y-199471486D01*
X235866667Y-199533390D01*
X235742857Y-199595295D01*
X235433333Y-199595295D01*
X235309524Y-199533390D01*
X235247619Y-199471486D01*
D10*
D11*
X285866667Y-198295295D02*
X285619048Y-198295295D01*
X285495238Y-198357200D01*
X285433333Y-198419105D01*
X285309524Y-198604819D01*
X285247619Y-198852438D01*
X285247619Y-199347676D01*
X285309524Y-199471486D01*
X285371429Y-199533390D01*
X285495238Y-199595295D01*
X285742857Y-199595295D01*
X285866667Y-199533390D01*
X285928571Y-199471486D01*
X285990476Y-199347676D01*
X285990476Y-199038152D01*
X285928571Y-198914343D01*
X285866667Y-198852438D01*
X285742857Y-198790533D01*
X285495238Y-198790533D01*
X285371429Y-198852438D01*
X285309524Y-198914343D01*
X285247619Y-199038152D01*
D10*
D11*
X10000000Y-60000000D02*
X12000000Y-60000000D01*
D10*
D11*
X10000000Y-110000000D02*
X12000000Y-110000000D01*
D10*
D11*
X10000000Y-160000000D02*
X12000000Y-160000000D01*
D10*
D11*
X10690476Y-35216667D02*
X11309524Y-35216667D01*
X10566667Y-35588095D02*
X11000000Y-34288095D01*
X11433333Y-35588095D01*
D10*
D11*
X11092857Y-84907143D02*
X11278571Y-84969048D01*
X11340476Y-85030952D01*
X11402381Y-85154762D01*
X11402381Y-85340476D01*
X11340476Y-85464286D01*
X11278571Y-85526190D01*
X11154762Y-85588095D01*
X10659524Y-85588095D01*
X10659524Y-84288095D01*
X11092857Y-84288095D01*
X11216667Y-84350000D01*
X11278571Y-84411905D01*
X11340476Y-84535714D01*
X11340476Y-84659524D01*
X11278571Y-84783333D01*
X11216667Y-84845238D01*
X11092857Y-84907143D01*
X10659524Y-84907143D01*
D10*
D11*
X11402381Y-135464286D02*
X11340476Y-135526190D01*
X11154762Y-135588095D01*
X11030952Y-135588095D01*
X10845238Y-135526190D01*
X10721429Y-135402381D01*
X10659524Y-135278571D01*
X10597619Y-135030952D01*
X10597619Y-134845238D01*
X10659524Y-134597619D01*
X10721429Y-134473810D01*
X10845238Y-134350000D01*
X11030952Y-134288095D01*
X11154762Y-134288095D01*
X11340476Y-134350000D01*
X11402381Y-134411905D01*
D10*
D11*
X10659524Y-185588095D02*
X10659524Y-184288095D01*
X10969048Y-184288095D01*
X11154762Y-184350000D01*
X11278571Y-184473810D01*
X11340476Y-184597619D01*
X11402381Y-184845238D01*
X11402381Y-185030952D01*
X11340476Y-185278571D01*
X11278571Y-185402381D01*
X11154762Y-185526190D01*
X10969048Y-185588095D01*
X10659524Y-185588095D01*
D10*
D11*
X287002200Y-60000000D02*
X285002200Y-60000000D01*
D10*
D11*
X287002200Y-110000000D02*
X285002200Y-110000000D01*
D10*
D11*
X287002200Y-160000000D02*
X285002200Y-160000000D01*
D10*
D11*
X285692676Y-35216667D02*
X286311724Y-35216667D01*
X285568867Y-35588095D02*
X286002200Y-34288095D01*
X286435533Y-35588095D01*
D10*
D11*
X286095057Y-84907143D02*
X286280771Y-84969048D01*
X286342676Y-85030952D01*
X286404581Y-85154762D01*
X286404581Y-85340476D01*
X286342676Y-85464286D01*
X286280771Y-85526190D01*
X286156962Y-85588095D01*
X285661724Y-85588095D01*
X285661724Y-84288095D01*
X286095057Y-84288095D01*
X286218867Y-84350000D01*
X286280771Y-84411905D01*
X286342676Y-84535714D01*
X286342676Y-84659524D01*
X286280771Y-84783333D01*
X286218867Y-84845238D01*
X286095057Y-84907143D01*
X285661724Y-84907143D01*
D10*
D11*
X286404581Y-135464286D02*
X286342676Y-135526190D01*
X286156962Y-135588095D01*
X286033152Y-135588095D01*
X285847438Y-135526190D01*
X285723629Y-135402381D01*
X285661724Y-135278571D01*
X285599819Y-135030952D01*
X285599819Y-134845238D01*
X285661724Y-134597619D01*
X285723629Y-134473810D01*
X285847438Y-134350000D01*
X286033152Y-134288095D01*
X286156962Y-134288095D01*
X286342676Y-134350000D01*
X286404581Y-134411905D01*
D10*
D11*
X285661724Y-185588095D02*
X285661724Y-184288095D01*
X285971248Y-184288095D01*
X286156962Y-184350000D01*
X286280771Y-184473810D01*
X286342676Y-184597619D01*
X286404581Y-184845238D01*
X286404581Y-185030952D01*
X286342676Y-185278571D01*
X286280771Y-185402381D01*
X286156962Y-185526190D01*
X285971248Y-185588095D01*
X285661724Y-185588095D01*
D10*
D11*
X200359343Y-193785771D02*
X200359343Y-192285771D01*
X200716486Y-192285771D01*
X200930771Y-192357200D01*
X201073629Y-192500057D01*
X201145057Y-192642914D01*
X201216486Y-192928629D01*
X201216486Y-193142914D01*
X201145057Y-193428629D01*
X201073629Y-193571486D01*
X200930771Y-193714343D01*
X200716486Y-193785771D01*
X200359343Y-193785771D01*
X202502200Y-193785771D02*
X202502200Y-193000057D01*
X202430771Y-192857200D01*
X202287914Y-192785771D01*
X202002200Y-192785771D01*
X201859343Y-192857200D01*
X202502200Y-193714343D02*
X202359343Y-193785771D01*
X202002200Y-193785771D01*
X201859343Y-193714343D01*
X201787914Y-193571486D01*
X201787914Y-193428629D01*
X201859343Y-193285771D01*
X202002200Y-193214343D01*
X202359343Y-193214343D01*
X202502200Y-193142914D01*
X203002200Y-192785771D02*
X203573629Y-192785771D01*
X203216486Y-192285771D02*
X203216486Y-193571486D01*
X203287914Y-193714343D01*
X203430772Y-193785771D01*
X203573629Y-193785771D01*
X204645057Y-193714343D02*
X204502200Y-193785771D01*
X204216486Y-193785771D01*
X204073629Y-193714343D01*
X204002200Y-193571486D01*
X204002200Y-193000057D01*
X204073629Y-192857200D01*
X204216486Y-192785771D01*
X204502200Y-192785771D01*
X204645057Y-192857200D01*
X204716486Y-193000057D01*
X204716486Y-193142914D01*
X204002200Y-193285771D01*
X205359343Y-193642914D02*
X205430771Y-193714343D01*
X205359343Y-193785771D01*
X205287914Y-193714343D01*
X205359343Y-193642914D01*
X205359343Y-193785771D01*
X205359343Y-192857200D02*
X205430771Y-192928629D01*
X205359343Y-193000057D01*
X205287914Y-192928629D01*
X205359343Y-192857200D01*
X205359343Y-193000057D01*
D10*
D11*
X177002200Y-194507200D02*
X285002200Y-194507200D01*
D10*
D11*
X178359343Y-196585771D02*
X178359343Y-195085771D01*
X179216486Y-196585771D02*
X178573629Y-195728629D01*
X179216486Y-195085771D02*
X178359343Y-195942914D01*
X179859343Y-196585771D02*
X179859343Y-195585771D01*
X179859343Y-195085771D02*
X179787914Y-195157200D01*
X179859343Y-195228629D01*
X179930771Y-195157200D01*
X179859343Y-195085771D01*
X179859343Y-195228629D01*
X181430772Y-196442914D02*
X181359343Y-196514343D01*
X181145057Y-196585771D01*
X181002200Y-196585771D01*
X180787915Y-196514343D01*
X180645057Y-196371486D01*
X180573629Y-196228629D01*
X180502200Y-195942914D01*
X180502200Y-195728629D01*
X180573629Y-195442914D01*
X180645057Y-195300057D01*
X180787915Y-195157200D01*
X181002200Y-195085771D01*
X181145057Y-195085771D01*
X181359343Y-195157200D01*
X181430772Y-195228629D01*
X182716486Y-196585771D02*
X182716486Y-195800057D01*
X182645057Y-195657200D01*
X182502200Y-195585771D01*
X182216486Y-195585771D01*
X182073629Y-195657200D01*
X182716486Y-196514343D02*
X182573629Y-196585771D01*
X182216486Y-196585771D01*
X182073629Y-196514343D01*
X182002200Y-196371486D01*
X182002200Y-196228629D01*
X182073629Y-196085771D01*
X182216486Y-196014343D01*
X182573629Y-196014343D01*
X182716486Y-195942914D01*
X184073629Y-196585771D02*
X184073629Y-195085771D01*
X184073629Y-196514343D02*
X183930772Y-196585771D01*
X183645058Y-196585771D01*
X183502200Y-196514343D01*
X183430772Y-196442914D01*
X183359343Y-196300057D01*
X183359343Y-195871486D01*
X183430772Y-195728629D01*
X183502200Y-195657200D01*
X183645058Y-195585771D01*
X183930772Y-195585771D01*
X184073629Y-195657200D01*
X185930772Y-195800057D02*
X186430772Y-195800057D01*
X186645058Y-196585771D02*
X185930772Y-196585771D01*
X185930772Y-195085771D01*
X186645058Y-195085771D01*
X187287915Y-196442914D02*
X187359343Y-196514343D01*
X187287915Y-196585771D01*
X187216486Y-196514343D01*
X187287915Y-196442914D01*
X187287915Y-196585771D01*
X188002201Y-196585771D02*
X188002201Y-195085771D01*
X188359344Y-195085771D01*
X188573629Y-195157200D01*
X188716487Y-195300057D01*
X188787915Y-195442914D01*
X188859344Y-195728629D01*
X188859344Y-195942914D01*
X188787915Y-196228629D01*
X188716487Y-196371486D01*
X188573629Y-196514343D01*
X188359344Y-196585771D01*
X188002201Y-196585771D01*
X189502201Y-196442914D02*
X189573629Y-196514343D01*
X189502201Y-196585771D01*
X189430772Y-196514343D01*
X189502201Y-196442914D01*
X189502201Y-196585771D01*
X190145058Y-196157200D02*
X190859344Y-196157200D01*
X190002201Y-196585771D02*
X190502201Y-195085771D01*
X191002201Y-196585771D01*
X191502201Y-196442914D02*
X191573629Y-196514343D01*
X191502201Y-196585771D01*
X191430772Y-196514343D01*
X191502201Y-196442914D01*
X191502201Y-196585771D01*
X194502201Y-196585771D02*
X194502201Y-195085771D01*
X194645058Y-196014343D02*
X195073629Y-196585771D01*
X195073629Y-195585771D02*
X194502201Y-196157200D01*
X195716487Y-196585771D02*
X195716487Y-195585771D01*
X195716487Y-195085771D02*
X195645058Y-195157200D01*
X195716487Y-195228629D01*
X195787915Y-195157200D01*
X195716487Y-195085771D01*
X195716487Y-195228629D01*
X197073630Y-196514343D02*
X196930773Y-196585771D01*
X196645059Y-196585771D01*
X196502201Y-196514343D01*
X196430773Y-196442914D01*
X196359344Y-196300057D01*
X196359344Y-195871486D01*
X196430773Y-195728629D01*
X196502201Y-195657200D01*
X196645059Y-195585771D01*
X196930773Y-195585771D01*
X197073630Y-195657200D01*
X198359344Y-196585771D02*
X198359344Y-195800057D01*
X198287915Y-195657200D01*
X198145058Y-195585771D01*
X197859344Y-195585771D01*
X197716487Y-195657200D01*
X198359344Y-196514343D02*
X198216487Y-196585771D01*
X197859344Y-196585771D01*
X197716487Y-196514343D01*
X197645058Y-196371486D01*
X197645058Y-196228629D01*
X197716487Y-196085771D01*
X197859344Y-196014343D01*
X198216487Y-196014343D01*
X198359344Y-195942914D01*
X199716487Y-196585771D02*
X199716487Y-195085771D01*
X199716487Y-196514343D02*
X199573630Y-196585771D01*
X199287916Y-196585771D01*
X199145058Y-196514343D01*
X199073630Y-196442914D01*
X199002201Y-196300057D01*
X199002201Y-195871486D01*
X199073630Y-195728629D01*
X199145058Y-195657200D01*
X199287916Y-195585771D01*
X199573630Y-195585771D01*
X199716487Y-195657200D01*
X202216487Y-195585771D02*
X202216487Y-196585771D01*
X201859344Y-195014343D02*
X201502201Y-196085771D01*
X202430773Y-196085771D01*
X203002201Y-196442914D02*
X203073629Y-196514343D01*
X203002201Y-196585771D01*
X202930772Y-196514343D01*
X203002201Y-196442914D01*
X203002201Y-196585771D01*
X204002201Y-195085771D02*
X204145058Y-195085771D01*
X204287915Y-195157200D01*
X204359344Y-195228629D01*
X204430773Y-195371486D01*
X204502201Y-195657200D01*
X204502201Y-196014343D01*
X204430773Y-196300057D01*
X204359344Y-196442914D01*
X204287915Y-196514343D01*
X204145058Y-196585771D01*
X204002201Y-196585771D01*
X203859344Y-196514343D01*
X203787915Y-196442914D01*
X203716487Y-196300057D01*
X203645058Y-196014343D01*
X203645058Y-195657200D01*
X203716487Y-195371486D01*
X203787915Y-195228629D01*
X203859344Y-195157200D01*
X204002201Y-195085771D01*
X205145058Y-196442914D02*
X205216486Y-196514343D01*
X205145058Y-196585771D01*
X205073629Y-196514343D01*
X205145058Y-196442914D01*
X205145058Y-196585771D01*
X206145058Y-195085771D02*
X206287915Y-195085771D01*
X206430772Y-195157200D01*
X206502201Y-195228629D01*
X206573630Y-195371486D01*
X206645058Y-195657200D01*
X206645058Y-196014343D01*
X206573630Y-196300057D01*
X206502201Y-196442914D01*
X206430772Y-196514343D01*
X206287915Y-196585771D01*
X206145058Y-196585771D01*
X206002201Y-196514343D01*
X205930772Y-196442914D01*
X205859344Y-196300057D01*
X205787915Y-196014343D01*
X205787915Y-195657200D01*
X205859344Y-195371486D01*
X205930772Y-195228629D01*
X206002201Y-195157200D01*
X206145058Y-195085771D01*
X207287915Y-196014343D02*
X208430772Y-196014343D01*
X209145058Y-196585771D02*
X209145058Y-195585771D01*
X209145058Y-195871486D02*
X209216486Y-195728629D01*
X209287915Y-195657200D01*
X209430772Y-195585771D01*
X209573629Y-195585771D01*
X210716486Y-196514343D02*
X210573629Y-196585771D01*
X210287915Y-196585771D01*
X210145057Y-196514343D01*
X210073629Y-196442914D01*
X210002200Y-196300057D01*
X210002200Y-195871486D01*
X210073629Y-195728629D01*
X210145057Y-195657200D01*
X210287915Y-195585771D01*
X210573629Y-195585771D01*
X210716486Y-195657200D01*
X212145057Y-196585771D02*
X211287914Y-196585771D01*
X211716486Y-196585771D02*
X211716486Y-195085771D01*
X211573629Y-195300057D01*
X211430771Y-195442914D01*
X211287914Y-195514343D01*
X212787914Y-196014343D02*
X213930771Y-196014343D01*
X214573628Y-196514343D02*
X214716485Y-196585771D01*
X215002200Y-196585771D01*
X215145057Y-196514343D01*
X215216485Y-196371486D01*
X215216485Y-196300057D01*
X215145057Y-196157200D01*
X215002200Y-196085771D01*
X214787914Y-196085771D01*
X214645057Y-196014343D01*
X214573628Y-195871486D01*
X214573628Y-195800057D01*
X214645057Y-195657200D01*
X214787914Y-195585771D01*
X215002200Y-195585771D01*
X215145057Y-195657200D01*
X215645057Y-195585771D02*
X216216486Y-195585771D01*
X215859343Y-195085771D02*
X215859343Y-196371486D01*
X215930771Y-196514343D01*
X216073629Y-196585771D01*
X216216486Y-196585771D01*
X217359343Y-196585771D02*
X217359343Y-195800057D01*
X217287914Y-195657200D01*
X217145057Y-195585771D01*
X216859343Y-195585771D01*
X216716486Y-195657200D01*
X217359343Y-196514343D02*
X217216486Y-196585771D01*
X216859343Y-196585771D01*
X216716486Y-196514343D01*
X216645057Y-196371486D01*
X216645057Y-196228629D01*
X216716486Y-196085771D01*
X216859343Y-196014343D01*
X217216486Y-196014343D01*
X217359343Y-195942914D01*
X218073629Y-196585771D02*
X218073629Y-195085771D01*
X218073629Y-195657200D02*
X218216486Y-195585771D01*
X218502200Y-195585771D01*
X218645057Y-195657200D01*
X218716486Y-195728629D01*
X218787915Y-195871486D01*
X218787915Y-196300057D01*
X218716486Y-196442914D01*
X218645057Y-196514343D01*
X218502200Y-196585771D01*
X218216486Y-196585771D01*
X218073629Y-196514343D01*
X219645058Y-196585771D02*
X219502200Y-196514343D01*
X219430772Y-196371486D01*
X219430772Y-195085771D01*
X220787914Y-196514343D02*
X220645057Y-196585771D01*
X220359343Y-196585771D01*
X220216486Y-196514343D01*
X220145057Y-196371486D01*
X220145057Y-195800057D01*
X220216486Y-195657200D01*
X220359343Y-195585771D01*
X220645057Y-195585771D01*
X220787914Y-195657200D01*
X220859343Y-195800057D01*
X220859343Y-195942914D01*
X220145057Y-196085771D01*
D10*
D11*
X177002200Y-191507200D02*
X285002200Y-191507200D01*
D10*
D12*
X264216486Y-193785771D02*
X263716486Y-193071486D01*
X263359343Y-193785771D02*
X263359343Y-192285771D01*
X263930771Y-192285771D01*
X264073629Y-192357200D01*
X264145057Y-192428629D01*
X264216486Y-192571486D01*
X264216486Y-192785771D01*
X264145057Y-192928629D01*
X264073629Y-193000057D01*
X263930771Y-193071486D01*
X263359343Y-193071486D01*
X265430771Y-193714343D02*
X265287914Y-193785771D01*
X265002200Y-193785771D01*
X264859343Y-193714343D01*
X264787914Y-193571486D01*
X264787914Y-193000057D01*
X264859343Y-192857200D01*
X265002200Y-192785771D01*
X265287914Y-192785771D01*
X265430771Y-192857200D01*
X265502200Y-193000057D01*
X265502200Y-193142914D01*
X264787914Y-193285771D01*
X266002200Y-192785771D02*
X266359343Y-193785771D01*
X266716485Y-192785771D01*
X267287914Y-193642914D02*
X267359342Y-193714343D01*
X267287914Y-193785771D01*
X267216485Y-193714343D01*
X267287914Y-193642914D01*
X267287914Y-193785771D01*
X267287914Y-192857200D02*
X267359342Y-192928629D01*
X267287914Y-193000057D01*
X267216485Y-192928629D01*
X267287914Y-192857200D01*
X267287914Y-193000057D01*
D10*
D11*
X178287914Y-193714343D02*
X178502200Y-193785771D01*
X178859343Y-193785771D01*
X179002200Y-193714343D01*
X179073629Y-193642914D01*
X179145057Y-193500057D01*
X179145057Y-193357200D01*
X179073629Y-193214343D01*
X179002200Y-193142914D01*
X178859343Y-193071486D01*
X178573629Y-193000057D01*
X178430771Y-192928629D01*
X178359343Y-192857200D01*
X178287914Y-192714343D01*
X178287914Y-192571486D01*
X178359343Y-192428629D01*
X178430771Y-192357200D01*
X178573629Y-192285771D01*
X178930771Y-192285771D01*
X179145057Y-192357200D01*
X179787914Y-193785771D02*
X179787914Y-192785771D01*
X179787914Y-192285771D02*
X179716485Y-192357200D01*
X179787914Y-192428629D01*
X179859342Y-192357200D01*
X179787914Y-192285771D01*
X179787914Y-192428629D01*
X180359343Y-192785771D02*
X181145057Y-192785771D01*
X180359343Y-193785771D01*
X181145057Y-193785771D01*
X182287914Y-193714343D02*
X182145057Y-193785771D01*
X181859343Y-193785771D01*
X181716486Y-193714343D01*
X181645057Y-193571486D01*
X181645057Y-193000057D01*
X181716486Y-192857200D01*
X181859343Y-192785771D01*
X182145057Y-192785771D01*
X182287914Y-192857200D01*
X182359343Y-193000057D01*
X182359343Y-193142914D01*
X181645057Y-193285771D01*
X183002200Y-193642914D02*
X183073628Y-193714343D01*
X183002200Y-193785771D01*
X182930771Y-193714343D01*
X183002200Y-193642914D01*
X183002200Y-193785771D01*
X183002200Y-192857200D02*
X183073628Y-192928629D01*
X183002200Y-193000057D01*
X182930771Y-192928629D01*
X183002200Y-192857200D01*
X183002200Y-193000057D01*
X184787914Y-193357200D02*
X185502200Y-193357200D01*
X184645057Y-193785771D02*
X185145057Y-192285771D01*
X185645057Y-193785771D01*
X186787914Y-192785771D02*
X186787914Y-193785771D01*
X186430771Y-192214343D02*
X186073628Y-193285771D01*
X187002200Y-193285771D01*
D10*
D11*
X263359343Y-196585771D02*
X263359343Y-195085771D01*
X264716486Y-196585771D02*
X264716486Y-195085771D01*
X264716486Y-196514343D02*
X264573629Y-196585771D01*
X264287915Y-196585771D01*
X264145057Y-196514343D01*
X264073629Y-196442914D01*
X264002200Y-196300057D01*
X264002200Y-195871486D01*
X264073629Y-195728629D01*
X264145057Y-195657200D01*
X264287915Y-195585771D01*
X264573629Y-195585771D01*
X264716486Y-195657200D01*
X265430772Y-196442914D02*
X265502200Y-196514343D01*
X265430772Y-196585771D01*
X265359343Y-196514343D01*
X265430772Y-196442914D01*
X265430772Y-196585771D01*
X265430772Y-195657200D02*
X265502200Y-195728629D01*
X265430772Y-195800057D01*
X265359343Y-195728629D01*
X265430772Y-195657200D01*
X265430772Y-195800057D01*
X268073629Y-196585771D02*
X267216486Y-196585771D01*
X267645058Y-196585771D02*
X267645058Y-195085771D01*
X267502201Y-195300057D01*
X267359343Y-195442914D01*
X267216486Y-195514343D01*
X269787914Y-195014343D02*
X268502200Y-196942914D01*
X271073629Y-196585771D02*
X270216486Y-196585771D01*
X270645058Y-196585771D02*
X270645058Y-195085771D01*
X270502201Y-195300057D01*
X270359343Y-195442914D01*
X270216486Y-195514343D01*
D10*
D11*
X177002200Y-187507200D02*
X285002200Y-187507200D01*
D10*
D13*
X178454581Y-188211962D02*
X179597438Y-188211962D01*
X178776010Y-190211962D02*
X179026010Y-188211962D01*
X180014105Y-190211962D02*
X180180771Y-188878629D01*
X180264105Y-188211962D02*
X180156962Y-188307200D01*
X180240295Y-188402438D01*
X180347439Y-188307200D01*
X180264105Y-188211962D01*
X180240295Y-188402438D01*
X180847438Y-188878629D02*
X181609343Y-188878629D01*
X181216486Y-188211962D02*
X181002200Y-189926248D01*
X181073630Y-190116724D01*
X181252201Y-190211962D01*
X181442677Y-190211962D01*
X182395058Y-190211962D02*
X182216487Y-190116724D01*
X182145057Y-189926248D01*
X182359343Y-188211962D01*
X183930772Y-190116724D02*
X183728391Y-190211962D01*
X183347439Y-190211962D01*
X183168867Y-190116724D01*
X183097438Y-189926248D01*
X183192676Y-189164343D01*
X183311724Y-188973867D01*
X183514105Y-188878629D01*
X183895057Y-188878629D01*
X184073629Y-188973867D01*
X184145057Y-189164343D01*
X184121248Y-189354819D01*
X183145057Y-189545295D01*
X184895057Y-190021486D02*
X184978392Y-190116724D01*
X184871248Y-190211962D01*
X184787915Y-190116724D01*
X184895057Y-190021486D01*
X184871248Y-190211962D01*
X185026010Y-188973867D02*
X185109344Y-189069105D01*
X185002200Y-189164343D01*
X184918867Y-189069105D01*
X185026010Y-188973867D01*
X185002200Y-189164343D01*
D10*
D11*
X178859343Y-185600057D02*
X178359343Y-185600057D01*
X178359343Y-186385771D02*
X178359343Y-184885771D01*
X179073629Y-184885771D01*
X179645057Y-186385771D02*
X179645057Y-185385771D01*
X179645057Y-184885771D02*
X179573628Y-184957200D01*
X179645057Y-185028629D01*
X179716485Y-184957200D01*
X179645057Y-184885771D01*
X179645057Y-185028629D01*
X180573629Y-186385771D02*
X180430771Y-186314343D01*
X180359343Y-186171486D01*
X180359343Y-184885771D01*
X181716485Y-186314343D02*
X181573628Y-186385771D01*
X181287914Y-186385771D01*
X181145057Y-186314343D01*
X181073628Y-186171486D01*
X181073628Y-185600057D01*
X181145057Y-185457200D01*
X181287914Y-185385771D01*
X181573628Y-185385771D01*
X181716485Y-185457200D01*
X181787914Y-185600057D01*
X181787914Y-185742914D01*
X181073628Y-185885771D01*
X182430771Y-186242914D02*
X182502199Y-186314343D01*
X182430771Y-186385771D01*
X182359342Y-186314343D01*
X182430771Y-186242914D01*
X182430771Y-186385771D01*
X182430771Y-185457200D02*
X182502199Y-185528629D01*
X182430771Y-185600057D01*
X182359342Y-185528629D01*
X182430771Y-185457200D01*
X182430771Y-185600057D01*
X184859342Y-186314343D02*
X184716485Y-186385771D01*
X184430771Y-186385771D01*
X184287914Y-186314343D01*
X184216485Y-186171486D01*
X184216485Y-185600057D01*
X184287914Y-185457200D01*
X184430771Y-185385771D01*
X184716485Y-185385771D01*
X184859342Y-185457200D01*
X184930771Y-185600057D01*
X184930771Y-185742914D01*
X184216485Y-185885771D01*
X185573628Y-186385771D02*
X185573628Y-185385771D01*
X185573628Y-184885771D02*
X185502199Y-184957200D01*
X185573628Y-185028629D01*
X185645056Y-184957200D01*
X185573628Y-184885771D01*
X185573628Y-185028629D01*
X186287914Y-185385771D02*
X186287914Y-186385771D01*
X186287914Y-185528629D02*
X186359342Y-185457200D01*
X186502200Y-185385771D01*
X186716485Y-185385771D01*
X186859342Y-185457200D01*
X186930771Y-185600057D01*
X186930771Y-186385771D01*
X187645057Y-186385771D02*
X187645057Y-184885771D01*
X187787914Y-185814343D02*
X188216485Y-186385771D01*
X188216485Y-185385771D02*
X187645057Y-185957200D01*
X189502200Y-186385771D02*
X189502200Y-184885771D01*
X189502200Y-186314343D02*
X189359343Y-186385771D01*
X189073629Y-186385771D01*
X188930771Y-186314343D01*
X188859343Y-186242914D01*
X188787914Y-186100057D01*
X188787914Y-185671486D01*
X188859343Y-185528629D01*
X188930771Y-185457200D01*
X189073629Y-185385771D01*
X189359343Y-185385771D01*
X189502200Y-185457200D01*
X190216486Y-186385771D02*
X190216486Y-185385771D01*
X190216486Y-184885771D02*
X190145057Y-184957200D01*
X190216486Y-185028629D01*
X190287914Y-184957200D01*
X190216486Y-184885771D01*
X190216486Y-185028629D01*
X190859343Y-186314343D02*
X191002200Y-186385771D01*
X191287915Y-186385771D01*
X191430772Y-186314343D01*
X191502200Y-186171486D01*
X191502200Y-186100057D01*
X191430772Y-185957200D01*
X191287915Y-185885771D01*
X191073629Y-185885771D01*
X190930772Y-185814343D01*
X190859343Y-185671486D01*
X190859343Y-185600057D01*
X190930772Y-185457200D01*
X191073629Y-185385771D01*
X191287915Y-185385771D01*
X191430772Y-185457200D01*
X192145058Y-185385771D02*
X192145058Y-186885771D01*
X192145058Y-185457200D02*
X192287915Y-185385771D01*
X192573629Y-185385771D01*
X192716486Y-185457200D01*
X192787915Y-185528629D01*
X192859344Y-185671486D01*
X192859344Y-186100057D01*
X192787915Y-186242914D01*
X192716486Y-186314343D01*
X192573629Y-186385771D01*
X192287915Y-186385771D01*
X192145058Y-186314343D01*
X193716487Y-186385771D02*
X193573629Y-186314343D01*
X193502201Y-186171486D01*
X193502201Y-184885771D01*
X194930772Y-186385771D02*
X194930772Y-185600057D01*
X194859343Y-185457200D01*
X194716486Y-185385771D01*
X194430772Y-185385771D01*
X194287915Y-185457200D01*
X194930772Y-186314343D02*
X194787915Y-186385771D01*
X194430772Y-186385771D01*
X194287915Y-186314343D01*
X194216486Y-186171486D01*
X194216486Y-186028629D01*
X194287915Y-185885771D01*
X194430772Y-185814343D01*
X194787915Y-185814343D01*
X194930772Y-185742914D01*
X195502201Y-185385771D02*
X195859344Y-186385771D01*
X196216486Y-185385771D02*
X195859344Y-186385771D01*
X195716486Y-186742914D01*
X195645058Y-186814343D01*
X195502201Y-186885771D01*
X196787915Y-186242914D02*
X196859343Y-186314343D01*
X196787915Y-186385771D01*
X196716486Y-186314343D01*
X196787915Y-186242914D01*
X196787915Y-186385771D01*
X197502201Y-186385771D02*
X197502201Y-184885771D01*
X197645058Y-185814343D02*
X198073629Y-186385771D01*
X198073629Y-185385771D02*
X197502201Y-185957200D01*
X198716487Y-186385771D02*
X198716487Y-185385771D01*
X198716487Y-184885771D02*
X198645058Y-184957200D01*
X198716487Y-185028629D01*
X198787915Y-184957200D01*
X198716487Y-184885771D01*
X198716487Y-185028629D01*
X200073630Y-186314343D02*
X199930773Y-186385771D01*
X199645059Y-186385771D01*
X199502201Y-186314343D01*
X199430773Y-186242914D01*
X199359344Y-186100057D01*
X199359344Y-185671486D01*
X199430773Y-185528629D01*
X199502201Y-185457200D01*
X199645059Y-185385771D01*
X199930773Y-185385771D01*
X200073630Y-185457200D01*
X201359344Y-186385771D02*
X201359344Y-185600057D01*
X201287915Y-185457200D01*
X201145058Y-185385771D01*
X200859344Y-185385771D01*
X200716487Y-185457200D01*
X201359344Y-186314343D02*
X201216487Y-186385771D01*
X200859344Y-186385771D01*
X200716487Y-186314343D01*
X200645058Y-186171486D01*
X200645058Y-186028629D01*
X200716487Y-185885771D01*
X200859344Y-185814343D01*
X201216487Y-185814343D01*
X201359344Y-185742914D01*
X202716487Y-186385771D02*
X202716487Y-184885771D01*
X202716487Y-186314343D02*
X202573630Y-186385771D01*
X202287916Y-186385771D01*
X202145058Y-186314343D01*
X202073630Y-186242914D01*
X202002201Y-186100057D01*
X202002201Y-185671486D01*
X202073630Y-185528629D01*
X202145058Y-185457200D01*
X202287916Y-185385771D01*
X202573630Y-185385771D01*
X202716487Y-185457200D01*
X203073630Y-186528629D02*
X204216487Y-186528629D01*
X204573630Y-185385771D02*
X204573630Y-186885771D01*
X204573630Y-185457200D02*
X204716487Y-185385771D01*
X205002201Y-185385771D01*
X205145058Y-185457200D01*
X205216487Y-185528629D01*
X205287916Y-185671486D01*
X205287916Y-186100057D01*
X205216487Y-186242914D01*
X205145058Y-186314343D01*
X205002201Y-186385771D01*
X204716487Y-186385771D01*
X204573630Y-186314343D01*
X206573630Y-186314343D02*
X206430773Y-186385771D01*
X206145059Y-186385771D01*
X206002201Y-186314343D01*
X205930773Y-186242914D01*
X205859344Y-186100057D01*
X205859344Y-185671486D01*
X205930773Y-185528629D01*
X206002201Y-185457200D01*
X206145059Y-185385771D01*
X206430773Y-185385771D01*
X206573630Y-185457200D01*
X207216487Y-186385771D02*
X207216487Y-184885771D01*
X207216487Y-185457200D02*
X207359344Y-185385771D01*
X207645058Y-185385771D01*
X207787915Y-185457200D01*
X207859344Y-185528629D01*
X207930773Y-185671486D01*
X207930773Y-186100057D01*
X207859344Y-186242914D01*
X207787915Y-186314343D01*
X207645058Y-186385771D01*
X207359344Y-186385771D01*
X207216487Y-186314343D01*
D10*
D11*
X177002200Y-181507200D02*
X285002200Y-181507200D01*
D10*
D11*
X178287914Y-183614343D02*
X178502200Y-183685771D01*
X178859343Y-183685771D01*
X179002200Y-183614343D01*
X179073629Y-183542914D01*
X179145057Y-183400057D01*
X179145057Y-183257200D01*
X179073629Y-183114343D01*
X179002200Y-183042914D01*
X178859343Y-182971486D01*
X178573629Y-182900057D01*
X178430771Y-182828629D01*
X178359343Y-182757200D01*
X178287914Y-182614343D01*
X178287914Y-182471486D01*
X178359343Y-182328629D01*
X178430771Y-182257200D01*
X178573629Y-182185771D01*
X178930771Y-182185771D01*
X179145057Y-182257200D01*
X179787914Y-183685771D02*
X179787914Y-182185771D01*
X180430771Y-183685771D02*
X180430771Y-182900057D01*
X180359342Y-182757200D01*
X180216485Y-182685771D01*
X180002200Y-182685771D01*
X179859342Y-182757200D01*
X179787914Y-182828629D01*
X181716485Y-183614343D02*
X181573628Y-183685771D01*
X181287914Y-183685771D01*
X181145057Y-183614343D01*
X181073628Y-183471486D01*
X181073628Y-182900057D01*
X181145057Y-182757200D01*
X181287914Y-182685771D01*
X181573628Y-182685771D01*
X181716485Y-182757200D01*
X181787914Y-182900057D01*
X181787914Y-183042914D01*
X181073628Y-183185771D01*
X183002199Y-183614343D02*
X182859342Y-183685771D01*
X182573628Y-183685771D01*
X182430771Y-183614343D01*
X182359342Y-183471486D01*
X182359342Y-182900057D01*
X182430771Y-182757200D01*
X182573628Y-182685771D01*
X182859342Y-182685771D01*
X183002199Y-182757200D01*
X183073628Y-182900057D01*
X183073628Y-183042914D01*
X182359342Y-183185771D01*
X183502199Y-182685771D02*
X184073628Y-182685771D01*
X183716485Y-182185771D02*
X183716485Y-183471486D01*
X183787913Y-183614343D01*
X183930771Y-183685771D01*
X184073628Y-183685771D01*
X184573628Y-183542914D02*
X184645056Y-183614343D01*
X184573628Y-183685771D01*
X184502199Y-183614343D01*
X184573628Y-183542914D01*
X184573628Y-183685771D01*
X184573628Y-182757200D02*
X184645056Y-182828629D01*
X184573628Y-182900057D01*
X184502199Y-182828629D01*
X184573628Y-182757200D01*
X184573628Y-182900057D01*
D10*
D11*
X197002200Y-191507200D02*
X197002200Y-194507200D01*
D10*
D11*
X261002200Y-191507200D02*
X261002200Y-198007200D01*
D10*
X50000000Y-138000000D02*
X50000000Y-38000000D01*
X150000000Y-138000000D02*
X50000000Y-138000000D01*
X150000000Y-38000000D02*
X150000000Y-138000000D01*
X50000000Y-38000000D02*
X150000000Y-38000000D01*
D14*
X56000000Y-116500000D03*
X57500000Y-116500000D03*
D15*
X121405000Y-57800000D03*
X120135000Y-57800000D03*
X118865000Y-57800000D03*
X117595000Y-57800000D03*
X117595000Y-63200000D03*
X118865000Y-63200000D03*
X120135000Y-63200000D03*
X121405000Y-63200000D03*
D16*
X122300000Y-79250000D03*
X122300000Y-79750000D03*
X122300000Y-80250000D03*
X122300000Y-80750000D03*
X122300000Y-81250000D03*
X122300000Y-81750000D03*
X122300000Y-82250000D03*
X122300000Y-82750000D03*
X122300000Y-83250000D03*
X122300000Y-83750000D03*
X122300000Y-84250000D03*
X122300000Y-84750000D03*
X122300000Y-85250000D03*
X122300000Y-85750000D03*
X122300000Y-86250000D03*
X122300000Y-86750000D03*
D17*
X124250000Y-88700000D03*
X124750000Y-88700000D03*
X125250000Y-88700000D03*
X125750000Y-88700000D03*
X126250000Y-88700000D03*
X126750000Y-88700000D03*
X127250000Y-88700000D03*
X127750000Y-88700000D03*
X128250000Y-88700000D03*
X128750000Y-88700000D03*
X129250000Y-88700000D03*
X129750000Y-88700000D03*
X130250000Y-88700000D03*
X130750000Y-88700000D03*
X131250000Y-88700000D03*
X131750000Y-88700000D03*
D16*
X133700000Y-86750000D03*
X133700000Y-86250000D03*
X133700000Y-85750000D03*
X133700000Y-85250000D03*
X133700000Y-84750000D03*
X133700000Y-84250000D03*
X133700000Y-83750000D03*
X133700000Y-83250000D03*
X133700000Y-82750000D03*
X133700000Y-82250000D03*
X133700000Y-81750000D03*
X133700000Y-81250000D03*
X133700000Y-80750000D03*
X133700000Y-80250000D03*
X133700000Y-79750000D03*
X133700000Y-79250000D03*
D17*
X131750000Y-77300000D03*
X131250000Y-77300000D03*
X130750000Y-77300000D03*
X130250000Y-77300000D03*
X129750000Y-77300000D03*
X129250000Y-77300000D03*
X128750000Y-77300000D03*
X128250000Y-77300000D03*
X127750000Y-77300000D03*
X127250000Y-77300000D03*
X126750000Y-77300000D03*
X126250000Y-77300000D03*
X125750000Y-77300000D03*
X125250000Y-77300000D03*
X124750000Y-77300000D03*
X124250000Y-77300000D03*
D18*
X55812540Y-97700900D03*
X55812540Y-98350900D03*
X55812540Y-99000900D03*
X55812540Y-99650900D03*
X55812540Y-100300900D03*
D19*
X55812540Y-96500900D03*
X55812540Y-101500900D03*
D20*
X53112540Y-95500900D03*
X53112540Y-102500900D03*
D21*
X54500000Y-86730000D03*
X54500000Y-89270000D03*
D22*
X61250000Y-97250000D03*
X61250000Y-100250000D03*
D23*
X140750000Y-69000000D03*
X140750000Y-67500000D03*
D22*
X59500000Y-86500000D03*
X59500000Y-89500000D03*
D24*
X65500000Y-52000000D03*
X62500000Y-52000000D03*
D22*
X105750000Y-94250000D03*
X105750000Y-97250000D03*
D25*
X117250000Y-82750000D03*
X118750000Y-82750000D03*
D24*
X111500000Y-100000000D03*
X108500000Y-100000000D03*
D25*
X114000000Y-105477593D03*
X115500000Y-105477593D03*
D26*
X75500000Y-54500000D03*
X75500000Y-52500000D03*
D23*
X126000000Y-92000000D03*
X126000000Y-93500000D03*
X128000000Y-93500000D03*
X128000000Y-92000000D03*
D22*
X83750000Y-44000000D03*
X83750000Y-47000000D03*
X88000000Y-53250000D03*
X88000000Y-50250000D03*
D23*
X87750000Y-44750000D03*
X87750000Y-43250000D03*
X92500000Y-51750000D03*
X92500000Y-50250000D03*
X128500000Y-71750000D03*
X128500000Y-73250000D03*
X97500000Y-46500000D03*
X97500000Y-45000000D03*
X102500000Y-53500000D03*
X102500000Y-52000000D03*
X137000000Y-84250000D03*
X137000000Y-82750000D03*
D25*
X130250000Y-116000000D03*
X131750000Y-116000000D03*
D22*
X112500000Y-46500000D03*
X112500000Y-49500000D03*
X116400000Y-53500000D03*
X116400000Y-50500000D03*
D23*
X105250000Y-123250000D03*
X105250000Y-121750000D03*
D27*
X125700000Y-129700000D03*
D28*
X126650000Y-119200000D03*
X127600000Y-119200000D03*
X128700000Y-119200000D03*
X129800000Y-119200000D03*
X130900000Y-119200000D03*
X132000000Y-119200000D03*
X133100000Y-119200000D03*
X134200000Y-119200000D03*
X135300000Y-119200000D03*
D29*
X125700000Y-123500000D03*
D30*
X139100000Y-134200000D03*
D31*
X125700000Y-134300000D03*
D32*
X136850000Y-119200000D03*
D33*
X53000700Y-106250000D03*
X54499300Y-106250000D03*
X53000700Y-112500000D03*
X54499300Y-112500000D03*
X53000700Y-118750000D03*
X54499300Y-118750000D03*
X53000700Y-125000000D03*
X54499300Y-125000000D03*
D34*
X145800000Y-70550000D03*
X145800000Y-57450000D03*
D35*
X146100000Y-58300000D03*
X146100000Y-58900000D03*
X146100000Y-59500000D03*
X146100000Y-60100000D03*
X146100000Y-60700000D03*
X146100000Y-61300000D03*
X146100000Y-61900000D03*
X146100000Y-62500000D03*
X146100000Y-63100000D03*
X146100000Y-63700000D03*
X146100000Y-64300000D03*
X146100000Y-64900000D03*
X146100000Y-65500000D03*
X146100000Y-66100000D03*
X146100000Y-66700000D03*
X146100000Y-67300000D03*
X146100000Y-67900000D03*
X146100000Y-68500000D03*
X146100000Y-69100000D03*
X146100000Y-69700000D03*
X143150000Y-69400000D03*
X143150000Y-68800000D03*
X143150000Y-68200000D03*
X143150000Y-67600000D03*
X143150000Y-67000000D03*
X143150000Y-66400000D03*
X143150000Y-65800000D03*
X143150000Y-65200000D03*
X143150000Y-64600000D03*
X143150000Y-64000000D03*
X143150000Y-63400000D03*
X143150000Y-62800000D03*
X143150000Y-62200000D03*
X143150000Y-61600000D03*
X143150000Y-61000000D03*
X143150000Y-60400000D03*
X143150000Y-59800000D03*
X143150000Y-59200000D03*
X143150000Y-58600000D03*
D36*
X68500000Y-46750000D03*
X72500000Y-46750000D03*
X68500000Y-52750000D03*
X72500000Y-52750000D03*
D19*
X55812540Y-101500900D03*
X55812540Y-96500900D03*
D20*
X53112540Y-102500900D03*
X53112540Y-95500900D03*
D37*
X118250000Y-109000000D03*
D38*
X118250000Y-106460000D03*
X118250000Y-103920000D03*
X118250000Y-101380000D03*
X118250000Y-98840000D03*
D39*
X63499240Y-56800000D03*
X63499240Y-58700000D03*
X65498220Y-57750000D03*
D40*
X64500000Y-92500000D03*
X64500000Y-94000000D03*
D14*
X59500000Y-106250000D03*
X58000000Y-106250000D03*
D40*
X61500000Y-58500000D03*
X61500000Y-57000000D03*
X108500000Y-57750000D03*
X108500000Y-56250000D03*
D14*
X79750000Y-45750000D03*
X81250000Y-45750000D03*
X80250000Y-47750000D03*
X81750000Y-47750000D03*
D40*
X113902627Y-103477593D03*
X113902627Y-101977593D03*
X113902627Y-108977593D03*
X113902627Y-107477593D03*
D14*
X81250000Y-50500000D03*
X82750000Y-50500000D03*
D40*
X82500000Y-52000000D03*
X82500000Y-53500000D03*
X78000000Y-43750000D03*
X78000000Y-45250000D03*
D14*
X78000000Y-47000000D03*
X76500000Y-47000000D03*
D40*
X122500000Y-126750000D03*
X122500000Y-128250000D03*
X105250000Y-127250000D03*
X105250000Y-128750000D03*
D14*
X98250000Y-43000000D03*
X96750000Y-43000000D03*
X103000000Y-50000000D03*
X101500000Y-50000000D03*
X108500000Y-135250000D03*
X110000000Y-135250000D03*
X110750000Y-132750000D03*
X112250000Y-132750000D03*
X54250000Y-69000000D03*
X55750000Y-69000000D03*
D40*
X99750000Y-45000000D03*
X99750000Y-46500000D03*
X104500000Y-52000000D03*
X104500000Y-53500000D03*
D14*
X136750000Y-116000000D03*
X135250000Y-116000000D03*
X136000000Y-114000000D03*
X134500000Y-114000000D03*
X131750000Y-113000000D03*
X130250000Y-113000000D03*
X126250000Y-114000000D03*
X127750000Y-114000000D03*
D40*
X92500000Y-114250000D03*
X92500000Y-115750000D03*
X82500000Y-132250000D03*
X82500000Y-133750000D03*
X61250000Y-119500000D03*
X61250000Y-121000000D03*
D14*
X86500000Y-134250000D03*
X85000000Y-134250000D03*
D41*
X108460000Y-60730000D03*
X113540000Y-62000000D03*
X108460000Y-63270000D03*
D42*
X57250000Y-80975000D03*
X52750000Y-80975000D03*
X52750000Y-73025000D03*
X57250000Y-73025000D03*
D43*
X130000000Y-60000000D03*
X130000000Y-50000000D03*
X130000000Y-41500000D03*
X130000000Y-56700000D03*
X130000000Y-46500000D03*
X130000000Y-53500000D03*
D44*
X64200000Y-88400000D03*
X63250000Y-88400000D03*
X62300000Y-88400000D03*
X62300000Y-90600000D03*
X64200000Y-90600000D03*
D45*
X111275000Y-84500000D03*
X111825000Y-84500000D03*
X112375000Y-84500000D03*
X112925000Y-84500000D03*
X113475000Y-84500000D03*
X114025000Y-84500000D03*
X114575000Y-84500000D03*
X114575000Y-71500000D03*
X114025000Y-71500000D03*
X113475000Y-71500000D03*
X112925000Y-71500000D03*
X112375000Y-71500000D03*
X111825000Y-71500000D03*
X111275000Y-71500000D03*
X110725000Y-84500000D03*
X110175000Y-84500000D03*
X109625000Y-84500000D03*
X109075000Y-84500000D03*
X108525000Y-84500000D03*
X107975000Y-84500000D03*
X107425000Y-84500000D03*
X107425000Y-71500000D03*
X107975000Y-71500000D03*
X108525000Y-71500000D03*
X109075000Y-71500000D03*
X109625000Y-71500000D03*
X110175000Y-71500000D03*
X110725000Y-71500000D03*
D39*
X109050000Y-96750760D03*
X110950000Y-96750760D03*
X110000000Y-94751780D03*
D46*
X76500000Y-49750000D03*
D47*
X75087500Y-48750000D03*
X75087500Y-49250000D03*
X75087500Y-49750000D03*
X75087500Y-50250000D03*
X75087500Y-50750000D03*
X77912500Y-48750000D03*
X77912500Y-49250000D03*
X77912500Y-49750000D03*
X77912500Y-50250000D03*
X77912500Y-50750000D03*
D48*
X92500000Y-45000000D03*
D49*
X94600000Y-45975000D03*
X94600000Y-45325000D03*
X94600000Y-44675000D03*
X94600000Y-44025000D03*
X90400000Y-45975000D03*
X90400000Y-45325000D03*
X90400000Y-44675000D03*
X90400000Y-44025000D03*
D48*
X97250000Y-52000000D03*
D49*
X99350000Y-52975000D03*
X99350000Y-52325000D03*
X99350000Y-51675000D03*
X99350000Y-51025000D03*
X95150000Y-52975000D03*
X95150000Y-52325000D03*
X95150000Y-51675000D03*
X95150000Y-51025000D03*
D40*
X76250000Y-90750000D03*
X76250000Y-89250000D03*
X83750000Y-90250000D03*
X83750000Y-91750000D03*
D14*
X82500000Y-88000000D03*
X84000000Y-88000000D03*
D40*
X86250000Y-91000000D03*
X86250000Y-89500000D03*
D14*
X55750000Y-63000000D03*
X54250000Y-63000000D03*
D42*
X57250000Y-58975000D03*
X52750000Y-58975000D03*
X52750000Y-51025000D03*
X57250000Y-51025000D03*
D50*
X78800000Y-90000000D03*
X80700000Y-90650000D03*
X80700000Y-89350000D03*
X78800000Y-90650000D03*
X80700000Y-90000000D03*
X78800000Y-89350000D03*
D51*
X77445000Y-53000000D03*
X79555000Y-53000000D03*
D25*
X143350000Y-72500000D03*
X141850000Y-72500000D03*
X135500000Y-63250000D03*
X137000000Y-63250000D03*
D23*
X137500000Y-59750000D03*
X137500000Y-61250000D03*
D25*
X145350000Y-72500000D03*
X146850000Y-72500000D03*
X145500000Y-55000000D03*
X147000000Y-55000000D03*
D23*
X118750000Y-87500000D03*
X118750000Y-89000000D03*
D40*
X106250000Y-133500000D03*
X106250000Y-132000000D03*
X108750000Y-132750000D03*
X108750000Y-131250000D03*
X84500000Y-129750000D03*
X84500000Y-131250000D03*
X99000000Y-116750000D03*
X99000000Y-118250000D03*
X97000000Y-116750000D03*
X97000000Y-118250000D03*
X95000000Y-116750000D03*
X95000000Y-118250000D03*
D14*
X128750000Y-95750000D03*
X130250000Y-95750000D03*
D52*
X103000000Y-124501040D03*
X103000000Y-123304700D03*
X103000000Y-125705000D03*
X103000000Y-126901340D03*
X103000000Y-131699400D03*
X103000000Y-130500520D03*
X103000000Y-128100220D03*
X103000000Y-129299100D03*
X103000000Y-134099700D03*
X103000000Y-132900820D03*
X103000000Y-135301120D03*
X103000000Y-136500000D03*
X89802160Y-123299620D03*
X89799620Y-124501040D03*
X89799620Y-125699920D03*
X89799620Y-126898800D03*
X89799620Y-128100220D03*
X89799620Y-129299100D03*
X89799620Y-130500520D03*
X89799620Y-131699400D03*
X89799620Y-132900820D03*
X89799620Y-134099700D03*
X89799620Y-135301120D03*
X89799620Y-136500000D03*
D53*
X100500640Y-120500540D03*
X99502420Y-120500540D03*
X98201940Y-120500540D03*
X97000520Y-120500540D03*
X95801640Y-120500540D03*
X94600220Y-120500540D03*
X93203220Y-120500540D03*
X92205000Y-120500540D03*
M02*
