G04 #@! TF.FileFunction,Legend,Top*
%FSLAX46Y46*%
G04 Gerber Fmt 4.6, Leading zero omitted, Abs format (unit mm)*
G04 Created by KiCad (PCBNEW 4.0.0-rc1-stable) date Tue 08 Dec 2015 07:53:02 AM PST*
%MOMM*%
G01*
G04 APERTURE LIST*
%ADD10C,0.100000*%
%ADD11C,0.150000*%
%ADD12C,0.300000*%
%ADD13C,0.400000*%
%ADD14C,0.200000*%
%ADD15C,0.381000*%
%ADD16C,0.304800*%
%ADD17C,0.127000*%
G04 APERTURE END LIST*
D10*
D11*
X177002200Y-166007200D02*
X177002200Y-198007200D01*
X285002200Y-198007200D01*
X285002200Y-166007200D01*
X177002200Y-166007200D01*
D10*
D11*
X10000000Y-10000000D02*
X10000000Y-200007200D01*
X287002200Y-200007200D01*
X287002200Y-10000000D01*
X10000000Y-10000000D01*
D10*
D11*
X12000000Y-12000000D02*
X12000000Y-198007200D01*
X285002200Y-198007200D01*
X285002200Y-12000000D01*
X12000000Y-12000000D01*
D10*
D11*
X60000000Y-12000000D02*
X60000000Y-10000000D01*
D10*
D11*
X110000000Y-12000000D02*
X110000000Y-10000000D01*
D10*
D11*
X160000000Y-12000000D02*
X160000000Y-10000000D01*
D10*
D11*
X210000000Y-12000000D02*
X210000000Y-10000000D01*
D10*
D11*
X260000000Y-12000000D02*
X260000000Y-10000000D01*
D10*
D11*
X35990476Y-11588095D02*
X35247619Y-11588095D01*
X35619048Y-11588095D02*
X35619048Y-10288095D01*
X35495238Y-10473810D01*
X35371429Y-10597619D01*
X35247619Y-10659524D01*
D10*
D11*
X85247619Y-10411905D02*
X85309524Y-10350000D01*
X85433333Y-10288095D01*
X85742857Y-10288095D01*
X85866667Y-10350000D01*
X85928571Y-10411905D01*
X85990476Y-10535714D01*
X85990476Y-10659524D01*
X85928571Y-10845238D01*
X85185714Y-11588095D01*
X85990476Y-11588095D01*
D10*
D11*
X135185714Y-10288095D02*
X135990476Y-10288095D01*
X135557143Y-10783333D01*
X135742857Y-10783333D01*
X135866667Y-10845238D01*
X135928571Y-10907143D01*
X135990476Y-11030952D01*
X135990476Y-11340476D01*
X135928571Y-11464286D01*
X135866667Y-11526190D01*
X135742857Y-11588095D01*
X135371429Y-11588095D01*
X135247619Y-11526190D01*
X135185714Y-11464286D01*
D10*
D11*
X185866667Y-10721429D02*
X185866667Y-11588095D01*
X185557143Y-10226190D02*
X185247619Y-11154762D01*
X186052381Y-11154762D01*
D10*
D11*
X235928571Y-10288095D02*
X235309524Y-10288095D01*
X235247619Y-10907143D01*
X235309524Y-10845238D01*
X235433333Y-10783333D01*
X235742857Y-10783333D01*
X235866667Y-10845238D01*
X235928571Y-10907143D01*
X235990476Y-11030952D01*
X235990476Y-11340476D01*
X235928571Y-11464286D01*
X235866667Y-11526190D01*
X235742857Y-11588095D01*
X235433333Y-11588095D01*
X235309524Y-11526190D01*
X235247619Y-11464286D01*
D10*
D11*
X285866667Y-10288095D02*
X285619048Y-10288095D01*
X285495238Y-10350000D01*
X285433333Y-10411905D01*
X285309524Y-10597619D01*
X285247619Y-10845238D01*
X285247619Y-11340476D01*
X285309524Y-11464286D01*
X285371429Y-11526190D01*
X285495238Y-11588095D01*
X285742857Y-11588095D01*
X285866667Y-11526190D01*
X285928571Y-11464286D01*
X285990476Y-11340476D01*
X285990476Y-11030952D01*
X285928571Y-10907143D01*
X285866667Y-10845238D01*
X285742857Y-10783333D01*
X285495238Y-10783333D01*
X285371429Y-10845238D01*
X285309524Y-10907143D01*
X285247619Y-11030952D01*
D10*
D11*
X60000000Y-198007200D02*
X60000000Y-200007200D01*
D10*
D11*
X110000000Y-198007200D02*
X110000000Y-200007200D01*
D10*
D11*
X160000000Y-198007200D02*
X160000000Y-200007200D01*
D10*
D11*
X210000000Y-198007200D02*
X210000000Y-200007200D01*
D10*
D11*
X260000000Y-198007200D02*
X260000000Y-200007200D01*
D10*
D11*
X35990476Y-199595295D02*
X35247619Y-199595295D01*
X35619048Y-199595295D02*
X35619048Y-198295295D01*
X35495238Y-198481010D01*
X35371429Y-198604819D01*
X35247619Y-198666724D01*
D10*
D11*
X85247619Y-198419105D02*
X85309524Y-198357200D01*
X85433333Y-198295295D01*
X85742857Y-198295295D01*
X85866667Y-198357200D01*
X85928571Y-198419105D01*
X85990476Y-198542914D01*
X85990476Y-198666724D01*
X85928571Y-198852438D01*
X85185714Y-199595295D01*
X85990476Y-199595295D01*
D10*
D11*
X135185714Y-198295295D02*
X135990476Y-198295295D01*
X135557143Y-198790533D01*
X135742857Y-198790533D01*
X135866667Y-198852438D01*
X135928571Y-198914343D01*
X135990476Y-199038152D01*
X135990476Y-199347676D01*
X135928571Y-199471486D01*
X135866667Y-199533390D01*
X135742857Y-199595295D01*
X135371429Y-199595295D01*
X135247619Y-199533390D01*
X135185714Y-199471486D01*
D10*
D11*
X185866667Y-198728629D02*
X185866667Y-199595295D01*
X185557143Y-198233390D02*
X185247619Y-199161962D01*
X186052381Y-199161962D01*
D10*
D11*
X235928571Y-198295295D02*
X235309524Y-198295295D01*
X235247619Y-198914343D01*
X235309524Y-198852438D01*
X235433333Y-198790533D01*
X235742857Y-198790533D01*
X235866667Y-198852438D01*
X235928571Y-198914343D01*
X235990476Y-199038152D01*
X235990476Y-199347676D01*
X235928571Y-199471486D01*
X235866667Y-199533390D01*
X235742857Y-199595295D01*
X235433333Y-199595295D01*
X235309524Y-199533390D01*
X235247619Y-199471486D01*
D10*
D11*
X285866667Y-198295295D02*
X285619048Y-198295295D01*
X285495238Y-198357200D01*
X285433333Y-198419105D01*
X285309524Y-198604819D01*
X285247619Y-198852438D01*
X285247619Y-199347676D01*
X285309524Y-199471486D01*
X285371429Y-199533390D01*
X285495238Y-199595295D01*
X285742857Y-199595295D01*
X285866667Y-199533390D01*
X285928571Y-199471486D01*
X285990476Y-199347676D01*
X285990476Y-199038152D01*
X285928571Y-198914343D01*
X285866667Y-198852438D01*
X285742857Y-198790533D01*
X285495238Y-198790533D01*
X285371429Y-198852438D01*
X285309524Y-198914343D01*
X285247619Y-199038152D01*
D10*
D11*
X10000000Y-60000000D02*
X12000000Y-60000000D01*
D10*
D11*
X10000000Y-110000000D02*
X12000000Y-110000000D01*
D10*
D11*
X10000000Y-160000000D02*
X12000000Y-160000000D01*
D10*
D11*
X10690476Y-35216667D02*
X11309524Y-35216667D01*
X10566667Y-35588095D02*
X11000000Y-34288095D01*
X11433333Y-35588095D01*
D10*
D11*
X11092857Y-84907143D02*
X11278571Y-84969048D01*
X11340476Y-85030952D01*
X11402381Y-85154762D01*
X11402381Y-85340476D01*
X11340476Y-85464286D01*
X11278571Y-85526190D01*
X11154762Y-85588095D01*
X10659524Y-85588095D01*
X10659524Y-84288095D01*
X11092857Y-84288095D01*
X11216667Y-84350000D01*
X11278571Y-84411905D01*
X11340476Y-84535714D01*
X11340476Y-84659524D01*
X11278571Y-84783333D01*
X11216667Y-84845238D01*
X11092857Y-84907143D01*
X10659524Y-84907143D01*
D10*
D11*
X11402381Y-135464286D02*
X11340476Y-135526190D01*
X11154762Y-135588095D01*
X11030952Y-135588095D01*
X10845238Y-135526190D01*
X10721429Y-135402381D01*
X10659524Y-135278571D01*
X10597619Y-135030952D01*
X10597619Y-134845238D01*
X10659524Y-134597619D01*
X10721429Y-134473810D01*
X10845238Y-134350000D01*
X11030952Y-134288095D01*
X11154762Y-134288095D01*
X11340476Y-134350000D01*
X11402381Y-134411905D01*
D10*
D11*
X10659524Y-185588095D02*
X10659524Y-184288095D01*
X10969048Y-184288095D01*
X11154762Y-184350000D01*
X11278571Y-184473810D01*
X11340476Y-184597619D01*
X11402381Y-184845238D01*
X11402381Y-185030952D01*
X11340476Y-185278571D01*
X11278571Y-185402381D01*
X11154762Y-185526190D01*
X10969048Y-185588095D01*
X10659524Y-185588095D01*
D10*
D11*
X287002200Y-60000000D02*
X285002200Y-60000000D01*
D10*
D11*
X287002200Y-110000000D02*
X285002200Y-110000000D01*
D10*
D11*
X287002200Y-160000000D02*
X285002200Y-160000000D01*
D10*
D11*
X285692676Y-35216667D02*
X286311724Y-35216667D01*
X285568867Y-35588095D02*
X286002200Y-34288095D01*
X286435533Y-35588095D01*
D10*
D11*
X286095057Y-84907143D02*
X286280771Y-84969048D01*
X286342676Y-85030952D01*
X286404581Y-85154762D01*
X286404581Y-85340476D01*
X286342676Y-85464286D01*
X286280771Y-85526190D01*
X286156962Y-85588095D01*
X285661724Y-85588095D01*
X285661724Y-84288095D01*
X286095057Y-84288095D01*
X286218867Y-84350000D01*
X286280771Y-84411905D01*
X286342676Y-84535714D01*
X286342676Y-84659524D01*
X286280771Y-84783333D01*
X286218867Y-84845238D01*
X286095057Y-84907143D01*
X285661724Y-84907143D01*
D10*
D11*
X286404581Y-135464286D02*
X286342676Y-135526190D01*
X286156962Y-135588095D01*
X286033152Y-135588095D01*
X285847438Y-135526190D01*
X285723629Y-135402381D01*
X285661724Y-135278571D01*
X285599819Y-135030952D01*
X285599819Y-134845238D01*
X285661724Y-134597619D01*
X285723629Y-134473810D01*
X285847438Y-134350000D01*
X286033152Y-134288095D01*
X286156962Y-134288095D01*
X286342676Y-134350000D01*
X286404581Y-134411905D01*
D10*
D11*
X285661724Y-185588095D02*
X285661724Y-184288095D01*
X285971248Y-184288095D01*
X286156962Y-184350000D01*
X286280771Y-184473810D01*
X286342676Y-184597619D01*
X286404581Y-184845238D01*
X286404581Y-185030952D01*
X286342676Y-185278571D01*
X286280771Y-185402381D01*
X286156962Y-185526190D01*
X285971248Y-185588095D01*
X285661724Y-185588095D01*
D10*
D11*
X200359343Y-193785771D02*
X200359343Y-192285771D01*
X200716486Y-192285771D01*
X200930771Y-192357200D01*
X201073629Y-192500057D01*
X201145057Y-192642914D01*
X201216486Y-192928629D01*
X201216486Y-193142914D01*
X201145057Y-193428629D01*
X201073629Y-193571486D01*
X200930771Y-193714343D01*
X200716486Y-193785771D01*
X200359343Y-193785771D01*
X202502200Y-193785771D02*
X202502200Y-193000057D01*
X202430771Y-192857200D01*
X202287914Y-192785771D01*
X202002200Y-192785771D01*
X201859343Y-192857200D01*
X202502200Y-193714343D02*
X202359343Y-193785771D01*
X202002200Y-193785771D01*
X201859343Y-193714343D01*
X201787914Y-193571486D01*
X201787914Y-193428629D01*
X201859343Y-193285771D01*
X202002200Y-193214343D01*
X202359343Y-193214343D01*
X202502200Y-193142914D01*
X203002200Y-192785771D02*
X203573629Y-192785771D01*
X203216486Y-192285771D02*
X203216486Y-193571486D01*
X203287914Y-193714343D01*
X203430772Y-193785771D01*
X203573629Y-193785771D01*
X204645057Y-193714343D02*
X204502200Y-193785771D01*
X204216486Y-193785771D01*
X204073629Y-193714343D01*
X204002200Y-193571486D01*
X204002200Y-193000057D01*
X204073629Y-192857200D01*
X204216486Y-192785771D01*
X204502200Y-192785771D01*
X204645057Y-192857200D01*
X204716486Y-193000057D01*
X204716486Y-193142914D01*
X204002200Y-193285771D01*
X205359343Y-193642914D02*
X205430771Y-193714343D01*
X205359343Y-193785771D01*
X205287914Y-193714343D01*
X205359343Y-193642914D01*
X205359343Y-193785771D01*
X205359343Y-192857200D02*
X205430771Y-192928629D01*
X205359343Y-193000057D01*
X205287914Y-192928629D01*
X205359343Y-192857200D01*
X205359343Y-193000057D01*
D10*
D11*
X177002200Y-194507200D02*
X285002200Y-194507200D01*
D10*
D11*
X178359343Y-196585771D02*
X178359343Y-195085771D01*
X179216486Y-196585771D02*
X178573629Y-195728629D01*
X179216486Y-195085771D02*
X178359343Y-195942914D01*
X179859343Y-196585771D02*
X179859343Y-195585771D01*
X179859343Y-195085771D02*
X179787914Y-195157200D01*
X179859343Y-195228629D01*
X179930771Y-195157200D01*
X179859343Y-195085771D01*
X179859343Y-195228629D01*
X181430772Y-196442914D02*
X181359343Y-196514343D01*
X181145057Y-196585771D01*
X181002200Y-196585771D01*
X180787915Y-196514343D01*
X180645057Y-196371486D01*
X180573629Y-196228629D01*
X180502200Y-195942914D01*
X180502200Y-195728629D01*
X180573629Y-195442914D01*
X180645057Y-195300057D01*
X180787915Y-195157200D01*
X181002200Y-195085771D01*
X181145057Y-195085771D01*
X181359343Y-195157200D01*
X181430772Y-195228629D01*
X182716486Y-196585771D02*
X182716486Y-195800057D01*
X182645057Y-195657200D01*
X182502200Y-195585771D01*
X182216486Y-195585771D01*
X182073629Y-195657200D01*
X182716486Y-196514343D02*
X182573629Y-196585771D01*
X182216486Y-196585771D01*
X182073629Y-196514343D01*
X182002200Y-196371486D01*
X182002200Y-196228629D01*
X182073629Y-196085771D01*
X182216486Y-196014343D01*
X182573629Y-196014343D01*
X182716486Y-195942914D01*
X184073629Y-196585771D02*
X184073629Y-195085771D01*
X184073629Y-196514343D02*
X183930772Y-196585771D01*
X183645058Y-196585771D01*
X183502200Y-196514343D01*
X183430772Y-196442914D01*
X183359343Y-196300057D01*
X183359343Y-195871486D01*
X183430772Y-195728629D01*
X183502200Y-195657200D01*
X183645058Y-195585771D01*
X183930772Y-195585771D01*
X184073629Y-195657200D01*
X185930772Y-195800057D02*
X186430772Y-195800057D01*
X186645058Y-196585771D02*
X185930772Y-196585771D01*
X185930772Y-195085771D01*
X186645058Y-195085771D01*
X187287915Y-196442914D02*
X187359343Y-196514343D01*
X187287915Y-196585771D01*
X187216486Y-196514343D01*
X187287915Y-196442914D01*
X187287915Y-196585771D01*
X188002201Y-196585771D02*
X188002201Y-195085771D01*
X188359344Y-195085771D01*
X188573629Y-195157200D01*
X188716487Y-195300057D01*
X188787915Y-195442914D01*
X188859344Y-195728629D01*
X188859344Y-195942914D01*
X188787915Y-196228629D01*
X188716487Y-196371486D01*
X188573629Y-196514343D01*
X188359344Y-196585771D01*
X188002201Y-196585771D01*
X189502201Y-196442914D02*
X189573629Y-196514343D01*
X189502201Y-196585771D01*
X189430772Y-196514343D01*
X189502201Y-196442914D01*
X189502201Y-196585771D01*
X190145058Y-196157200D02*
X190859344Y-196157200D01*
X190002201Y-196585771D02*
X190502201Y-195085771D01*
X191002201Y-196585771D01*
X191502201Y-196442914D02*
X191573629Y-196514343D01*
X191502201Y-196585771D01*
X191430772Y-196514343D01*
X191502201Y-196442914D01*
X191502201Y-196585771D01*
X194502201Y-196585771D02*
X194502201Y-195085771D01*
X194645058Y-196014343D02*
X195073629Y-196585771D01*
X195073629Y-195585771D02*
X194502201Y-196157200D01*
X195716487Y-196585771D02*
X195716487Y-195585771D01*
X195716487Y-195085771D02*
X195645058Y-195157200D01*
X195716487Y-195228629D01*
X195787915Y-195157200D01*
X195716487Y-195085771D01*
X195716487Y-195228629D01*
X197073630Y-196514343D02*
X196930773Y-196585771D01*
X196645059Y-196585771D01*
X196502201Y-196514343D01*
X196430773Y-196442914D01*
X196359344Y-196300057D01*
X196359344Y-195871486D01*
X196430773Y-195728629D01*
X196502201Y-195657200D01*
X196645059Y-195585771D01*
X196930773Y-195585771D01*
X197073630Y-195657200D01*
X198359344Y-196585771D02*
X198359344Y-195800057D01*
X198287915Y-195657200D01*
X198145058Y-195585771D01*
X197859344Y-195585771D01*
X197716487Y-195657200D01*
X198359344Y-196514343D02*
X198216487Y-196585771D01*
X197859344Y-196585771D01*
X197716487Y-196514343D01*
X197645058Y-196371486D01*
X197645058Y-196228629D01*
X197716487Y-196085771D01*
X197859344Y-196014343D01*
X198216487Y-196014343D01*
X198359344Y-195942914D01*
X199716487Y-196585771D02*
X199716487Y-195085771D01*
X199716487Y-196514343D02*
X199573630Y-196585771D01*
X199287916Y-196585771D01*
X199145058Y-196514343D01*
X199073630Y-196442914D01*
X199002201Y-196300057D01*
X199002201Y-195871486D01*
X199073630Y-195728629D01*
X199145058Y-195657200D01*
X199287916Y-195585771D01*
X199573630Y-195585771D01*
X199716487Y-195657200D01*
X202216487Y-195585771D02*
X202216487Y-196585771D01*
X201859344Y-195014343D02*
X201502201Y-196085771D01*
X202430773Y-196085771D01*
X203002201Y-196442914D02*
X203073629Y-196514343D01*
X203002201Y-196585771D01*
X202930772Y-196514343D01*
X203002201Y-196442914D01*
X203002201Y-196585771D01*
X204002201Y-195085771D02*
X204145058Y-195085771D01*
X204287915Y-195157200D01*
X204359344Y-195228629D01*
X204430773Y-195371486D01*
X204502201Y-195657200D01*
X204502201Y-196014343D01*
X204430773Y-196300057D01*
X204359344Y-196442914D01*
X204287915Y-196514343D01*
X204145058Y-196585771D01*
X204002201Y-196585771D01*
X203859344Y-196514343D01*
X203787915Y-196442914D01*
X203716487Y-196300057D01*
X203645058Y-196014343D01*
X203645058Y-195657200D01*
X203716487Y-195371486D01*
X203787915Y-195228629D01*
X203859344Y-195157200D01*
X204002201Y-195085771D01*
X205145058Y-196442914D02*
X205216486Y-196514343D01*
X205145058Y-196585771D01*
X205073629Y-196514343D01*
X205145058Y-196442914D01*
X205145058Y-196585771D01*
X206145058Y-195085771D02*
X206287915Y-195085771D01*
X206430772Y-195157200D01*
X206502201Y-195228629D01*
X206573630Y-195371486D01*
X206645058Y-195657200D01*
X206645058Y-196014343D01*
X206573630Y-196300057D01*
X206502201Y-196442914D01*
X206430772Y-196514343D01*
X206287915Y-196585771D01*
X206145058Y-196585771D01*
X206002201Y-196514343D01*
X205930772Y-196442914D01*
X205859344Y-196300057D01*
X205787915Y-196014343D01*
X205787915Y-195657200D01*
X205859344Y-195371486D01*
X205930772Y-195228629D01*
X206002201Y-195157200D01*
X206145058Y-195085771D01*
X207287915Y-196014343D02*
X208430772Y-196014343D01*
X209145058Y-196585771D02*
X209145058Y-195585771D01*
X209145058Y-195871486D02*
X209216486Y-195728629D01*
X209287915Y-195657200D01*
X209430772Y-195585771D01*
X209573629Y-195585771D01*
X210716486Y-196514343D02*
X210573629Y-196585771D01*
X210287915Y-196585771D01*
X210145057Y-196514343D01*
X210073629Y-196442914D01*
X210002200Y-196300057D01*
X210002200Y-195871486D01*
X210073629Y-195728629D01*
X210145057Y-195657200D01*
X210287915Y-195585771D01*
X210573629Y-195585771D01*
X210716486Y-195657200D01*
X212145057Y-196585771D02*
X211287914Y-196585771D01*
X211716486Y-196585771D02*
X211716486Y-195085771D01*
X211573629Y-195300057D01*
X211430771Y-195442914D01*
X211287914Y-195514343D01*
X212787914Y-196014343D02*
X213930771Y-196014343D01*
X214573628Y-196514343D02*
X214716485Y-196585771D01*
X215002200Y-196585771D01*
X215145057Y-196514343D01*
X215216485Y-196371486D01*
X215216485Y-196300057D01*
X215145057Y-196157200D01*
X215002200Y-196085771D01*
X214787914Y-196085771D01*
X214645057Y-196014343D01*
X214573628Y-195871486D01*
X214573628Y-195800057D01*
X214645057Y-195657200D01*
X214787914Y-195585771D01*
X215002200Y-195585771D01*
X215145057Y-195657200D01*
X215645057Y-195585771D02*
X216216486Y-195585771D01*
X215859343Y-195085771D02*
X215859343Y-196371486D01*
X215930771Y-196514343D01*
X216073629Y-196585771D01*
X216216486Y-196585771D01*
X217359343Y-196585771D02*
X217359343Y-195800057D01*
X217287914Y-195657200D01*
X217145057Y-195585771D01*
X216859343Y-195585771D01*
X216716486Y-195657200D01*
X217359343Y-196514343D02*
X217216486Y-196585771D01*
X216859343Y-196585771D01*
X216716486Y-196514343D01*
X216645057Y-196371486D01*
X216645057Y-196228629D01*
X216716486Y-196085771D01*
X216859343Y-196014343D01*
X217216486Y-196014343D01*
X217359343Y-195942914D01*
X218073629Y-196585771D02*
X218073629Y-195085771D01*
X218073629Y-195657200D02*
X218216486Y-195585771D01*
X218502200Y-195585771D01*
X218645057Y-195657200D01*
X218716486Y-195728629D01*
X218787915Y-195871486D01*
X218787915Y-196300057D01*
X218716486Y-196442914D01*
X218645057Y-196514343D01*
X218502200Y-196585771D01*
X218216486Y-196585771D01*
X218073629Y-196514343D01*
X219645058Y-196585771D02*
X219502200Y-196514343D01*
X219430772Y-196371486D01*
X219430772Y-195085771D01*
X220787914Y-196514343D02*
X220645057Y-196585771D01*
X220359343Y-196585771D01*
X220216486Y-196514343D01*
X220145057Y-196371486D01*
X220145057Y-195800057D01*
X220216486Y-195657200D01*
X220359343Y-195585771D01*
X220645057Y-195585771D01*
X220787914Y-195657200D01*
X220859343Y-195800057D01*
X220859343Y-195942914D01*
X220145057Y-196085771D01*
D10*
D11*
X177002200Y-191507200D02*
X285002200Y-191507200D01*
D10*
D12*
X264216486Y-193785771D02*
X263716486Y-193071486D01*
X263359343Y-193785771D02*
X263359343Y-192285771D01*
X263930771Y-192285771D01*
X264073629Y-192357200D01*
X264145057Y-192428629D01*
X264216486Y-192571486D01*
X264216486Y-192785771D01*
X264145057Y-192928629D01*
X264073629Y-193000057D01*
X263930771Y-193071486D01*
X263359343Y-193071486D01*
X265430771Y-193714343D02*
X265287914Y-193785771D01*
X265002200Y-193785771D01*
X264859343Y-193714343D01*
X264787914Y-193571486D01*
X264787914Y-193000057D01*
X264859343Y-192857200D01*
X265002200Y-192785771D01*
X265287914Y-192785771D01*
X265430771Y-192857200D01*
X265502200Y-193000057D01*
X265502200Y-193142914D01*
X264787914Y-193285771D01*
X266002200Y-192785771D02*
X266359343Y-193785771D01*
X266716485Y-192785771D01*
X267287914Y-193642914D02*
X267359342Y-193714343D01*
X267287914Y-193785771D01*
X267216485Y-193714343D01*
X267287914Y-193642914D01*
X267287914Y-193785771D01*
X267287914Y-192857200D02*
X267359342Y-192928629D01*
X267287914Y-193000057D01*
X267216485Y-192928629D01*
X267287914Y-192857200D01*
X267287914Y-193000057D01*
D10*
D11*
X178287914Y-193714343D02*
X178502200Y-193785771D01*
X178859343Y-193785771D01*
X179002200Y-193714343D01*
X179073629Y-193642914D01*
X179145057Y-193500057D01*
X179145057Y-193357200D01*
X179073629Y-193214343D01*
X179002200Y-193142914D01*
X178859343Y-193071486D01*
X178573629Y-193000057D01*
X178430771Y-192928629D01*
X178359343Y-192857200D01*
X178287914Y-192714343D01*
X178287914Y-192571486D01*
X178359343Y-192428629D01*
X178430771Y-192357200D01*
X178573629Y-192285771D01*
X178930771Y-192285771D01*
X179145057Y-192357200D01*
X179787914Y-193785771D02*
X179787914Y-192785771D01*
X179787914Y-192285771D02*
X179716485Y-192357200D01*
X179787914Y-192428629D01*
X179859342Y-192357200D01*
X179787914Y-192285771D01*
X179787914Y-192428629D01*
X180359343Y-192785771D02*
X181145057Y-192785771D01*
X180359343Y-193785771D01*
X181145057Y-193785771D01*
X182287914Y-193714343D02*
X182145057Y-193785771D01*
X181859343Y-193785771D01*
X181716486Y-193714343D01*
X181645057Y-193571486D01*
X181645057Y-193000057D01*
X181716486Y-192857200D01*
X181859343Y-192785771D01*
X182145057Y-192785771D01*
X182287914Y-192857200D01*
X182359343Y-193000057D01*
X182359343Y-193142914D01*
X181645057Y-193285771D01*
X183002200Y-193642914D02*
X183073628Y-193714343D01*
X183002200Y-193785771D01*
X182930771Y-193714343D01*
X183002200Y-193642914D01*
X183002200Y-193785771D01*
X183002200Y-192857200D02*
X183073628Y-192928629D01*
X183002200Y-193000057D01*
X182930771Y-192928629D01*
X183002200Y-192857200D01*
X183002200Y-193000057D01*
X184787914Y-193357200D02*
X185502200Y-193357200D01*
X184645057Y-193785771D02*
X185145057Y-192285771D01*
X185645057Y-193785771D01*
X186787914Y-192785771D02*
X186787914Y-193785771D01*
X186430771Y-192214343D02*
X186073628Y-193285771D01*
X187002200Y-193285771D01*
D10*
D11*
X263359343Y-196585771D02*
X263359343Y-195085771D01*
X264716486Y-196585771D02*
X264716486Y-195085771D01*
X264716486Y-196514343D02*
X264573629Y-196585771D01*
X264287915Y-196585771D01*
X264145057Y-196514343D01*
X264073629Y-196442914D01*
X264002200Y-196300057D01*
X264002200Y-195871486D01*
X264073629Y-195728629D01*
X264145057Y-195657200D01*
X264287915Y-195585771D01*
X264573629Y-195585771D01*
X264716486Y-195657200D01*
X265430772Y-196442914D02*
X265502200Y-196514343D01*
X265430772Y-196585771D01*
X265359343Y-196514343D01*
X265430772Y-196442914D01*
X265430772Y-196585771D01*
X265430772Y-195657200D02*
X265502200Y-195728629D01*
X265430772Y-195800057D01*
X265359343Y-195728629D01*
X265430772Y-195657200D01*
X265430772Y-195800057D01*
X268073629Y-196585771D02*
X267216486Y-196585771D01*
X267645058Y-196585771D02*
X267645058Y-195085771D01*
X267502201Y-195300057D01*
X267359343Y-195442914D01*
X267216486Y-195514343D01*
X269787914Y-195014343D02*
X268502200Y-196942914D01*
X271073629Y-196585771D02*
X270216486Y-196585771D01*
X270645058Y-196585771D02*
X270645058Y-195085771D01*
X270502201Y-195300057D01*
X270359343Y-195442914D01*
X270216486Y-195514343D01*
D10*
D11*
X177002200Y-187507200D02*
X285002200Y-187507200D01*
D10*
D13*
X178454581Y-188211962D02*
X179597438Y-188211962D01*
X178776010Y-190211962D02*
X179026010Y-188211962D01*
X180014105Y-190211962D02*
X180180771Y-188878629D01*
X180264105Y-188211962D02*
X180156962Y-188307200D01*
X180240295Y-188402438D01*
X180347439Y-188307200D01*
X180264105Y-188211962D01*
X180240295Y-188402438D01*
X180847438Y-188878629D02*
X181609343Y-188878629D01*
X181216486Y-188211962D02*
X181002200Y-189926248D01*
X181073630Y-190116724D01*
X181252201Y-190211962D01*
X181442677Y-190211962D01*
X182395058Y-190211962D02*
X182216487Y-190116724D01*
X182145057Y-189926248D01*
X182359343Y-188211962D01*
X183930772Y-190116724D02*
X183728391Y-190211962D01*
X183347439Y-190211962D01*
X183168867Y-190116724D01*
X183097438Y-189926248D01*
X183192676Y-189164343D01*
X183311724Y-188973867D01*
X183514105Y-188878629D01*
X183895057Y-188878629D01*
X184073629Y-188973867D01*
X184145057Y-189164343D01*
X184121248Y-189354819D01*
X183145057Y-189545295D01*
X184895057Y-190021486D02*
X184978392Y-190116724D01*
X184871248Y-190211962D01*
X184787915Y-190116724D01*
X184895057Y-190021486D01*
X184871248Y-190211962D01*
X185026010Y-188973867D02*
X185109344Y-189069105D01*
X185002200Y-189164343D01*
X184918867Y-189069105D01*
X185026010Y-188973867D01*
X185002200Y-189164343D01*
D10*
D11*
X178859343Y-185600057D02*
X178359343Y-185600057D01*
X178359343Y-186385771D02*
X178359343Y-184885771D01*
X179073629Y-184885771D01*
X179645057Y-186385771D02*
X179645057Y-185385771D01*
X179645057Y-184885771D02*
X179573628Y-184957200D01*
X179645057Y-185028629D01*
X179716485Y-184957200D01*
X179645057Y-184885771D01*
X179645057Y-185028629D01*
X180573629Y-186385771D02*
X180430771Y-186314343D01*
X180359343Y-186171486D01*
X180359343Y-184885771D01*
X181716485Y-186314343D02*
X181573628Y-186385771D01*
X181287914Y-186385771D01*
X181145057Y-186314343D01*
X181073628Y-186171486D01*
X181073628Y-185600057D01*
X181145057Y-185457200D01*
X181287914Y-185385771D01*
X181573628Y-185385771D01*
X181716485Y-185457200D01*
X181787914Y-185600057D01*
X181787914Y-185742914D01*
X181073628Y-185885771D01*
X182430771Y-186242914D02*
X182502199Y-186314343D01*
X182430771Y-186385771D01*
X182359342Y-186314343D01*
X182430771Y-186242914D01*
X182430771Y-186385771D01*
X182430771Y-185457200D02*
X182502199Y-185528629D01*
X182430771Y-185600057D01*
X182359342Y-185528629D01*
X182430771Y-185457200D01*
X182430771Y-185600057D01*
X184859342Y-186314343D02*
X184716485Y-186385771D01*
X184430771Y-186385771D01*
X184287914Y-186314343D01*
X184216485Y-186171486D01*
X184216485Y-185600057D01*
X184287914Y-185457200D01*
X184430771Y-185385771D01*
X184716485Y-185385771D01*
X184859342Y-185457200D01*
X184930771Y-185600057D01*
X184930771Y-185742914D01*
X184216485Y-185885771D01*
X185573628Y-186385771D02*
X185573628Y-185385771D01*
X185573628Y-184885771D02*
X185502199Y-184957200D01*
X185573628Y-185028629D01*
X185645056Y-184957200D01*
X185573628Y-184885771D01*
X185573628Y-185028629D01*
X186287914Y-185385771D02*
X186287914Y-186385771D01*
X186287914Y-185528629D02*
X186359342Y-185457200D01*
X186502200Y-185385771D01*
X186716485Y-185385771D01*
X186859342Y-185457200D01*
X186930771Y-185600057D01*
X186930771Y-186385771D01*
X187645057Y-186385771D02*
X187645057Y-184885771D01*
X187787914Y-185814343D02*
X188216485Y-186385771D01*
X188216485Y-185385771D02*
X187645057Y-185957200D01*
X189502200Y-186385771D02*
X189502200Y-184885771D01*
X189502200Y-186314343D02*
X189359343Y-186385771D01*
X189073629Y-186385771D01*
X188930771Y-186314343D01*
X188859343Y-186242914D01*
X188787914Y-186100057D01*
X188787914Y-185671486D01*
X188859343Y-185528629D01*
X188930771Y-185457200D01*
X189073629Y-185385771D01*
X189359343Y-185385771D01*
X189502200Y-185457200D01*
X190216486Y-186385771D02*
X190216486Y-185385771D01*
X190216486Y-184885771D02*
X190145057Y-184957200D01*
X190216486Y-185028629D01*
X190287914Y-184957200D01*
X190216486Y-184885771D01*
X190216486Y-185028629D01*
X190859343Y-186314343D02*
X191002200Y-186385771D01*
X191287915Y-186385771D01*
X191430772Y-186314343D01*
X191502200Y-186171486D01*
X191502200Y-186100057D01*
X191430772Y-185957200D01*
X191287915Y-185885771D01*
X191073629Y-185885771D01*
X190930772Y-185814343D01*
X190859343Y-185671486D01*
X190859343Y-185600057D01*
X190930772Y-185457200D01*
X191073629Y-185385771D01*
X191287915Y-185385771D01*
X191430772Y-185457200D01*
X192145058Y-185385771D02*
X192145058Y-186885771D01*
X192145058Y-185457200D02*
X192287915Y-185385771D01*
X192573629Y-185385771D01*
X192716486Y-185457200D01*
X192787915Y-185528629D01*
X192859344Y-185671486D01*
X192859344Y-186100057D01*
X192787915Y-186242914D01*
X192716486Y-186314343D01*
X192573629Y-186385771D01*
X192287915Y-186385771D01*
X192145058Y-186314343D01*
X193716487Y-186385771D02*
X193573629Y-186314343D01*
X193502201Y-186171486D01*
X193502201Y-184885771D01*
X194930772Y-186385771D02*
X194930772Y-185600057D01*
X194859343Y-185457200D01*
X194716486Y-185385771D01*
X194430772Y-185385771D01*
X194287915Y-185457200D01*
X194930772Y-186314343D02*
X194787915Y-186385771D01*
X194430772Y-186385771D01*
X194287915Y-186314343D01*
X194216486Y-186171486D01*
X194216486Y-186028629D01*
X194287915Y-185885771D01*
X194430772Y-185814343D01*
X194787915Y-185814343D01*
X194930772Y-185742914D01*
X195502201Y-185385771D02*
X195859344Y-186385771D01*
X196216486Y-185385771D02*
X195859344Y-186385771D01*
X195716486Y-186742914D01*
X195645058Y-186814343D01*
X195502201Y-186885771D01*
X196787915Y-186242914D02*
X196859343Y-186314343D01*
X196787915Y-186385771D01*
X196716486Y-186314343D01*
X196787915Y-186242914D01*
X196787915Y-186385771D01*
X197502201Y-186385771D02*
X197502201Y-184885771D01*
X197645058Y-185814343D02*
X198073629Y-186385771D01*
X198073629Y-185385771D02*
X197502201Y-185957200D01*
X198716487Y-186385771D02*
X198716487Y-185385771D01*
X198716487Y-184885771D02*
X198645058Y-184957200D01*
X198716487Y-185028629D01*
X198787915Y-184957200D01*
X198716487Y-184885771D01*
X198716487Y-185028629D01*
X200073630Y-186314343D02*
X199930773Y-186385771D01*
X199645059Y-186385771D01*
X199502201Y-186314343D01*
X199430773Y-186242914D01*
X199359344Y-186100057D01*
X199359344Y-185671486D01*
X199430773Y-185528629D01*
X199502201Y-185457200D01*
X199645059Y-185385771D01*
X199930773Y-185385771D01*
X200073630Y-185457200D01*
X201359344Y-186385771D02*
X201359344Y-185600057D01*
X201287915Y-185457200D01*
X201145058Y-185385771D01*
X200859344Y-185385771D01*
X200716487Y-185457200D01*
X201359344Y-186314343D02*
X201216487Y-186385771D01*
X200859344Y-186385771D01*
X200716487Y-186314343D01*
X200645058Y-186171486D01*
X200645058Y-186028629D01*
X200716487Y-185885771D01*
X200859344Y-185814343D01*
X201216487Y-185814343D01*
X201359344Y-185742914D01*
X202716487Y-186385771D02*
X202716487Y-184885771D01*
X202716487Y-186314343D02*
X202573630Y-186385771D01*
X202287916Y-186385771D01*
X202145058Y-186314343D01*
X202073630Y-186242914D01*
X202002201Y-186100057D01*
X202002201Y-185671486D01*
X202073630Y-185528629D01*
X202145058Y-185457200D01*
X202287916Y-185385771D01*
X202573630Y-185385771D01*
X202716487Y-185457200D01*
X203073630Y-186528629D02*
X204216487Y-186528629D01*
X204573630Y-185385771D02*
X204573630Y-186885771D01*
X204573630Y-185457200D02*
X204716487Y-185385771D01*
X205002201Y-185385771D01*
X205145058Y-185457200D01*
X205216487Y-185528629D01*
X205287916Y-185671486D01*
X205287916Y-186100057D01*
X205216487Y-186242914D01*
X205145058Y-186314343D01*
X205002201Y-186385771D01*
X204716487Y-186385771D01*
X204573630Y-186314343D01*
X206573630Y-186314343D02*
X206430773Y-186385771D01*
X206145059Y-186385771D01*
X206002201Y-186314343D01*
X205930773Y-186242914D01*
X205859344Y-186100057D01*
X205859344Y-185671486D01*
X205930773Y-185528629D01*
X206002201Y-185457200D01*
X206145059Y-185385771D01*
X206430773Y-185385771D01*
X206573630Y-185457200D01*
X207216487Y-186385771D02*
X207216487Y-184885771D01*
X207216487Y-185457200D02*
X207359344Y-185385771D01*
X207645058Y-185385771D01*
X207787915Y-185457200D01*
X207859344Y-185528629D01*
X207930773Y-185671486D01*
X207930773Y-186100057D01*
X207859344Y-186242914D01*
X207787915Y-186314343D01*
X207645058Y-186385771D01*
X207359344Y-186385771D01*
X207216487Y-186314343D01*
D10*
D11*
X177002200Y-181507200D02*
X285002200Y-181507200D01*
D10*
D11*
X178287914Y-183614343D02*
X178502200Y-183685771D01*
X178859343Y-183685771D01*
X179002200Y-183614343D01*
X179073629Y-183542914D01*
X179145057Y-183400057D01*
X179145057Y-183257200D01*
X179073629Y-183114343D01*
X179002200Y-183042914D01*
X178859343Y-182971486D01*
X178573629Y-182900057D01*
X178430771Y-182828629D01*
X178359343Y-182757200D01*
X178287914Y-182614343D01*
X178287914Y-182471486D01*
X178359343Y-182328629D01*
X178430771Y-182257200D01*
X178573629Y-182185771D01*
X178930771Y-182185771D01*
X179145057Y-182257200D01*
X179787914Y-183685771D02*
X179787914Y-182185771D01*
X180430771Y-183685771D02*
X180430771Y-182900057D01*
X180359342Y-182757200D01*
X180216485Y-182685771D01*
X180002200Y-182685771D01*
X179859342Y-182757200D01*
X179787914Y-182828629D01*
X181716485Y-183614343D02*
X181573628Y-183685771D01*
X181287914Y-183685771D01*
X181145057Y-183614343D01*
X181073628Y-183471486D01*
X181073628Y-182900057D01*
X181145057Y-182757200D01*
X181287914Y-182685771D01*
X181573628Y-182685771D01*
X181716485Y-182757200D01*
X181787914Y-182900057D01*
X181787914Y-183042914D01*
X181073628Y-183185771D01*
X183002199Y-183614343D02*
X182859342Y-183685771D01*
X182573628Y-183685771D01*
X182430771Y-183614343D01*
X182359342Y-183471486D01*
X182359342Y-182900057D01*
X182430771Y-182757200D01*
X182573628Y-182685771D01*
X182859342Y-182685771D01*
X183002199Y-182757200D01*
X183073628Y-182900057D01*
X183073628Y-183042914D01*
X182359342Y-183185771D01*
X183502199Y-182685771D02*
X184073628Y-182685771D01*
X183716485Y-182185771D02*
X183716485Y-183471486D01*
X183787913Y-183614343D01*
X183930771Y-183685771D01*
X184073628Y-183685771D01*
X184573628Y-183542914D02*
X184645056Y-183614343D01*
X184573628Y-183685771D01*
X184502199Y-183614343D01*
X184573628Y-183542914D01*
X184573628Y-183685771D01*
X184573628Y-182757200D02*
X184645056Y-182828629D01*
X184573628Y-182900057D01*
X184502199Y-182828629D01*
X184573628Y-182757200D01*
X184573628Y-182900057D01*
D10*
D11*
X197002200Y-191507200D02*
X197002200Y-194507200D01*
D10*
D11*
X261002200Y-191507200D02*
X261002200Y-198007200D01*
D12*
X67357143Y-70778571D02*
X67357143Y-69278571D01*
X67714286Y-69278571D01*
X67928571Y-69350000D01*
X68071429Y-69492857D01*
X68142857Y-69635714D01*
X68214286Y-69921429D01*
X68214286Y-70135714D01*
X68142857Y-70421429D01*
X68071429Y-70564286D01*
X67928571Y-70707143D01*
X67714286Y-70778571D01*
X67357143Y-70778571D01*
X69500000Y-70778571D02*
X69500000Y-69992857D01*
X69428571Y-69850000D01*
X69285714Y-69778571D01*
X69000000Y-69778571D01*
X68857143Y-69850000D01*
X69500000Y-70707143D02*
X69357143Y-70778571D01*
X69000000Y-70778571D01*
X68857143Y-70707143D01*
X68785714Y-70564286D01*
X68785714Y-70421429D01*
X68857143Y-70278571D01*
X69000000Y-70207143D01*
X69357143Y-70207143D01*
X69500000Y-70135714D01*
X70071429Y-69778571D02*
X70428572Y-70778571D01*
X70785714Y-69778571D01*
X71357143Y-70778571D02*
X71357143Y-69778571D01*
X71357143Y-69278571D02*
X71285714Y-69350000D01*
X71357143Y-69421429D01*
X71428571Y-69350000D01*
X71357143Y-69278571D01*
X71357143Y-69421429D01*
X72714286Y-70778571D02*
X72714286Y-69278571D01*
X72714286Y-70707143D02*
X72571429Y-70778571D01*
X72285715Y-70778571D01*
X72142857Y-70707143D01*
X72071429Y-70635714D01*
X72000000Y-70492857D01*
X72000000Y-70064286D01*
X72071429Y-69921429D01*
X72142857Y-69850000D01*
X72285715Y-69778571D01*
X72571429Y-69778571D01*
X72714286Y-69850000D01*
X74571429Y-70778571D02*
X74571429Y-69278571D01*
X75142857Y-69278571D01*
X75285715Y-69350000D01*
X75357143Y-69421429D01*
X75428572Y-69564286D01*
X75428572Y-69778571D01*
X75357143Y-69921429D01*
X75285715Y-69992857D01*
X75142857Y-70064286D01*
X74571429Y-70064286D01*
X76285715Y-70778571D02*
X76142857Y-70707143D01*
X76071429Y-70635714D01*
X76000000Y-70492857D01*
X76000000Y-70064286D01*
X76071429Y-69921429D01*
X76142857Y-69850000D01*
X76285715Y-69778571D01*
X76500000Y-69778571D01*
X76642857Y-69850000D01*
X76714286Y-69921429D01*
X76785715Y-70064286D01*
X76785715Y-70492857D01*
X76714286Y-70635714D01*
X76642857Y-70707143D01*
X76500000Y-70778571D01*
X76285715Y-70778571D01*
X77214286Y-69778571D02*
X77785715Y-69778571D01*
X77428572Y-69278571D02*
X77428572Y-70564286D01*
X77500000Y-70707143D01*
X77642858Y-70778571D01*
X77785715Y-70778571D01*
X78071429Y-69778571D02*
X78642858Y-69778571D01*
X78285715Y-69278571D02*
X78285715Y-70564286D01*
X78357143Y-70707143D01*
X78500001Y-70778571D01*
X78642858Y-70778571D01*
X79142858Y-70778571D02*
X79142858Y-69778571D01*
X79142858Y-69278571D02*
X79071429Y-69350000D01*
X79142858Y-69421429D01*
X79214286Y-69350000D01*
X79142858Y-69278571D01*
X79142858Y-69421429D01*
X79857144Y-69778571D02*
X79857144Y-70778571D01*
X79857144Y-69921429D02*
X79928572Y-69850000D01*
X80071430Y-69778571D01*
X80285715Y-69778571D01*
X80428572Y-69850000D01*
X80500001Y-69992857D01*
X80500001Y-70778571D01*
X81857144Y-69778571D02*
X81857144Y-70992857D01*
X81785715Y-71135714D01*
X81714287Y-71207143D01*
X81571430Y-71278571D01*
X81357144Y-71278571D01*
X81214287Y-71207143D01*
X81857144Y-70707143D02*
X81714287Y-70778571D01*
X81428573Y-70778571D01*
X81285715Y-70707143D01*
X81214287Y-70635714D01*
X81142858Y-70492857D01*
X81142858Y-70064286D01*
X81214287Y-69921429D01*
X81285715Y-69850000D01*
X81428573Y-69778571D01*
X81714287Y-69778571D01*
X81857144Y-69850000D01*
X83142858Y-70707143D02*
X83000001Y-70778571D01*
X82714287Y-70778571D01*
X82571430Y-70707143D01*
X82500001Y-70564286D01*
X82500001Y-69992857D01*
X82571430Y-69850000D01*
X82714287Y-69778571D01*
X83000001Y-69778571D01*
X83142858Y-69850000D01*
X83214287Y-69992857D01*
X83214287Y-70135714D01*
X82500001Y-70278571D01*
X83857144Y-70778571D02*
X83857144Y-69778571D01*
X83857144Y-70064286D02*
X83928572Y-69921429D01*
X84000001Y-69850000D01*
X84142858Y-69778571D01*
X84285715Y-69778571D01*
X85928572Y-70778571D02*
X85928572Y-69278571D01*
X86285715Y-69278571D01*
X86500000Y-69350000D01*
X86642858Y-69492857D01*
X86714286Y-69635714D01*
X86785715Y-69921429D01*
X86785715Y-70135714D01*
X86714286Y-70421429D01*
X86642858Y-70564286D01*
X86500000Y-70707143D01*
X86285715Y-70778571D01*
X85928572Y-70778571D01*
X88000000Y-70707143D02*
X87857143Y-70778571D01*
X87571429Y-70778571D01*
X87428572Y-70707143D01*
X87357143Y-70564286D01*
X87357143Y-69992857D01*
X87428572Y-69850000D01*
X87571429Y-69778571D01*
X87857143Y-69778571D01*
X88000000Y-69850000D01*
X88071429Y-69992857D01*
X88071429Y-70135714D01*
X87357143Y-70278571D01*
X88642857Y-70707143D02*
X88785714Y-70778571D01*
X89071429Y-70778571D01*
X89214286Y-70707143D01*
X89285714Y-70564286D01*
X89285714Y-70492857D01*
X89214286Y-70350000D01*
X89071429Y-70278571D01*
X88857143Y-70278571D01*
X88714286Y-70207143D01*
X88642857Y-70064286D01*
X88642857Y-69992857D01*
X88714286Y-69850000D01*
X88857143Y-69778571D01*
X89071429Y-69778571D01*
X89214286Y-69850000D01*
X89928572Y-70778571D02*
X89928572Y-69778571D01*
X89928572Y-69278571D02*
X89857143Y-69350000D01*
X89928572Y-69421429D01*
X90000000Y-69350000D01*
X89928572Y-69278571D01*
X89928572Y-69421429D01*
X91285715Y-69778571D02*
X91285715Y-70992857D01*
X91214286Y-71135714D01*
X91142858Y-71207143D01*
X91000001Y-71278571D01*
X90785715Y-71278571D01*
X90642858Y-71207143D01*
X91285715Y-70707143D02*
X91142858Y-70778571D01*
X90857144Y-70778571D01*
X90714286Y-70707143D01*
X90642858Y-70635714D01*
X90571429Y-70492857D01*
X90571429Y-70064286D01*
X90642858Y-69921429D01*
X90714286Y-69850000D01*
X90857144Y-69778571D01*
X91142858Y-69778571D01*
X91285715Y-69850000D01*
X92000001Y-69778571D02*
X92000001Y-70778571D01*
X92000001Y-69921429D02*
X92071429Y-69850000D01*
X92214287Y-69778571D01*
X92428572Y-69778571D01*
X92571429Y-69850000D01*
X92642858Y-69992857D01*
X92642858Y-70778571D01*
X70107143Y-72392857D02*
X70607143Y-72392857D01*
X70821429Y-73178571D02*
X70107143Y-73178571D01*
X70107143Y-71678571D01*
X70821429Y-71678571D01*
X71464286Y-73178571D02*
X71464286Y-72178571D01*
X71464286Y-71678571D02*
X71392857Y-71750000D01*
X71464286Y-71821429D01*
X71535714Y-71750000D01*
X71464286Y-71678571D01*
X71464286Y-71821429D01*
X72178572Y-72178571D02*
X72178572Y-73178571D01*
X72178572Y-72321429D02*
X72250000Y-72250000D01*
X72392858Y-72178571D01*
X72607143Y-72178571D01*
X72750000Y-72250000D01*
X72821429Y-72392857D01*
X72821429Y-73178571D01*
X73535715Y-73178571D02*
X73535715Y-71678571D01*
X73678572Y-72607143D02*
X74107143Y-73178571D01*
X74107143Y-72178571D02*
X73535715Y-72750000D01*
X75678572Y-71678571D02*
X76535715Y-71678571D01*
X76107144Y-73178571D02*
X76107144Y-71678571D01*
X77607143Y-73107143D02*
X77464286Y-73178571D01*
X77178572Y-73178571D01*
X77035715Y-73107143D01*
X76964286Y-72964286D01*
X76964286Y-72392857D01*
X77035715Y-72250000D01*
X77178572Y-72178571D01*
X77464286Y-72178571D01*
X77607143Y-72250000D01*
X77678572Y-72392857D01*
X77678572Y-72535714D01*
X76964286Y-72678571D01*
X78250000Y-73107143D02*
X78392857Y-73178571D01*
X78678572Y-73178571D01*
X78821429Y-73107143D01*
X78892857Y-72964286D01*
X78892857Y-72892857D01*
X78821429Y-72750000D01*
X78678572Y-72678571D01*
X78464286Y-72678571D01*
X78321429Y-72607143D01*
X78250000Y-72464286D01*
X78250000Y-72392857D01*
X78321429Y-72250000D01*
X78464286Y-72178571D01*
X78678572Y-72178571D01*
X78821429Y-72250000D01*
X79321429Y-72178571D02*
X79892858Y-72178571D01*
X79535715Y-71678571D02*
X79535715Y-72964286D01*
X79607143Y-73107143D01*
X79750001Y-73178571D01*
X79892858Y-73178571D01*
X82035715Y-72392857D02*
X82250001Y-72464286D01*
X82321429Y-72535714D01*
X82392858Y-72678571D01*
X82392858Y-72892857D01*
X82321429Y-73035714D01*
X82250001Y-73107143D01*
X82107143Y-73178571D01*
X81535715Y-73178571D01*
X81535715Y-71678571D01*
X82035715Y-71678571D01*
X82178572Y-71750000D01*
X82250001Y-71821429D01*
X82321429Y-71964286D01*
X82321429Y-72107143D01*
X82250001Y-72250000D01*
X82178572Y-72321429D01*
X82035715Y-72392857D01*
X81535715Y-72392857D01*
X83250001Y-73178571D02*
X83107143Y-73107143D01*
X83035715Y-73035714D01*
X82964286Y-72892857D01*
X82964286Y-72464286D01*
X83035715Y-72321429D01*
X83107143Y-72250000D01*
X83250001Y-72178571D01*
X83464286Y-72178571D01*
X83607143Y-72250000D01*
X83678572Y-72321429D01*
X83750001Y-72464286D01*
X83750001Y-72892857D01*
X83678572Y-73035714D01*
X83607143Y-73107143D01*
X83464286Y-73178571D01*
X83250001Y-73178571D01*
X85035715Y-73178571D02*
X85035715Y-72392857D01*
X84964286Y-72250000D01*
X84821429Y-72178571D01*
X84535715Y-72178571D01*
X84392858Y-72250000D01*
X85035715Y-73107143D02*
X84892858Y-73178571D01*
X84535715Y-73178571D01*
X84392858Y-73107143D01*
X84321429Y-72964286D01*
X84321429Y-72821429D01*
X84392858Y-72678571D01*
X84535715Y-72607143D01*
X84892858Y-72607143D01*
X85035715Y-72535714D01*
X85750001Y-73178571D02*
X85750001Y-72178571D01*
X85750001Y-72464286D02*
X85821429Y-72321429D01*
X85892858Y-72250000D01*
X86035715Y-72178571D01*
X86178572Y-72178571D01*
X87321429Y-73178571D02*
X87321429Y-71678571D01*
X87321429Y-73107143D02*
X87178572Y-73178571D01*
X86892858Y-73178571D01*
X86750000Y-73107143D01*
X86678572Y-73035714D01*
X86607143Y-72892857D01*
X86607143Y-72464286D01*
X86678572Y-72321429D01*
X86750000Y-72250000D01*
X86892858Y-72178571D01*
X87178572Y-72178571D01*
X87321429Y-72250000D01*
X89964286Y-73178571D02*
X89107143Y-73178571D01*
X89535715Y-73178571D02*
X89535715Y-71678571D01*
X89392858Y-71892857D01*
X89250000Y-72035714D01*
X89107143Y-72107143D01*
X74464287Y-74078571D02*
X75464287Y-74078571D01*
X74821430Y-75578571D01*
X76035715Y-75578571D02*
X76035715Y-74078571D01*
X76392858Y-74078571D01*
X76607143Y-74150000D01*
X76750001Y-74292857D01*
X76821429Y-74435714D01*
X76892858Y-74721429D01*
X76892858Y-74935714D01*
X76821429Y-75221429D01*
X76750001Y-75364286D01*
X76607143Y-75507143D01*
X76392858Y-75578571D01*
X76035715Y-75578571D01*
X77535715Y-74792857D02*
X78035715Y-74792857D01*
X78250001Y-75578571D02*
X77535715Y-75578571D01*
X77535715Y-74078571D01*
X78250001Y-74078571D01*
X79750001Y-75435714D02*
X79678572Y-75507143D01*
X79464286Y-75578571D01*
X79321429Y-75578571D01*
X79107144Y-75507143D01*
X78964286Y-75364286D01*
X78892858Y-75221429D01*
X78821429Y-74935714D01*
X78821429Y-74721429D01*
X78892858Y-74435714D01*
X78964286Y-74292857D01*
X79107144Y-74150000D01*
X79321429Y-74078571D01*
X79464286Y-74078571D01*
X79678572Y-74150000D01*
X79750001Y-74221429D01*
X80321429Y-74221429D02*
X80392858Y-74150000D01*
X80535715Y-74078571D01*
X80892858Y-74078571D01*
X81035715Y-74150000D01*
X81107144Y-74221429D01*
X81178572Y-74364286D01*
X81178572Y-74507143D01*
X81107144Y-74721429D01*
X80250001Y-75578571D01*
X81178572Y-75578571D01*
X82107143Y-74078571D02*
X82250000Y-74078571D01*
X82392857Y-74150000D01*
X82464286Y-74221429D01*
X82535715Y-74364286D01*
X82607143Y-74650000D01*
X82607143Y-75007143D01*
X82535715Y-75292857D01*
X82464286Y-75435714D01*
X82392857Y-75507143D01*
X82250000Y-75578571D01*
X82107143Y-75578571D01*
X81964286Y-75507143D01*
X81892857Y-75435714D01*
X81821429Y-75292857D01*
X81750000Y-75007143D01*
X81750000Y-74650000D01*
X81821429Y-74364286D01*
X81892857Y-74221429D01*
X81964286Y-74150000D01*
X82107143Y-74078571D01*
X84035714Y-75578571D02*
X83178571Y-75578571D01*
X83607143Y-75578571D02*
X83607143Y-74078571D01*
X83464286Y-74292857D01*
X83321428Y-74435714D01*
X83178571Y-74507143D01*
X85392857Y-74078571D02*
X84678571Y-74078571D01*
X84607142Y-74792857D01*
X84678571Y-74721429D01*
X84821428Y-74650000D01*
X85178571Y-74650000D01*
X85321428Y-74721429D01*
X85392857Y-74792857D01*
X85464285Y-74935714D01*
X85464285Y-75292857D01*
X85392857Y-75435714D01*
X85321428Y-75507143D01*
X85178571Y-75578571D01*
X84821428Y-75578571D01*
X84678571Y-75507143D01*
X84607142Y-75435714D01*
D10*
X50000000Y-138000000D02*
X50000000Y-38000000D01*
X150000000Y-138000000D02*
X50000000Y-138000000D01*
X150000000Y-38000000D02*
X150000000Y-138000000D01*
X50000000Y-38000000D02*
X150000000Y-38000000D01*
D11*
X57250000Y-117175000D02*
X56250000Y-117175000D01*
X56250000Y-115825000D02*
X57250000Y-115825000D01*
X122075000Y-58425000D02*
X121930000Y-58425000D01*
X122075000Y-62575000D02*
X121930000Y-62575000D01*
X116925000Y-62575000D02*
X117070000Y-62575000D01*
X116925000Y-58425000D02*
X117070000Y-58425000D01*
X122075000Y-58425000D02*
X122075000Y-62575000D01*
X116925000Y-58425000D02*
X116925000Y-62575000D01*
X121930000Y-58425000D02*
X121930000Y-57025000D01*
X122825000Y-77825000D02*
X122825000Y-78900000D01*
X133175000Y-77825000D02*
X133175000Y-78900000D01*
X133175000Y-88175000D02*
X133175000Y-87100000D01*
X122825000Y-88175000D02*
X122825000Y-87100000D01*
X122825000Y-77825000D02*
X123900000Y-77825000D01*
X122825000Y-88175000D02*
X123900000Y-88175000D01*
X133175000Y-88175000D02*
X132100000Y-88175000D01*
X133175000Y-77825000D02*
X132100000Y-77825000D01*
X122825000Y-78900000D02*
X121800000Y-78900000D01*
X50432540Y-94650900D02*
X50432540Y-103350900D01*
X56837540Y-94650900D02*
X56837540Y-103350900D01*
X56837540Y-103350900D02*
X50432540Y-103350900D01*
X51662540Y-103350900D02*
X51662540Y-94650900D01*
X50432540Y-94650900D02*
X56837540Y-94650900D01*
X55770000Y-90540000D02*
X55770000Y-85460000D01*
X51325000Y-90540000D02*
X51325000Y-85460000D01*
X57675000Y-85460000D02*
X57675000Y-90540000D01*
X57675000Y-85460000D02*
X51325000Y-85460000D01*
X57675000Y-90540000D02*
X51325000Y-90540000D01*
X62275000Y-99750000D02*
X62275000Y-97750000D01*
X60225000Y-97750000D02*
X60225000Y-99750000D01*
X140150000Y-68600000D02*
X140150000Y-67900000D01*
X141350000Y-67900000D02*
X141350000Y-68600000D01*
X60525000Y-89000000D02*
X60525000Y-87000000D01*
X58475000Y-87000000D02*
X58475000Y-89000000D01*
X63000000Y-53025000D02*
X65000000Y-53025000D01*
X65000000Y-50975000D02*
X63000000Y-50975000D01*
X106775000Y-96750000D02*
X106775000Y-94750000D01*
X104725000Y-94750000D02*
X104725000Y-96750000D01*
X117650000Y-82150000D02*
X118350000Y-82150000D01*
X118350000Y-83350000D02*
X117650000Y-83350000D01*
X109000000Y-101025000D02*
X111000000Y-101025000D01*
X111000000Y-98975000D02*
X109000000Y-98975000D01*
X114400000Y-104877593D02*
X115100000Y-104877593D01*
X115100000Y-106077593D02*
X114400000Y-106077593D01*
X74650000Y-53000000D02*
X74650000Y-54000000D01*
X76350000Y-54000000D02*
X76350000Y-53000000D01*
X126600000Y-92400000D02*
X126600000Y-93100000D01*
X125400000Y-93100000D02*
X125400000Y-92400000D01*
X127400000Y-93100000D02*
X127400000Y-92400000D01*
X128600000Y-92400000D02*
X128600000Y-93100000D01*
X84775000Y-46500000D02*
X84775000Y-44500000D01*
X82725000Y-44500000D02*
X82725000Y-46500000D01*
X86975000Y-50750000D02*
X86975000Y-52750000D01*
X89025000Y-52750000D02*
X89025000Y-50750000D01*
X87150000Y-44350000D02*
X87150000Y-43650000D01*
X88350000Y-43650000D02*
X88350000Y-44350000D01*
X91900000Y-51350000D02*
X91900000Y-50650000D01*
X93100000Y-50650000D02*
X93100000Y-51350000D01*
X129100000Y-72150000D02*
X129100000Y-72850000D01*
X127900000Y-72850000D02*
X127900000Y-72150000D01*
X96900000Y-46100000D02*
X96900000Y-45400000D01*
X98100000Y-45400000D02*
X98100000Y-46100000D01*
X101900000Y-53100000D02*
X101900000Y-52400000D01*
X103100000Y-52400000D02*
X103100000Y-53100000D01*
X136400000Y-83850000D02*
X136400000Y-83150000D01*
X137600000Y-83150000D02*
X137600000Y-83850000D01*
X130650000Y-115400000D02*
X131350000Y-115400000D01*
X131350000Y-116600000D02*
X130650000Y-116600000D01*
X113525000Y-49000000D02*
X113525000Y-47000000D01*
X111475000Y-47000000D02*
X111475000Y-49000000D01*
X115375000Y-51000000D02*
X115375000Y-53000000D01*
X117425000Y-53000000D02*
X117425000Y-51000000D01*
X104650000Y-122850000D02*
X104650000Y-122150000D01*
X105850000Y-122150000D02*
X105850000Y-122850000D01*
D13*
X124750000Y-136250000D02*
X140250000Y-136250000D01*
X124750000Y-120750000D02*
X140250000Y-120750000D01*
X140250000Y-136250000D02*
X140250000Y-120750000D01*
X124800000Y-120750000D02*
X124800000Y-136250000D01*
D11*
X54850000Y-105700000D02*
X52950000Y-105700000D01*
X54850000Y-106800000D02*
X52950000Y-106800000D01*
X53950000Y-106250000D02*
X53500000Y-106250000D01*
X54000000Y-106500000D02*
X54000000Y-106000000D01*
X54000000Y-106250000D02*
X53750000Y-106500000D01*
X53750000Y-106500000D02*
X53750000Y-106000000D01*
X53750000Y-106000000D02*
X54000000Y-106250000D01*
X54850000Y-111950000D02*
X52950000Y-111950000D01*
X54850000Y-113050000D02*
X52950000Y-113050000D01*
X53950000Y-112500000D02*
X53500000Y-112500000D01*
X54000000Y-112750000D02*
X54000000Y-112250000D01*
X54000000Y-112500000D02*
X53750000Y-112750000D01*
X53750000Y-112750000D02*
X53750000Y-112250000D01*
X53750000Y-112250000D02*
X54000000Y-112500000D01*
X54850000Y-118200000D02*
X52950000Y-118200000D01*
X54850000Y-119300000D02*
X52950000Y-119300000D01*
X53950000Y-118750000D02*
X53500000Y-118750000D01*
X54000000Y-119000000D02*
X54000000Y-118500000D01*
X54000000Y-118750000D02*
X53750000Y-119000000D01*
X53750000Y-119000000D02*
X53750000Y-118500000D01*
X53750000Y-118500000D02*
X54000000Y-118750000D01*
X54850000Y-124450000D02*
X52950000Y-124450000D01*
X54850000Y-125550000D02*
X52950000Y-125550000D01*
X53950000Y-125000000D02*
X53500000Y-125000000D01*
X54000000Y-125250000D02*
X54000000Y-124750000D01*
X54000000Y-125000000D02*
X53750000Y-125250000D01*
X53750000Y-125250000D02*
X53750000Y-124750000D01*
X53750000Y-124750000D02*
X54000000Y-125000000D01*
D14*
X146800000Y-70000000D02*
X146800000Y-58000000D01*
X143950000Y-70000000D02*
X143950000Y-58000000D01*
D11*
X69300000Y-44550000D02*
X71700000Y-44550000D01*
X71700000Y-48950000D02*
X69300000Y-48950000D01*
X69300000Y-50550000D02*
X71700000Y-50550000D01*
X71700000Y-54950000D02*
X69300000Y-54950000D01*
X119800000Y-109000000D02*
X119800000Y-110550000D01*
X119800000Y-110550000D02*
X116700000Y-110550000D01*
X116700000Y-110550000D02*
X116700000Y-109000000D01*
X116980000Y-107730000D02*
X116980000Y-97570000D01*
X116980000Y-97570000D02*
X119520000Y-97570000D01*
X119520000Y-97570000D02*
X119520000Y-107730000D01*
X116980000Y-107730000D02*
X119520000Y-107730000D01*
X65150240Y-59049160D02*
X65150240Y-59000900D01*
X64449200Y-56250180D02*
X65150240Y-56250180D01*
X65150240Y-56250180D02*
X65150240Y-56499100D01*
X65150240Y-59049160D02*
X65150240Y-59249820D01*
X65150240Y-59249820D02*
X64449200Y-59249820D01*
X63825000Y-93750000D02*
X63825000Y-92750000D01*
X65175000Y-92750000D02*
X65175000Y-93750000D01*
X58250000Y-105575000D02*
X59250000Y-105575000D01*
X59250000Y-106925000D02*
X58250000Y-106925000D01*
X62175000Y-57250000D02*
X62175000Y-58250000D01*
X60825000Y-58250000D02*
X60825000Y-57250000D01*
X109175000Y-56500000D02*
X109175000Y-57500000D01*
X107825000Y-57500000D02*
X107825000Y-56500000D01*
X81000000Y-46425000D02*
X80000000Y-46425000D01*
X80000000Y-45075000D02*
X81000000Y-45075000D01*
X81500000Y-48425000D02*
X80500000Y-48425000D01*
X80500000Y-47075000D02*
X81500000Y-47075000D01*
X114577627Y-102227593D02*
X114577627Y-103227593D01*
X113227627Y-103227593D02*
X113227627Y-102227593D01*
X114577627Y-107727593D02*
X114577627Y-108727593D01*
X113227627Y-108727593D02*
X113227627Y-107727593D01*
X82500000Y-51175000D02*
X81500000Y-51175000D01*
X81500000Y-49825000D02*
X82500000Y-49825000D01*
X81825000Y-53250000D02*
X81825000Y-52250000D01*
X83175000Y-52250000D02*
X83175000Y-53250000D01*
X77325000Y-45000000D02*
X77325000Y-44000000D01*
X78675000Y-44000000D02*
X78675000Y-45000000D01*
X76750000Y-46325000D02*
X77750000Y-46325000D01*
X77750000Y-47675000D02*
X76750000Y-47675000D01*
X121825000Y-128000000D02*
X121825000Y-127000000D01*
X123175000Y-127000000D02*
X123175000Y-128000000D01*
X104575000Y-128500000D02*
X104575000Y-127500000D01*
X105925000Y-127500000D02*
X105925000Y-128500000D01*
X97000000Y-42325000D02*
X98000000Y-42325000D01*
X98000000Y-43675000D02*
X97000000Y-43675000D01*
X101750000Y-49325000D02*
X102750000Y-49325000D01*
X102750000Y-50675000D02*
X101750000Y-50675000D01*
X109750000Y-135925000D02*
X108750000Y-135925000D01*
X108750000Y-134575000D02*
X109750000Y-134575000D01*
X112000000Y-133425000D02*
X111000000Y-133425000D01*
X111000000Y-132075000D02*
X112000000Y-132075000D01*
X55500000Y-69675000D02*
X54500000Y-69675000D01*
X54500000Y-68325000D02*
X55500000Y-68325000D01*
X99075000Y-46250000D02*
X99075000Y-45250000D01*
X100425000Y-45250000D02*
X100425000Y-46250000D01*
X103825000Y-53250000D02*
X103825000Y-52250000D01*
X105175000Y-52250000D02*
X105175000Y-53250000D01*
X135500000Y-115325000D02*
X136500000Y-115325000D01*
X136500000Y-116675000D02*
X135500000Y-116675000D01*
X134750000Y-113325000D02*
X135750000Y-113325000D01*
X135750000Y-114675000D02*
X134750000Y-114675000D01*
X130500000Y-112325000D02*
X131500000Y-112325000D01*
X131500000Y-113675000D02*
X130500000Y-113675000D01*
X127500000Y-114675000D02*
X126500000Y-114675000D01*
X126500000Y-113325000D02*
X127500000Y-113325000D01*
X91825000Y-115500000D02*
X91825000Y-114500000D01*
X93175000Y-114500000D02*
X93175000Y-115500000D01*
X81825000Y-133500000D02*
X81825000Y-132500000D01*
X83175000Y-132500000D02*
X83175000Y-133500000D01*
X60575000Y-120750000D02*
X60575000Y-119750000D01*
X61925000Y-119750000D02*
X61925000Y-120750000D01*
X85250000Y-133575000D02*
X86250000Y-133575000D01*
X86250000Y-134925000D02*
X85250000Y-134925000D01*
X109730000Y-59460000D02*
X107444000Y-59460000D01*
X107444000Y-59460000D02*
X107444000Y-64540000D01*
X107444000Y-64540000D02*
X109730000Y-64540000D01*
X112778000Y-59460000D02*
X114556000Y-60984000D01*
X114556000Y-60984000D02*
X114556000Y-63016000D01*
X114556000Y-63016000D02*
X112778000Y-64540000D01*
X111803219Y-62000000D02*
G75*
G03X111803219Y-62000000I-803219J0D01*
G01*
X56750714Y-77000000D02*
G75*
G03X56750714Y-77000000I-1750714J0D01*
G01*
X51775000Y-73775000D02*
X51900000Y-73775000D01*
X58225000Y-73775000D02*
X58100000Y-73775000D01*
X58225000Y-80225000D02*
X58100000Y-80225000D01*
X51900000Y-80225000D02*
X51775000Y-80225000D01*
X53600000Y-73775000D02*
X56400000Y-73775000D01*
X51775000Y-80225000D02*
X51775000Y-73775000D01*
X53600000Y-80225000D02*
X56400000Y-80225000D01*
X58225000Y-80225000D02*
X58225000Y-73775000D01*
X130803219Y-60000000D02*
G75*
G03X130803219Y-60000000I-803219J0D01*
G01*
X130803219Y-50000000D02*
G75*
G03X130803219Y-50000000I-803219J0D01*
G01*
X130803219Y-41500000D02*
G75*
G03X130803219Y-41500000I-803219J0D01*
G01*
X130803219Y-56700000D02*
G75*
G03X130803219Y-56700000I-803219J0D01*
G01*
X130803219Y-46500000D02*
G75*
G03X130803219Y-46500000I-803219J0D01*
G01*
X130803219Y-53500000D02*
G75*
G03X130803219Y-53500000I-803219J0D01*
G01*
X65050000Y-89200000D02*
G75*
G03X65050000Y-89200000I-100000J0D01*
G01*
X64700000Y-89750000D02*
X64700000Y-89250000D01*
X61800000Y-89750000D02*
X64700000Y-89750000D01*
X61800000Y-89250000D02*
X61800000Y-89750000D01*
X64700000Y-89250000D02*
X61800000Y-89250000D01*
X107623607Y-86300000D02*
G75*
G03X107623607Y-86300000I-223607J0D01*
G01*
D14*
X107500000Y-85500000D02*
X106800000Y-84800000D01*
X106785000Y-85500000D02*
X115215000Y-85500000D01*
X115215000Y-85500000D02*
X115215000Y-70500000D01*
X115215000Y-70500000D02*
X106785000Y-70500000D01*
X106785000Y-70500000D02*
X106785000Y-85500000D01*
D11*
X111299160Y-95099760D02*
X111250900Y-95099760D01*
X108500180Y-95800800D02*
X108500180Y-95099760D01*
X108500180Y-95099760D02*
X108749100Y-95099760D01*
X111299160Y-95099760D02*
X111499820Y-95099760D01*
X111499820Y-95099760D02*
X111499820Y-95800800D01*
X74000000Y-48750000D02*
G75*
G03X74000000Y-48750000I-200000J0D01*
G01*
D14*
X74350000Y-48750000D02*
X74850000Y-48250000D01*
X74350000Y-48225000D02*
X74350000Y-51275000D01*
X74350000Y-51275000D02*
X78650000Y-51275000D01*
X78650000Y-51275000D02*
X78650000Y-48225000D01*
X78650000Y-48225000D02*
X74350000Y-48225000D01*
D11*
X96500000Y-46000000D02*
G75*
G03X96500000Y-46000000I-200000J0D01*
G01*
D14*
X95050000Y-46650000D02*
X95600000Y-46100000D01*
X95600000Y-46665000D02*
X95600000Y-43335000D01*
X95600000Y-43335000D02*
X89400000Y-43335000D01*
X89400000Y-43335000D02*
X89400000Y-46665000D01*
X89400000Y-46665000D02*
X95600000Y-46665000D01*
D11*
X101250000Y-53000000D02*
G75*
G03X101250000Y-53000000I-200000J0D01*
G01*
D14*
X99800000Y-53650000D02*
X100350000Y-53100000D01*
X100350000Y-53665000D02*
X100350000Y-50335000D01*
X100350000Y-50335000D02*
X94150000Y-50335000D01*
X94150000Y-50335000D02*
X94150000Y-53665000D01*
X94150000Y-53665000D02*
X100350000Y-53665000D01*
D11*
X76925000Y-89500000D02*
X76925000Y-90500000D01*
X75575000Y-90500000D02*
X75575000Y-89500000D01*
X83075000Y-91500000D02*
X83075000Y-90500000D01*
X84425000Y-90500000D02*
X84425000Y-91500000D01*
X83750000Y-88675000D02*
X82750000Y-88675000D01*
X82750000Y-87325000D02*
X83750000Y-87325000D01*
X86925000Y-89750000D02*
X86925000Y-90750000D01*
X85575000Y-90750000D02*
X85575000Y-89750000D01*
X54500000Y-62325000D02*
X55500000Y-62325000D01*
X55500000Y-63675000D02*
X54500000Y-63675000D01*
X56750714Y-55000000D02*
G75*
G03X56750714Y-55000000I-1750714J0D01*
G01*
X51775000Y-51775000D02*
X51900000Y-51775000D01*
X58225000Y-51775000D02*
X58100000Y-51775000D01*
X58225000Y-58225000D02*
X58100000Y-58225000D01*
X51900000Y-58225000D02*
X51775000Y-58225000D01*
X53600000Y-51775000D02*
X56400000Y-51775000D01*
X51775000Y-58225000D02*
X51775000Y-51775000D01*
X53600000Y-58225000D02*
X56400000Y-58225000D01*
X58225000Y-58225000D02*
X58225000Y-51775000D01*
X79750000Y-91000000D02*
X80250000Y-90500000D01*
X80850000Y-91300000D02*
G75*
G03X80850000Y-91300000I-200000J0D01*
G01*
X79250000Y-89000000D02*
X79250000Y-91000000D01*
X79250000Y-91000000D02*
X79750000Y-91000000D01*
X80250000Y-90500000D02*
X80250000Y-89000000D01*
X80250000Y-89000000D02*
X79250000Y-89000000D01*
X78750000Y-53000000D02*
X79000000Y-53000000D01*
X78250000Y-53000000D02*
X78000000Y-53000000D01*
X78250000Y-53000000D02*
X78750000Y-52650000D01*
X78750000Y-52650000D02*
X78750000Y-53350000D01*
X78750000Y-53350000D02*
X78250000Y-53000000D01*
X78250000Y-52650000D02*
X78250000Y-53350000D01*
X77200000Y-53800000D02*
X79600000Y-53800000D01*
X77200000Y-52200000D02*
X79600000Y-52200000D01*
X142950000Y-73100000D02*
X142250000Y-73100000D01*
X142250000Y-71900000D02*
X142950000Y-71900000D01*
X135900000Y-62650000D02*
X136600000Y-62650000D01*
X136600000Y-63850000D02*
X135900000Y-63850000D01*
X138100000Y-60150000D02*
X138100000Y-60850000D01*
X136900000Y-60850000D02*
X136900000Y-60150000D01*
X145750000Y-71900000D02*
X146450000Y-71900000D01*
X146450000Y-73100000D02*
X145750000Y-73100000D01*
X145900000Y-54400000D02*
X146600000Y-54400000D01*
X146600000Y-55600000D02*
X145900000Y-55600000D01*
X119350000Y-87900000D02*
X119350000Y-88600000D01*
X118150000Y-88600000D02*
X118150000Y-87900000D01*
X106925000Y-132250000D02*
X106925000Y-133250000D01*
X105575000Y-133250000D02*
X105575000Y-132250000D01*
X109425000Y-131500000D02*
X109425000Y-132500000D01*
X108075000Y-132500000D02*
X108075000Y-131500000D01*
X83825000Y-131000000D02*
X83825000Y-130000000D01*
X85175000Y-130000000D02*
X85175000Y-131000000D01*
X98325000Y-118000000D02*
X98325000Y-117000000D01*
X99675000Y-117000000D02*
X99675000Y-118000000D01*
X96325000Y-118000000D02*
X96325000Y-117000000D01*
X97675000Y-117000000D02*
X97675000Y-118000000D01*
X94325000Y-118000000D02*
X94325000Y-117000000D01*
X95675000Y-117000000D02*
X95675000Y-118000000D01*
X130000000Y-96425000D02*
X129000000Y-96425000D01*
X129000000Y-95075000D02*
X130000000Y-95075000D01*
D15*
X101400000Y-120500000D02*
X103000000Y-120500540D01*
X103000000Y-120500540D02*
X103000000Y-122400000D01*
X89800000Y-122400000D02*
X89799620Y-120500540D01*
X89800000Y-120500000D02*
X91300000Y-120500000D01*
D11*
X59157143Y-116752381D02*
X58823809Y-116276190D01*
X58585714Y-116752381D02*
X58585714Y-115752381D01*
X58966667Y-115752381D01*
X59061905Y-115800000D01*
X59109524Y-115847619D01*
X59157143Y-115942857D01*
X59157143Y-116085714D01*
X59109524Y-116180952D01*
X59061905Y-116228571D01*
X58966667Y-116276190D01*
X58585714Y-116276190D01*
X59538095Y-115847619D02*
X59585714Y-115800000D01*
X59680952Y-115752381D01*
X59919048Y-115752381D01*
X60014286Y-115800000D01*
X60061905Y-115847619D01*
X60109524Y-115942857D01*
X60109524Y-116038095D01*
X60061905Y-116180952D01*
X59490476Y-116752381D01*
X60109524Y-116752381D01*
X60680952Y-116180952D02*
X60585714Y-116133333D01*
X60538095Y-116085714D01*
X60490476Y-115990476D01*
X60490476Y-115942857D01*
X60538095Y-115847619D01*
X60585714Y-115800000D01*
X60680952Y-115752381D01*
X60871429Y-115752381D01*
X60966667Y-115800000D01*
X61014286Y-115847619D01*
X61061905Y-115942857D01*
X61061905Y-115990476D01*
X61014286Y-116085714D01*
X60966667Y-116133333D01*
X60871429Y-116180952D01*
X60680952Y-116180952D01*
X60585714Y-116228571D01*
X60538095Y-116276190D01*
X60490476Y-116371429D01*
X60490476Y-116561905D01*
X60538095Y-116657143D01*
X60585714Y-116704762D01*
X60680952Y-116752381D01*
X60871429Y-116752381D01*
X60966667Y-116704762D01*
X61014286Y-116657143D01*
X61061905Y-116561905D01*
X61061905Y-116371429D01*
X61014286Y-116276190D01*
X60966667Y-116228571D01*
X60871429Y-116180952D01*
X122452381Y-61261905D02*
X123261905Y-61261905D01*
X123357143Y-61214286D01*
X123404762Y-61166667D01*
X123452381Y-61071429D01*
X123452381Y-60880952D01*
X123404762Y-60785714D01*
X123357143Y-60738095D01*
X123261905Y-60690476D01*
X122452381Y-60690476D01*
X122785714Y-59785714D02*
X123452381Y-59785714D01*
X122404762Y-60023810D02*
X123119048Y-60261905D01*
X123119048Y-59642857D01*
X119238095Y-76952381D02*
X119238095Y-77761905D01*
X119285714Y-77857143D01*
X119333333Y-77904762D01*
X119428571Y-77952381D01*
X119619048Y-77952381D01*
X119714286Y-77904762D01*
X119761905Y-77857143D01*
X119809524Y-77761905D01*
X119809524Y-76952381D01*
X120714286Y-76952381D02*
X120523809Y-76952381D01*
X120428571Y-77000000D01*
X120380952Y-77047619D01*
X120285714Y-77190476D01*
X120238095Y-77380952D01*
X120238095Y-77761905D01*
X120285714Y-77857143D01*
X120333333Y-77904762D01*
X120428571Y-77952381D01*
X120619048Y-77952381D01*
X120714286Y-77904762D01*
X120761905Y-77857143D01*
X120809524Y-77761905D01*
X120809524Y-77523810D01*
X120761905Y-77428571D01*
X120714286Y-77380952D01*
X120619048Y-77333333D01*
X120428571Y-77333333D01*
X120333333Y-77380952D01*
X120285714Y-77428571D01*
X120238095Y-77523810D01*
X58452381Y-96488095D02*
X57452381Y-96488095D01*
X57452381Y-96107142D01*
X57500000Y-96011904D01*
X57547619Y-95964285D01*
X57642857Y-95916666D01*
X57785714Y-95916666D01*
X57880952Y-95964285D01*
X57928571Y-96011904D01*
X57976190Y-96107142D01*
X57976190Y-96488095D01*
X58452381Y-94964285D02*
X58452381Y-95535714D01*
X58452381Y-95250000D02*
X57452381Y-95250000D01*
X57595238Y-95345238D01*
X57690476Y-95440476D01*
X57738095Y-95535714D01*
X54428571Y-84285714D02*
X54476190Y-84142857D01*
X54523810Y-84095238D01*
X54619048Y-84047619D01*
X54761905Y-84047619D01*
X54857143Y-84095238D01*
X54904762Y-84142857D01*
X54952381Y-84238095D01*
X54952381Y-84619048D01*
X53952381Y-84619048D01*
X53952381Y-84285714D01*
X54000000Y-84190476D01*
X54047619Y-84142857D01*
X54142857Y-84095238D01*
X54238095Y-84095238D01*
X54333333Y-84142857D01*
X54380952Y-84190476D01*
X54428571Y-84285714D01*
X54428571Y-84619048D01*
X53952381Y-83761905D02*
X53952381Y-83190476D01*
X54952381Y-83476191D02*
X53952381Y-83476191D01*
X54952381Y-82333333D02*
X54952381Y-82904762D01*
X54952381Y-82619048D02*
X53952381Y-82619048D01*
X54095238Y-82714286D01*
X54190476Y-82809524D01*
X54238095Y-82904762D01*
X63907143Y-98916666D02*
X63954762Y-98964285D01*
X64002381Y-99107142D01*
X64002381Y-99202380D01*
X63954762Y-99345238D01*
X63859524Y-99440476D01*
X63764286Y-99488095D01*
X63573810Y-99535714D01*
X63430952Y-99535714D01*
X63240476Y-99488095D01*
X63145238Y-99440476D01*
X63050000Y-99345238D01*
X63002381Y-99202380D01*
X63002381Y-99107142D01*
X63050000Y-98964285D01*
X63097619Y-98916666D01*
X64002381Y-97964285D02*
X64002381Y-98535714D01*
X64002381Y-98250000D02*
X63002381Y-98250000D01*
X63145238Y-98345238D01*
X63240476Y-98440476D01*
X63288095Y-98535714D01*
X139357143Y-69166666D02*
X139404762Y-69214285D01*
X139452381Y-69357142D01*
X139452381Y-69452380D01*
X139404762Y-69595238D01*
X139309524Y-69690476D01*
X139214286Y-69738095D01*
X139023810Y-69785714D01*
X138880952Y-69785714D01*
X138690476Y-69738095D01*
X138595238Y-69690476D01*
X138500000Y-69595238D01*
X138452381Y-69452380D01*
X138452381Y-69357142D01*
X138500000Y-69214285D01*
X138547619Y-69166666D01*
X138547619Y-68785714D02*
X138500000Y-68738095D01*
X138452381Y-68642857D01*
X138452381Y-68404761D01*
X138500000Y-68309523D01*
X138547619Y-68261904D01*
X138642857Y-68214285D01*
X138738095Y-68214285D01*
X138880952Y-68261904D01*
X139452381Y-68833333D01*
X139452381Y-68214285D01*
X60107143Y-91916666D02*
X60154762Y-91964285D01*
X60202381Y-92107142D01*
X60202381Y-92202380D01*
X60154762Y-92345238D01*
X60059524Y-92440476D01*
X59964286Y-92488095D01*
X59773810Y-92535714D01*
X59630952Y-92535714D01*
X59440476Y-92488095D01*
X59345238Y-92440476D01*
X59250000Y-92345238D01*
X59202381Y-92202380D01*
X59202381Y-92107142D01*
X59250000Y-91964285D01*
X59297619Y-91916666D01*
X59202381Y-91583333D02*
X59202381Y-90964285D01*
X59583333Y-91297619D01*
X59583333Y-91154761D01*
X59630952Y-91059523D01*
X59678571Y-91011904D01*
X59773810Y-90964285D01*
X60011905Y-90964285D01*
X60107143Y-91011904D01*
X60154762Y-91059523D01*
X60202381Y-91154761D01*
X60202381Y-91440476D01*
X60154762Y-91535714D01*
X60107143Y-91583333D01*
X63333334Y-50357143D02*
X63285715Y-50404762D01*
X63142858Y-50452381D01*
X63047620Y-50452381D01*
X62904762Y-50404762D01*
X62809524Y-50309524D01*
X62761905Y-50214286D01*
X62714286Y-50023810D01*
X62714286Y-49880952D01*
X62761905Y-49690476D01*
X62809524Y-49595238D01*
X62904762Y-49500000D01*
X63047620Y-49452381D01*
X63142858Y-49452381D01*
X63285715Y-49500000D01*
X63333334Y-49547619D01*
X64190477Y-49785714D02*
X64190477Y-50452381D01*
X63952381Y-49404762D02*
X63714286Y-50119048D01*
X64333334Y-50119048D01*
X104107143Y-95916666D02*
X104154762Y-95964285D01*
X104202381Y-96107142D01*
X104202381Y-96202380D01*
X104154762Y-96345238D01*
X104059524Y-96440476D01*
X103964286Y-96488095D01*
X103773810Y-96535714D01*
X103630952Y-96535714D01*
X103440476Y-96488095D01*
X103345238Y-96440476D01*
X103250000Y-96345238D01*
X103202381Y-96202380D01*
X103202381Y-96107142D01*
X103250000Y-95964285D01*
X103297619Y-95916666D01*
X103202381Y-95011904D02*
X103202381Y-95488095D01*
X103678571Y-95535714D01*
X103630952Y-95488095D01*
X103583333Y-95392857D01*
X103583333Y-95154761D01*
X103630952Y-95059523D01*
X103678571Y-95011904D01*
X103773810Y-94964285D01*
X104011905Y-94964285D01*
X104107143Y-95011904D01*
X104154762Y-95059523D01*
X104202381Y-95154761D01*
X104202381Y-95392857D01*
X104154762Y-95488095D01*
X104107143Y-95535714D01*
X117833334Y-81207143D02*
X117785715Y-81254762D01*
X117642858Y-81302381D01*
X117547620Y-81302381D01*
X117404762Y-81254762D01*
X117309524Y-81159524D01*
X117261905Y-81064286D01*
X117214286Y-80873810D01*
X117214286Y-80730952D01*
X117261905Y-80540476D01*
X117309524Y-80445238D01*
X117404762Y-80350000D01*
X117547620Y-80302381D01*
X117642858Y-80302381D01*
X117785715Y-80350000D01*
X117833334Y-80397619D01*
X118690477Y-80302381D02*
X118500000Y-80302381D01*
X118404762Y-80350000D01*
X118357143Y-80397619D01*
X118261905Y-80540476D01*
X118214286Y-80730952D01*
X118214286Y-81111905D01*
X118261905Y-81207143D01*
X118309524Y-81254762D01*
X118404762Y-81302381D01*
X118595239Y-81302381D01*
X118690477Y-81254762D01*
X118738096Y-81207143D01*
X118785715Y-81111905D01*
X118785715Y-80873810D01*
X118738096Y-80778571D01*
X118690477Y-80730952D01*
X118595239Y-80683333D01*
X118404762Y-80683333D01*
X118309524Y-80730952D01*
X118261905Y-80778571D01*
X118214286Y-80873810D01*
X109833334Y-102657143D02*
X109785715Y-102704762D01*
X109642858Y-102752381D01*
X109547620Y-102752381D01*
X109404762Y-102704762D01*
X109309524Y-102609524D01*
X109261905Y-102514286D01*
X109214286Y-102323810D01*
X109214286Y-102180952D01*
X109261905Y-101990476D01*
X109309524Y-101895238D01*
X109404762Y-101800000D01*
X109547620Y-101752381D01*
X109642858Y-101752381D01*
X109785715Y-101800000D01*
X109833334Y-101847619D01*
X110166667Y-101752381D02*
X110833334Y-101752381D01*
X110404762Y-102752381D01*
X112857143Y-105644259D02*
X112904762Y-105691878D01*
X112952381Y-105834735D01*
X112952381Y-105929973D01*
X112904762Y-106072831D01*
X112809524Y-106168069D01*
X112714286Y-106215688D01*
X112523810Y-106263307D01*
X112380952Y-106263307D01*
X112190476Y-106215688D01*
X112095238Y-106168069D01*
X112000000Y-106072831D01*
X111952381Y-105929973D01*
X111952381Y-105834735D01*
X112000000Y-105691878D01*
X112047619Y-105644259D01*
X112380952Y-105072831D02*
X112333333Y-105168069D01*
X112285714Y-105215688D01*
X112190476Y-105263307D01*
X112142857Y-105263307D01*
X112047619Y-105215688D01*
X112000000Y-105168069D01*
X111952381Y-105072831D01*
X111952381Y-104882354D01*
X112000000Y-104787116D01*
X112047619Y-104739497D01*
X112142857Y-104691878D01*
X112190476Y-104691878D01*
X112285714Y-104739497D01*
X112333333Y-104787116D01*
X112380952Y-104882354D01*
X112380952Y-105072831D01*
X112428571Y-105168069D01*
X112476190Y-105215688D01*
X112571429Y-105263307D01*
X112761905Y-105263307D01*
X112857143Y-105215688D01*
X112904762Y-105168069D01*
X112952381Y-105072831D01*
X112952381Y-104882354D01*
X112904762Y-104787116D01*
X112857143Y-104739497D01*
X112761905Y-104691878D01*
X112571429Y-104691878D01*
X112476190Y-104739497D01*
X112428571Y-104787116D01*
X112380952Y-104882354D01*
X75333334Y-56607143D02*
X75285715Y-56654762D01*
X75142858Y-56702381D01*
X75047620Y-56702381D01*
X74904762Y-56654762D01*
X74809524Y-56559524D01*
X74761905Y-56464286D01*
X74714286Y-56273810D01*
X74714286Y-56130952D01*
X74761905Y-55940476D01*
X74809524Y-55845238D01*
X74904762Y-55750000D01*
X75047620Y-55702381D01*
X75142858Y-55702381D01*
X75285715Y-55750000D01*
X75333334Y-55797619D01*
X75809524Y-56702381D02*
X76000000Y-56702381D01*
X76095239Y-56654762D01*
X76142858Y-56607143D01*
X76238096Y-56464286D01*
X76285715Y-56273810D01*
X76285715Y-55892857D01*
X76238096Y-55797619D01*
X76190477Y-55750000D01*
X76095239Y-55702381D01*
X75904762Y-55702381D01*
X75809524Y-55750000D01*
X75761905Y-55797619D01*
X75714286Y-55892857D01*
X75714286Y-56130952D01*
X75761905Y-56226190D01*
X75809524Y-56273810D01*
X75904762Y-56321429D01*
X76095239Y-56321429D01*
X76190477Y-56273810D01*
X76238096Y-56226190D01*
X76285715Y-56130952D01*
X124857143Y-93392857D02*
X124904762Y-93440476D01*
X124952381Y-93583333D01*
X124952381Y-93678571D01*
X124904762Y-93821429D01*
X124809524Y-93916667D01*
X124714286Y-93964286D01*
X124523810Y-94011905D01*
X124380952Y-94011905D01*
X124190476Y-93964286D01*
X124095238Y-93916667D01*
X124000000Y-93821429D01*
X123952381Y-93678571D01*
X123952381Y-93583333D01*
X124000000Y-93440476D01*
X124047619Y-93392857D01*
X124952381Y-92440476D02*
X124952381Y-93011905D01*
X124952381Y-92726191D02*
X123952381Y-92726191D01*
X124095238Y-92821429D01*
X124190476Y-92916667D01*
X124238095Y-93011905D01*
X123952381Y-91821429D02*
X123952381Y-91726190D01*
X124000000Y-91630952D01*
X124047619Y-91583333D01*
X124142857Y-91535714D01*
X124333333Y-91488095D01*
X124571429Y-91488095D01*
X124761905Y-91535714D01*
X124857143Y-91583333D01*
X124904762Y-91630952D01*
X124952381Y-91726190D01*
X124952381Y-91821429D01*
X124904762Y-91916667D01*
X124857143Y-91964286D01*
X124761905Y-92011905D01*
X124571429Y-92059524D01*
X124333333Y-92059524D01*
X124142857Y-92011905D01*
X124047619Y-91964286D01*
X124000000Y-91916667D01*
X123952381Y-91821429D01*
X129857143Y-93392857D02*
X129904762Y-93440476D01*
X129952381Y-93583333D01*
X129952381Y-93678571D01*
X129904762Y-93821429D01*
X129809524Y-93916667D01*
X129714286Y-93964286D01*
X129523810Y-94011905D01*
X129380952Y-94011905D01*
X129190476Y-93964286D01*
X129095238Y-93916667D01*
X129000000Y-93821429D01*
X128952381Y-93678571D01*
X128952381Y-93583333D01*
X129000000Y-93440476D01*
X129047619Y-93392857D01*
X129952381Y-92440476D02*
X129952381Y-93011905D01*
X129952381Y-92726191D02*
X128952381Y-92726191D01*
X129095238Y-92821429D01*
X129190476Y-92916667D01*
X129238095Y-93011905D01*
X129952381Y-91488095D02*
X129952381Y-92059524D01*
X129952381Y-91773810D02*
X128952381Y-91773810D01*
X129095238Y-91869048D01*
X129190476Y-91964286D01*
X129238095Y-92059524D01*
X83107143Y-42607143D02*
X83059524Y-42654762D01*
X82916667Y-42702381D01*
X82821429Y-42702381D01*
X82678571Y-42654762D01*
X82583333Y-42559524D01*
X82535714Y-42464286D01*
X82488095Y-42273810D01*
X82488095Y-42130952D01*
X82535714Y-41940476D01*
X82583333Y-41845238D01*
X82678571Y-41750000D01*
X82821429Y-41702381D01*
X82916667Y-41702381D01*
X83059524Y-41750000D01*
X83107143Y-41797619D01*
X84059524Y-42702381D02*
X83488095Y-42702381D01*
X83773809Y-42702381D02*
X83773809Y-41702381D01*
X83678571Y-41845238D01*
X83583333Y-41940476D01*
X83488095Y-41988095D01*
X84440476Y-41797619D02*
X84488095Y-41750000D01*
X84583333Y-41702381D01*
X84821429Y-41702381D01*
X84916667Y-41750000D01*
X84964286Y-41797619D01*
X85011905Y-41892857D01*
X85011905Y-41988095D01*
X84964286Y-42130952D01*
X84392857Y-42702381D01*
X85011905Y-42702381D01*
X87357143Y-55607143D02*
X87309524Y-55654762D01*
X87166667Y-55702381D01*
X87071429Y-55702381D01*
X86928571Y-55654762D01*
X86833333Y-55559524D01*
X86785714Y-55464286D01*
X86738095Y-55273810D01*
X86738095Y-55130952D01*
X86785714Y-54940476D01*
X86833333Y-54845238D01*
X86928571Y-54750000D01*
X87071429Y-54702381D01*
X87166667Y-54702381D01*
X87309524Y-54750000D01*
X87357143Y-54797619D01*
X88309524Y-55702381D02*
X87738095Y-55702381D01*
X88023809Y-55702381D02*
X88023809Y-54702381D01*
X87928571Y-54845238D01*
X87833333Y-54940476D01*
X87738095Y-54988095D01*
X88642857Y-54702381D02*
X89261905Y-54702381D01*
X88928571Y-55083333D01*
X89071429Y-55083333D01*
X89166667Y-55130952D01*
X89214286Y-55178571D01*
X89261905Y-55273810D01*
X89261905Y-55511905D01*
X89214286Y-55607143D01*
X89166667Y-55654762D01*
X89071429Y-55702381D01*
X88785714Y-55702381D01*
X88690476Y-55654762D01*
X88642857Y-55607143D01*
X86857143Y-42107143D02*
X86809524Y-42154762D01*
X86666667Y-42202381D01*
X86571429Y-42202381D01*
X86428571Y-42154762D01*
X86333333Y-42059524D01*
X86285714Y-41964286D01*
X86238095Y-41773810D01*
X86238095Y-41630952D01*
X86285714Y-41440476D01*
X86333333Y-41345238D01*
X86428571Y-41250000D01*
X86571429Y-41202381D01*
X86666667Y-41202381D01*
X86809524Y-41250000D01*
X86857143Y-41297619D01*
X87809524Y-42202381D02*
X87238095Y-42202381D01*
X87523809Y-42202381D02*
X87523809Y-41202381D01*
X87428571Y-41345238D01*
X87333333Y-41440476D01*
X87238095Y-41488095D01*
X88666667Y-41535714D02*
X88666667Y-42202381D01*
X88428571Y-41154762D02*
X88190476Y-41869048D01*
X88809524Y-41869048D01*
X91607143Y-53607143D02*
X91559524Y-53654762D01*
X91416667Y-53702381D01*
X91321429Y-53702381D01*
X91178571Y-53654762D01*
X91083333Y-53559524D01*
X91035714Y-53464286D01*
X90988095Y-53273810D01*
X90988095Y-53130952D01*
X91035714Y-52940476D01*
X91083333Y-52845238D01*
X91178571Y-52750000D01*
X91321429Y-52702381D01*
X91416667Y-52702381D01*
X91559524Y-52750000D01*
X91607143Y-52797619D01*
X92559524Y-53702381D02*
X91988095Y-53702381D01*
X92273809Y-53702381D02*
X92273809Y-52702381D01*
X92178571Y-52845238D01*
X92083333Y-52940476D01*
X91988095Y-52988095D01*
X93464286Y-52702381D02*
X92988095Y-52702381D01*
X92940476Y-53178571D01*
X92988095Y-53130952D01*
X93083333Y-53083333D01*
X93321429Y-53083333D01*
X93416667Y-53130952D01*
X93464286Y-53178571D01*
X93511905Y-53273810D01*
X93511905Y-53511905D01*
X93464286Y-53607143D01*
X93416667Y-53654762D01*
X93321429Y-53702381D01*
X93083333Y-53702381D01*
X92988095Y-53654762D01*
X92940476Y-53607143D01*
X128857143Y-69892857D02*
X128904762Y-69940476D01*
X128952381Y-70083333D01*
X128952381Y-70178571D01*
X128904762Y-70321429D01*
X128809524Y-70416667D01*
X128714286Y-70464286D01*
X128523810Y-70511905D01*
X128380952Y-70511905D01*
X128190476Y-70464286D01*
X128095238Y-70416667D01*
X128000000Y-70321429D01*
X127952381Y-70178571D01*
X127952381Y-70083333D01*
X128000000Y-69940476D01*
X128047619Y-69892857D01*
X128952381Y-68940476D02*
X128952381Y-69511905D01*
X128952381Y-69226191D02*
X127952381Y-69226191D01*
X128095238Y-69321429D01*
X128190476Y-69416667D01*
X128238095Y-69511905D01*
X127952381Y-68083333D02*
X127952381Y-68273810D01*
X128000000Y-68369048D01*
X128047619Y-68416667D01*
X128190476Y-68511905D01*
X128380952Y-68559524D01*
X128761905Y-68559524D01*
X128857143Y-68511905D01*
X128904762Y-68464286D01*
X128952381Y-68369048D01*
X128952381Y-68178571D01*
X128904762Y-68083333D01*
X128857143Y-68035714D01*
X128761905Y-67988095D01*
X128523810Y-67988095D01*
X128428571Y-68035714D01*
X128380952Y-68083333D01*
X128333333Y-68178571D01*
X128333333Y-68369048D01*
X128380952Y-68464286D01*
X128428571Y-68511905D01*
X128523810Y-68559524D01*
X96857143Y-48357143D02*
X96809524Y-48404762D01*
X96666667Y-48452381D01*
X96571429Y-48452381D01*
X96428571Y-48404762D01*
X96333333Y-48309524D01*
X96285714Y-48214286D01*
X96238095Y-48023810D01*
X96238095Y-47880952D01*
X96285714Y-47690476D01*
X96333333Y-47595238D01*
X96428571Y-47500000D01*
X96571429Y-47452381D01*
X96666667Y-47452381D01*
X96809524Y-47500000D01*
X96857143Y-47547619D01*
X97809524Y-48452381D02*
X97238095Y-48452381D01*
X97523809Y-48452381D02*
X97523809Y-47452381D01*
X97428571Y-47595238D01*
X97333333Y-47690476D01*
X97238095Y-47738095D01*
X98142857Y-47452381D02*
X98809524Y-47452381D01*
X98380952Y-48452381D01*
X101857143Y-55607143D02*
X101809524Y-55654762D01*
X101666667Y-55702381D01*
X101571429Y-55702381D01*
X101428571Y-55654762D01*
X101333333Y-55559524D01*
X101285714Y-55464286D01*
X101238095Y-55273810D01*
X101238095Y-55130952D01*
X101285714Y-54940476D01*
X101333333Y-54845238D01*
X101428571Y-54750000D01*
X101571429Y-54702381D01*
X101666667Y-54702381D01*
X101809524Y-54750000D01*
X101857143Y-54797619D01*
X102809524Y-55702381D02*
X102238095Y-55702381D01*
X102523809Y-55702381D02*
X102523809Y-54702381D01*
X102428571Y-54845238D01*
X102333333Y-54940476D01*
X102238095Y-54988095D01*
X103380952Y-55130952D02*
X103285714Y-55083333D01*
X103238095Y-55035714D01*
X103190476Y-54940476D01*
X103190476Y-54892857D01*
X103238095Y-54797619D01*
X103285714Y-54750000D01*
X103380952Y-54702381D01*
X103571429Y-54702381D01*
X103666667Y-54750000D01*
X103714286Y-54797619D01*
X103761905Y-54892857D01*
X103761905Y-54940476D01*
X103714286Y-55035714D01*
X103666667Y-55083333D01*
X103571429Y-55130952D01*
X103380952Y-55130952D01*
X103285714Y-55178571D01*
X103238095Y-55226190D01*
X103190476Y-55321429D01*
X103190476Y-55511905D01*
X103238095Y-55607143D01*
X103285714Y-55654762D01*
X103380952Y-55702381D01*
X103571429Y-55702381D01*
X103666667Y-55654762D01*
X103714286Y-55607143D01*
X103761905Y-55511905D01*
X103761905Y-55321429D01*
X103714286Y-55226190D01*
X103666667Y-55178571D01*
X103571429Y-55130952D01*
X137357143Y-87392857D02*
X137404762Y-87440476D01*
X137452381Y-87583333D01*
X137452381Y-87678571D01*
X137404762Y-87821429D01*
X137309524Y-87916667D01*
X137214286Y-87964286D01*
X137023810Y-88011905D01*
X136880952Y-88011905D01*
X136690476Y-87964286D01*
X136595238Y-87916667D01*
X136500000Y-87821429D01*
X136452381Y-87678571D01*
X136452381Y-87583333D01*
X136500000Y-87440476D01*
X136547619Y-87392857D01*
X137452381Y-86440476D02*
X137452381Y-87011905D01*
X137452381Y-86726191D02*
X136452381Y-86726191D01*
X136595238Y-86821429D01*
X136690476Y-86916667D01*
X136738095Y-87011905D01*
X137452381Y-85964286D02*
X137452381Y-85773810D01*
X137404762Y-85678571D01*
X137357143Y-85630952D01*
X137214286Y-85535714D01*
X137023810Y-85488095D01*
X136642857Y-85488095D01*
X136547619Y-85535714D01*
X136500000Y-85583333D01*
X136452381Y-85678571D01*
X136452381Y-85869048D01*
X136500000Y-85964286D01*
X136547619Y-86011905D01*
X136642857Y-86059524D01*
X136880952Y-86059524D01*
X136976190Y-86011905D01*
X137023810Y-85964286D01*
X137071429Y-85869048D01*
X137071429Y-85678571D01*
X137023810Y-85583333D01*
X136976190Y-85535714D01*
X136880952Y-85488095D01*
X127107143Y-116857143D02*
X127059524Y-116904762D01*
X126916667Y-116952381D01*
X126821429Y-116952381D01*
X126678571Y-116904762D01*
X126583333Y-116809524D01*
X126535714Y-116714286D01*
X126488095Y-116523810D01*
X126488095Y-116380952D01*
X126535714Y-116190476D01*
X126583333Y-116095238D01*
X126678571Y-116000000D01*
X126821429Y-115952381D01*
X126916667Y-115952381D01*
X127059524Y-116000000D01*
X127107143Y-116047619D01*
X127488095Y-116047619D02*
X127535714Y-116000000D01*
X127630952Y-115952381D01*
X127869048Y-115952381D01*
X127964286Y-116000000D01*
X128011905Y-116047619D01*
X128059524Y-116142857D01*
X128059524Y-116238095D01*
X128011905Y-116380952D01*
X127440476Y-116952381D01*
X128059524Y-116952381D01*
X128678571Y-115952381D02*
X128773810Y-115952381D01*
X128869048Y-116000000D01*
X128916667Y-116047619D01*
X128964286Y-116142857D01*
X129011905Y-116333333D01*
X129011905Y-116571429D01*
X128964286Y-116761905D01*
X128916667Y-116857143D01*
X128869048Y-116904762D01*
X128773810Y-116952381D01*
X128678571Y-116952381D01*
X128583333Y-116904762D01*
X128535714Y-116857143D01*
X128488095Y-116761905D01*
X128440476Y-116571429D01*
X128440476Y-116333333D01*
X128488095Y-116142857D01*
X128535714Y-116047619D01*
X128583333Y-116000000D01*
X128678571Y-115952381D01*
X110607143Y-48642857D02*
X110654762Y-48690476D01*
X110702381Y-48833333D01*
X110702381Y-48928571D01*
X110654762Y-49071429D01*
X110559524Y-49166667D01*
X110464286Y-49214286D01*
X110273810Y-49261905D01*
X110130952Y-49261905D01*
X109940476Y-49214286D01*
X109845238Y-49166667D01*
X109750000Y-49071429D01*
X109702381Y-48928571D01*
X109702381Y-48833333D01*
X109750000Y-48690476D01*
X109797619Y-48642857D01*
X109797619Y-48261905D02*
X109750000Y-48214286D01*
X109702381Y-48119048D01*
X109702381Y-47880952D01*
X109750000Y-47785714D01*
X109797619Y-47738095D01*
X109892857Y-47690476D01*
X109988095Y-47690476D01*
X110130952Y-47738095D01*
X110702381Y-48309524D01*
X110702381Y-47690476D01*
X110702381Y-46738095D02*
X110702381Y-47309524D01*
X110702381Y-47023810D02*
X109702381Y-47023810D01*
X109845238Y-47119048D01*
X109940476Y-47214286D01*
X109988095Y-47309524D01*
X119107143Y-52642857D02*
X119154762Y-52690476D01*
X119202381Y-52833333D01*
X119202381Y-52928571D01*
X119154762Y-53071429D01*
X119059524Y-53166667D01*
X118964286Y-53214286D01*
X118773810Y-53261905D01*
X118630952Y-53261905D01*
X118440476Y-53214286D01*
X118345238Y-53166667D01*
X118250000Y-53071429D01*
X118202381Y-52928571D01*
X118202381Y-52833333D01*
X118250000Y-52690476D01*
X118297619Y-52642857D01*
X118297619Y-52261905D02*
X118250000Y-52214286D01*
X118202381Y-52119048D01*
X118202381Y-51880952D01*
X118250000Y-51785714D01*
X118297619Y-51738095D01*
X118392857Y-51690476D01*
X118488095Y-51690476D01*
X118630952Y-51738095D01*
X119202381Y-52309524D01*
X119202381Y-51690476D01*
X118297619Y-51309524D02*
X118250000Y-51261905D01*
X118202381Y-51166667D01*
X118202381Y-50928571D01*
X118250000Y-50833333D01*
X118297619Y-50785714D01*
X118392857Y-50738095D01*
X118488095Y-50738095D01*
X118630952Y-50785714D01*
X119202381Y-51357143D01*
X119202381Y-50738095D01*
X107607143Y-123142857D02*
X107654762Y-123190476D01*
X107702381Y-123333333D01*
X107702381Y-123428571D01*
X107654762Y-123571429D01*
X107559524Y-123666667D01*
X107464286Y-123714286D01*
X107273810Y-123761905D01*
X107130952Y-123761905D01*
X106940476Y-123714286D01*
X106845238Y-123666667D01*
X106750000Y-123571429D01*
X106702381Y-123428571D01*
X106702381Y-123333333D01*
X106750000Y-123190476D01*
X106797619Y-123142857D01*
X106797619Y-122761905D02*
X106750000Y-122714286D01*
X106702381Y-122619048D01*
X106702381Y-122380952D01*
X106750000Y-122285714D01*
X106797619Y-122238095D01*
X106892857Y-122190476D01*
X106988095Y-122190476D01*
X107130952Y-122238095D01*
X107702381Y-122809524D01*
X107702381Y-122190476D01*
X106702381Y-121857143D02*
X106702381Y-121238095D01*
X107083333Y-121571429D01*
X107083333Y-121428571D01*
X107130952Y-121333333D01*
X107178571Y-121285714D01*
X107273810Y-121238095D01*
X107511905Y-121238095D01*
X107607143Y-121285714D01*
X107654762Y-121333333D01*
X107702381Y-121428571D01*
X107702381Y-121714286D01*
X107654762Y-121809524D01*
X107607143Y-121857143D01*
D16*
X123794286Y-134600571D02*
X123866857Y-134673142D01*
X123939429Y-134890856D01*
X123939429Y-135035999D01*
X123866857Y-135253714D01*
X123721714Y-135398856D01*
X123576571Y-135471428D01*
X123286286Y-135543999D01*
X123068571Y-135543999D01*
X122778286Y-135471428D01*
X122633143Y-135398856D01*
X122488000Y-135253714D01*
X122415429Y-135035999D01*
X122415429Y-134890856D01*
X122488000Y-134673142D01*
X122560571Y-134600571D01*
X122415429Y-133657142D02*
X122415429Y-133366856D01*
X122488000Y-133221714D01*
X122633143Y-133076571D01*
X122923429Y-133003999D01*
X123431429Y-133003999D01*
X123721714Y-133076571D01*
X123866857Y-133221714D01*
X123939429Y-133366856D01*
X123939429Y-133657142D01*
X123866857Y-133802285D01*
X123721714Y-133947428D01*
X123431429Y-134019999D01*
X122923429Y-134019999D01*
X122633143Y-133947428D01*
X122488000Y-133802285D01*
X122415429Y-133657142D01*
X123939429Y-132350857D02*
X122415429Y-132350857D01*
X123939429Y-131480000D01*
X122415429Y-131480000D01*
X123939429Y-129956000D02*
X123939429Y-130826857D01*
X123939429Y-130391429D02*
X122415429Y-130391429D01*
X122633143Y-130536572D01*
X122778286Y-130681714D01*
X122850857Y-130826857D01*
D11*
X53011905Y-108452381D02*
X53011905Y-107452381D01*
X53250000Y-107452381D01*
X53392858Y-107500000D01*
X53488096Y-107595238D01*
X53535715Y-107690476D01*
X53583334Y-107880952D01*
X53583334Y-108023810D01*
X53535715Y-108214286D01*
X53488096Y-108309524D01*
X53392858Y-108404762D01*
X53250000Y-108452381D01*
X53011905Y-108452381D01*
X54535715Y-108452381D02*
X53964286Y-108452381D01*
X54250000Y-108452381D02*
X54250000Y-107452381D01*
X54154762Y-107595238D01*
X54059524Y-107690476D01*
X53964286Y-107738095D01*
X56361905Y-112952381D02*
X56361905Y-111952381D01*
X56600000Y-111952381D01*
X56742858Y-112000000D01*
X56838096Y-112095238D01*
X56885715Y-112190476D01*
X56933334Y-112380952D01*
X56933334Y-112523810D01*
X56885715Y-112714286D01*
X56838096Y-112809524D01*
X56742858Y-112904762D01*
X56600000Y-112952381D01*
X56361905Y-112952381D01*
X57266667Y-111952381D02*
X57885715Y-111952381D01*
X57552381Y-112333333D01*
X57695239Y-112333333D01*
X57790477Y-112380952D01*
X57838096Y-112428571D01*
X57885715Y-112523810D01*
X57885715Y-112761905D01*
X57838096Y-112857143D01*
X57790477Y-112904762D01*
X57695239Y-112952381D01*
X57409524Y-112952381D01*
X57314286Y-112904762D01*
X57266667Y-112857143D01*
X55761905Y-119652381D02*
X55761905Y-118652381D01*
X56000000Y-118652381D01*
X56142858Y-118700000D01*
X56238096Y-118795238D01*
X56285715Y-118890476D01*
X56333334Y-119080952D01*
X56333334Y-119223810D01*
X56285715Y-119414286D01*
X56238096Y-119509524D01*
X56142858Y-119604762D01*
X56000000Y-119652381D01*
X55761905Y-119652381D01*
X57190477Y-118985714D02*
X57190477Y-119652381D01*
X56952381Y-118604762D02*
X56714286Y-119319048D01*
X57333334Y-119319048D01*
X56461905Y-125452381D02*
X56461905Y-124452381D01*
X56700000Y-124452381D01*
X56842858Y-124500000D01*
X56938096Y-124595238D01*
X56985715Y-124690476D01*
X57033334Y-124880952D01*
X57033334Y-125023810D01*
X56985715Y-125214286D01*
X56938096Y-125309524D01*
X56842858Y-125404762D01*
X56700000Y-125452381D01*
X56461905Y-125452381D01*
X57938096Y-124452381D02*
X57461905Y-124452381D01*
X57414286Y-124928571D01*
X57461905Y-124880952D01*
X57557143Y-124833333D01*
X57795239Y-124833333D01*
X57890477Y-124880952D01*
X57938096Y-124928571D01*
X57985715Y-125023810D01*
X57985715Y-125261905D01*
X57938096Y-125357143D01*
X57890477Y-125404762D01*
X57795239Y-125452381D01*
X57557143Y-125452381D01*
X57461905Y-125404762D01*
X57414286Y-125357143D01*
X140233334Y-63616667D02*
X140233334Y-64116667D01*
X140195238Y-64216667D01*
X140119048Y-64283333D01*
X140004762Y-64316667D01*
X139928572Y-64316667D01*
X141033334Y-64316667D02*
X140576191Y-64316667D01*
X140804762Y-64316667D02*
X140804762Y-63616667D01*
X140728572Y-63716667D01*
X140652381Y-63783333D01*
X140576191Y-63816667D01*
X70333334Y-43952381D02*
X69857143Y-43952381D01*
X69857143Y-42952381D01*
X71190477Y-43952381D02*
X70619048Y-43952381D01*
X70904762Y-43952381D02*
X70904762Y-42952381D01*
X70809524Y-43095238D01*
X70714286Y-43190476D01*
X70619048Y-43238095D01*
X70333334Y-56452381D02*
X69857143Y-56452381D01*
X69857143Y-55452381D01*
X70619048Y-55547619D02*
X70666667Y-55500000D01*
X70761905Y-55452381D01*
X71000001Y-55452381D01*
X71095239Y-55500000D01*
X71142858Y-55547619D01*
X71190477Y-55642857D01*
X71190477Y-55738095D01*
X71142858Y-55880952D01*
X70571429Y-56452381D01*
X71190477Y-56452381D01*
X118702381Y-112988095D02*
X117702381Y-112988095D01*
X117702381Y-112607142D01*
X117750000Y-112511904D01*
X117797619Y-112464285D01*
X117892857Y-112416666D01*
X118035714Y-112416666D01*
X118130952Y-112464285D01*
X118178571Y-112511904D01*
X118226190Y-112607142D01*
X118226190Y-112988095D01*
X117797619Y-112035714D02*
X117750000Y-111988095D01*
X117702381Y-111892857D01*
X117702381Y-111654761D01*
X117750000Y-111559523D01*
X117797619Y-111511904D01*
X117892857Y-111464285D01*
X117988095Y-111464285D01*
X118130952Y-111511904D01*
X118702381Y-112083333D01*
X118702381Y-111464285D01*
X64904762Y-61047619D02*
X64809524Y-61000000D01*
X64714286Y-60904762D01*
X64571429Y-60761905D01*
X64476190Y-60714286D01*
X64380952Y-60714286D01*
X64428571Y-60952381D02*
X64333333Y-60904762D01*
X64238095Y-60809524D01*
X64190476Y-60619048D01*
X64190476Y-60285714D01*
X64238095Y-60095238D01*
X64333333Y-60000000D01*
X64428571Y-59952381D01*
X64619048Y-59952381D01*
X64714286Y-60000000D01*
X64809524Y-60095238D01*
X64857143Y-60285714D01*
X64857143Y-60619048D01*
X64809524Y-60809524D01*
X64714286Y-60904762D01*
X64619048Y-60952381D01*
X64428571Y-60952381D01*
X65809524Y-60952381D02*
X65238095Y-60952381D01*
X65523809Y-60952381D02*
X65523809Y-59952381D01*
X65428571Y-60095238D01*
X65333333Y-60190476D01*
X65238095Y-60238095D01*
X66852381Y-93416666D02*
X66376190Y-93750000D01*
X66852381Y-93988095D02*
X65852381Y-93988095D01*
X65852381Y-93607142D01*
X65900000Y-93511904D01*
X65947619Y-93464285D01*
X66042857Y-93416666D01*
X66185714Y-93416666D01*
X66280952Y-93464285D01*
X66328571Y-93511904D01*
X66376190Y-93607142D01*
X66376190Y-93988095D01*
X66852381Y-92464285D02*
X66852381Y-93035714D01*
X66852381Y-92750000D02*
X65852381Y-92750000D01*
X65995238Y-92845238D01*
X66090476Y-92940476D01*
X66138095Y-93035714D01*
X58583334Y-108452381D02*
X58250000Y-107976190D01*
X58011905Y-108452381D02*
X58011905Y-107452381D01*
X58392858Y-107452381D01*
X58488096Y-107500000D01*
X58535715Y-107547619D01*
X58583334Y-107642857D01*
X58583334Y-107785714D01*
X58535715Y-107880952D01*
X58488096Y-107928571D01*
X58392858Y-107976190D01*
X58011905Y-107976190D01*
X58964286Y-107547619D02*
X59011905Y-107500000D01*
X59107143Y-107452381D01*
X59345239Y-107452381D01*
X59440477Y-107500000D01*
X59488096Y-107547619D01*
X59535715Y-107642857D01*
X59535715Y-107738095D01*
X59488096Y-107880952D01*
X58916667Y-108452381D01*
X59535715Y-108452381D01*
X61952381Y-60666666D02*
X61476190Y-61000000D01*
X61952381Y-61238095D02*
X60952381Y-61238095D01*
X60952381Y-60857142D01*
X61000000Y-60761904D01*
X61047619Y-60714285D01*
X61142857Y-60666666D01*
X61285714Y-60666666D01*
X61380952Y-60714285D01*
X61428571Y-60761904D01*
X61476190Y-60857142D01*
X61476190Y-61238095D01*
X60952381Y-60333333D02*
X60952381Y-59714285D01*
X61333333Y-60047619D01*
X61333333Y-59904761D01*
X61380952Y-59809523D01*
X61428571Y-59761904D01*
X61523810Y-59714285D01*
X61761905Y-59714285D01*
X61857143Y-59761904D01*
X61904762Y-59809523D01*
X61952381Y-59904761D01*
X61952381Y-60190476D01*
X61904762Y-60285714D01*
X61857143Y-60333333D01*
X109202381Y-54416666D02*
X108726190Y-54750000D01*
X109202381Y-54988095D02*
X108202381Y-54988095D01*
X108202381Y-54607142D01*
X108250000Y-54511904D01*
X108297619Y-54464285D01*
X108392857Y-54416666D01*
X108535714Y-54416666D01*
X108630952Y-54464285D01*
X108678571Y-54511904D01*
X108726190Y-54607142D01*
X108726190Y-54988095D01*
X108535714Y-53559523D02*
X109202381Y-53559523D01*
X108154762Y-53797619D02*
X108869048Y-54035714D01*
X108869048Y-53416666D01*
X80333334Y-44702381D02*
X80000000Y-44226190D01*
X79761905Y-44702381D02*
X79761905Y-43702381D01*
X80142858Y-43702381D01*
X80238096Y-43750000D01*
X80285715Y-43797619D01*
X80333334Y-43892857D01*
X80333334Y-44035714D01*
X80285715Y-44130952D01*
X80238096Y-44178571D01*
X80142858Y-44226190D01*
X79761905Y-44226190D01*
X81238096Y-43702381D02*
X80761905Y-43702381D01*
X80714286Y-44178571D01*
X80761905Y-44130952D01*
X80857143Y-44083333D01*
X81095239Y-44083333D01*
X81190477Y-44130952D01*
X81238096Y-44178571D01*
X81285715Y-44273810D01*
X81285715Y-44511905D01*
X81238096Y-44607143D01*
X81190477Y-44654762D01*
X81095239Y-44702381D01*
X80857143Y-44702381D01*
X80761905Y-44654762D01*
X80714286Y-44607143D01*
X83333334Y-49202381D02*
X83000000Y-48726190D01*
X82761905Y-49202381D02*
X82761905Y-48202381D01*
X83142858Y-48202381D01*
X83238096Y-48250000D01*
X83285715Y-48297619D01*
X83333334Y-48392857D01*
X83333334Y-48535714D01*
X83285715Y-48630952D01*
X83238096Y-48678571D01*
X83142858Y-48726190D01*
X82761905Y-48726190D01*
X84190477Y-48202381D02*
X84000000Y-48202381D01*
X83904762Y-48250000D01*
X83857143Y-48297619D01*
X83761905Y-48440476D01*
X83714286Y-48630952D01*
X83714286Y-49011905D01*
X83761905Y-49107143D01*
X83809524Y-49154762D01*
X83904762Y-49202381D01*
X84095239Y-49202381D01*
X84190477Y-49154762D01*
X84238096Y-49107143D01*
X84285715Y-49011905D01*
X84285715Y-48773810D01*
X84238096Y-48678571D01*
X84190477Y-48630952D01*
X84095239Y-48583333D01*
X83904762Y-48583333D01*
X83809524Y-48630952D01*
X83761905Y-48678571D01*
X83714286Y-48773810D01*
X115202381Y-100166666D02*
X114726190Y-100500000D01*
X115202381Y-100738095D02*
X114202381Y-100738095D01*
X114202381Y-100357142D01*
X114250000Y-100261904D01*
X114297619Y-100214285D01*
X114392857Y-100166666D01*
X114535714Y-100166666D01*
X114630952Y-100214285D01*
X114678571Y-100261904D01*
X114726190Y-100357142D01*
X114726190Y-100738095D01*
X114202381Y-99833333D02*
X114202381Y-99166666D01*
X115202381Y-99595238D01*
X112452381Y-108416666D02*
X111976190Y-108750000D01*
X112452381Y-108988095D02*
X111452381Y-108988095D01*
X111452381Y-108607142D01*
X111500000Y-108511904D01*
X111547619Y-108464285D01*
X111642857Y-108416666D01*
X111785714Y-108416666D01*
X111880952Y-108464285D01*
X111928571Y-108511904D01*
X111976190Y-108607142D01*
X111976190Y-108988095D01*
X111880952Y-107845238D02*
X111833333Y-107940476D01*
X111785714Y-107988095D01*
X111690476Y-108035714D01*
X111642857Y-108035714D01*
X111547619Y-107988095D01*
X111500000Y-107940476D01*
X111452381Y-107845238D01*
X111452381Y-107654761D01*
X111500000Y-107559523D01*
X111547619Y-107511904D01*
X111642857Y-107464285D01*
X111690476Y-107464285D01*
X111785714Y-107511904D01*
X111833333Y-107559523D01*
X111880952Y-107654761D01*
X111880952Y-107845238D01*
X111928571Y-107940476D01*
X111976190Y-107988095D01*
X112071429Y-108035714D01*
X112261905Y-108035714D01*
X112357143Y-107988095D01*
X112404762Y-107940476D01*
X112452381Y-107845238D01*
X112452381Y-107654761D01*
X112404762Y-107559523D01*
X112357143Y-107511904D01*
X112261905Y-107464285D01*
X112071429Y-107464285D01*
X111976190Y-107511904D01*
X111928571Y-107559523D01*
X111880952Y-107654761D01*
X84333334Y-50952381D02*
X84000000Y-50476190D01*
X83761905Y-50952381D02*
X83761905Y-49952381D01*
X84142858Y-49952381D01*
X84238096Y-50000000D01*
X84285715Y-50047619D01*
X84333334Y-50142857D01*
X84333334Y-50285714D01*
X84285715Y-50380952D01*
X84238096Y-50428571D01*
X84142858Y-50476190D01*
X83761905Y-50476190D01*
X84809524Y-50952381D02*
X85000000Y-50952381D01*
X85095239Y-50904762D01*
X85142858Y-50857143D01*
X85238096Y-50714286D01*
X85285715Y-50523810D01*
X85285715Y-50142857D01*
X85238096Y-50047619D01*
X85190477Y-50000000D01*
X85095239Y-49952381D01*
X84904762Y-49952381D01*
X84809524Y-50000000D01*
X84761905Y-50047619D01*
X84714286Y-50142857D01*
X84714286Y-50380952D01*
X84761905Y-50476190D01*
X84809524Y-50523810D01*
X84904762Y-50571429D01*
X85095239Y-50571429D01*
X85190477Y-50523810D01*
X85238096Y-50476190D01*
X85285715Y-50380952D01*
X82107143Y-55452381D02*
X81773809Y-54976190D01*
X81535714Y-55452381D02*
X81535714Y-54452381D01*
X81916667Y-54452381D01*
X82011905Y-54500000D01*
X82059524Y-54547619D01*
X82107143Y-54642857D01*
X82107143Y-54785714D01*
X82059524Y-54880952D01*
X82011905Y-54928571D01*
X81916667Y-54976190D01*
X81535714Y-54976190D01*
X83059524Y-55452381D02*
X82488095Y-55452381D01*
X82773809Y-55452381D02*
X82773809Y-54452381D01*
X82678571Y-54595238D01*
X82583333Y-54690476D01*
X82488095Y-54738095D01*
X83678571Y-54452381D02*
X83773810Y-54452381D01*
X83869048Y-54500000D01*
X83916667Y-54547619D01*
X83964286Y-54642857D01*
X84011905Y-54833333D01*
X84011905Y-55071429D01*
X83964286Y-55261905D01*
X83916667Y-55357143D01*
X83869048Y-55404762D01*
X83773810Y-55452381D01*
X83678571Y-55452381D01*
X83583333Y-55404762D01*
X83535714Y-55357143D01*
X83488095Y-55261905D01*
X83440476Y-55071429D01*
X83440476Y-54833333D01*
X83488095Y-54642857D01*
X83535714Y-54547619D01*
X83583333Y-54500000D01*
X83678571Y-54452381D01*
X77357143Y-42702381D02*
X77023809Y-42226190D01*
X76785714Y-42702381D02*
X76785714Y-41702381D01*
X77166667Y-41702381D01*
X77261905Y-41750000D01*
X77309524Y-41797619D01*
X77357143Y-41892857D01*
X77357143Y-42035714D01*
X77309524Y-42130952D01*
X77261905Y-42178571D01*
X77166667Y-42226190D01*
X76785714Y-42226190D01*
X78309524Y-42702381D02*
X77738095Y-42702381D01*
X78023809Y-42702381D02*
X78023809Y-41702381D01*
X77928571Y-41845238D01*
X77833333Y-41940476D01*
X77738095Y-41988095D01*
X79261905Y-42702381D02*
X78690476Y-42702381D01*
X78976190Y-42702381D02*
X78976190Y-41702381D01*
X78880952Y-41845238D01*
X78785714Y-41940476D01*
X78690476Y-41988095D01*
X74857143Y-45202381D02*
X74523809Y-44726190D01*
X74285714Y-45202381D02*
X74285714Y-44202381D01*
X74666667Y-44202381D01*
X74761905Y-44250000D01*
X74809524Y-44297619D01*
X74857143Y-44392857D01*
X74857143Y-44535714D01*
X74809524Y-44630952D01*
X74761905Y-44678571D01*
X74666667Y-44726190D01*
X74285714Y-44726190D01*
X75809524Y-45202381D02*
X75238095Y-45202381D01*
X75523809Y-45202381D02*
X75523809Y-44202381D01*
X75428571Y-44345238D01*
X75333333Y-44440476D01*
X75238095Y-44488095D01*
X76190476Y-44297619D02*
X76238095Y-44250000D01*
X76333333Y-44202381D01*
X76571429Y-44202381D01*
X76666667Y-44250000D01*
X76714286Y-44297619D01*
X76761905Y-44392857D01*
X76761905Y-44488095D01*
X76714286Y-44630952D01*
X76142857Y-45202381D01*
X76761905Y-45202381D01*
X120952381Y-128142857D02*
X120476190Y-128476191D01*
X120952381Y-128714286D02*
X119952381Y-128714286D01*
X119952381Y-128333333D01*
X120000000Y-128238095D01*
X120047619Y-128190476D01*
X120142857Y-128142857D01*
X120285714Y-128142857D01*
X120380952Y-128190476D01*
X120428571Y-128238095D01*
X120476190Y-128333333D01*
X120476190Y-128714286D01*
X120952381Y-127190476D02*
X120952381Y-127761905D01*
X120952381Y-127476191D02*
X119952381Y-127476191D01*
X120095238Y-127571429D01*
X120190476Y-127666667D01*
X120238095Y-127761905D01*
X119952381Y-126857143D02*
X119952381Y-126238095D01*
X120333333Y-126571429D01*
X120333333Y-126428571D01*
X120380952Y-126333333D01*
X120428571Y-126285714D01*
X120523810Y-126238095D01*
X120761905Y-126238095D01*
X120857143Y-126285714D01*
X120904762Y-126333333D01*
X120952381Y-126428571D01*
X120952381Y-126714286D01*
X120904762Y-126809524D01*
X120857143Y-126857143D01*
X107602381Y-128642857D02*
X107126190Y-128976191D01*
X107602381Y-129214286D02*
X106602381Y-129214286D01*
X106602381Y-128833333D01*
X106650000Y-128738095D01*
X106697619Y-128690476D01*
X106792857Y-128642857D01*
X106935714Y-128642857D01*
X107030952Y-128690476D01*
X107078571Y-128738095D01*
X107126190Y-128833333D01*
X107126190Y-129214286D01*
X107602381Y-127690476D02*
X107602381Y-128261905D01*
X107602381Y-127976191D02*
X106602381Y-127976191D01*
X106745238Y-128071429D01*
X106840476Y-128166667D01*
X106888095Y-128261905D01*
X106935714Y-126833333D02*
X107602381Y-126833333D01*
X106554762Y-127071429D02*
X107269048Y-127309524D01*
X107269048Y-126690476D01*
X99857143Y-43452381D02*
X99523809Y-42976190D01*
X99285714Y-43452381D02*
X99285714Y-42452381D01*
X99666667Y-42452381D01*
X99761905Y-42500000D01*
X99809524Y-42547619D01*
X99857143Y-42642857D01*
X99857143Y-42785714D01*
X99809524Y-42880952D01*
X99761905Y-42928571D01*
X99666667Y-42976190D01*
X99285714Y-42976190D01*
X100809524Y-43452381D02*
X100238095Y-43452381D01*
X100523809Y-43452381D02*
X100523809Y-42452381D01*
X100428571Y-42595238D01*
X100333333Y-42690476D01*
X100238095Y-42738095D01*
X101714286Y-42452381D02*
X101238095Y-42452381D01*
X101190476Y-42928571D01*
X101238095Y-42880952D01*
X101333333Y-42833333D01*
X101571429Y-42833333D01*
X101666667Y-42880952D01*
X101714286Y-42928571D01*
X101761905Y-43023810D01*
X101761905Y-43261905D01*
X101714286Y-43357143D01*
X101666667Y-43404762D01*
X101571429Y-43452381D01*
X101333333Y-43452381D01*
X101238095Y-43404762D01*
X101190476Y-43357143D01*
X101607143Y-48702381D02*
X101273809Y-48226190D01*
X101035714Y-48702381D02*
X101035714Y-47702381D01*
X101416667Y-47702381D01*
X101511905Y-47750000D01*
X101559524Y-47797619D01*
X101607143Y-47892857D01*
X101607143Y-48035714D01*
X101559524Y-48130952D01*
X101511905Y-48178571D01*
X101416667Y-48226190D01*
X101035714Y-48226190D01*
X102559524Y-48702381D02*
X101988095Y-48702381D01*
X102273809Y-48702381D02*
X102273809Y-47702381D01*
X102178571Y-47845238D01*
X102083333Y-47940476D01*
X101988095Y-47988095D01*
X103416667Y-47702381D02*
X103226190Y-47702381D01*
X103130952Y-47750000D01*
X103083333Y-47797619D01*
X102988095Y-47940476D01*
X102940476Y-48130952D01*
X102940476Y-48511905D01*
X102988095Y-48607143D01*
X103035714Y-48654762D01*
X103130952Y-48702381D01*
X103321429Y-48702381D01*
X103416667Y-48654762D01*
X103464286Y-48607143D01*
X103511905Y-48511905D01*
X103511905Y-48273810D01*
X103464286Y-48178571D01*
X103416667Y-48130952D01*
X103321429Y-48083333D01*
X103130952Y-48083333D01*
X103035714Y-48130952D01*
X102988095Y-48178571D01*
X102940476Y-48273810D01*
X111607143Y-135702381D02*
X111273809Y-135226190D01*
X111035714Y-135702381D02*
X111035714Y-134702381D01*
X111416667Y-134702381D01*
X111511905Y-134750000D01*
X111559524Y-134797619D01*
X111607143Y-134892857D01*
X111607143Y-135035714D01*
X111559524Y-135130952D01*
X111511905Y-135178571D01*
X111416667Y-135226190D01*
X111035714Y-135226190D01*
X112559524Y-135702381D02*
X111988095Y-135702381D01*
X112273809Y-135702381D02*
X112273809Y-134702381D01*
X112178571Y-134845238D01*
X112083333Y-134940476D01*
X111988095Y-134988095D01*
X112892857Y-134702381D02*
X113559524Y-134702381D01*
X113130952Y-135702381D01*
X113857143Y-133202381D02*
X113523809Y-132726190D01*
X113285714Y-133202381D02*
X113285714Y-132202381D01*
X113666667Y-132202381D01*
X113761905Y-132250000D01*
X113809524Y-132297619D01*
X113857143Y-132392857D01*
X113857143Y-132535714D01*
X113809524Y-132630952D01*
X113761905Y-132678571D01*
X113666667Y-132726190D01*
X113285714Y-132726190D01*
X114809524Y-133202381D02*
X114238095Y-133202381D01*
X114523809Y-133202381D02*
X114523809Y-132202381D01*
X114428571Y-132345238D01*
X114333333Y-132440476D01*
X114238095Y-132488095D01*
X115380952Y-132630952D02*
X115285714Y-132583333D01*
X115238095Y-132535714D01*
X115190476Y-132440476D01*
X115190476Y-132392857D01*
X115238095Y-132297619D01*
X115285714Y-132250000D01*
X115380952Y-132202381D01*
X115571429Y-132202381D01*
X115666667Y-132250000D01*
X115714286Y-132297619D01*
X115761905Y-132392857D01*
X115761905Y-132440476D01*
X115714286Y-132535714D01*
X115666667Y-132583333D01*
X115571429Y-132630952D01*
X115380952Y-132630952D01*
X115285714Y-132678571D01*
X115238095Y-132726190D01*
X115190476Y-132821429D01*
X115190476Y-133011905D01*
X115238095Y-133107143D01*
X115285714Y-133154762D01*
X115380952Y-133202381D01*
X115571429Y-133202381D01*
X115666667Y-133154762D01*
X115714286Y-133107143D01*
X115761905Y-133011905D01*
X115761905Y-132821429D01*
X115714286Y-132726190D01*
X115666667Y-132678571D01*
X115571429Y-132630952D01*
X57702381Y-69642857D02*
X57226190Y-69976191D01*
X57702381Y-70214286D02*
X56702381Y-70214286D01*
X56702381Y-69833333D01*
X56750000Y-69738095D01*
X56797619Y-69690476D01*
X56892857Y-69642857D01*
X57035714Y-69642857D01*
X57130952Y-69690476D01*
X57178571Y-69738095D01*
X57226190Y-69833333D01*
X57226190Y-70214286D01*
X57702381Y-68690476D02*
X57702381Y-69261905D01*
X57702381Y-68976191D02*
X56702381Y-68976191D01*
X56845238Y-69071429D01*
X56940476Y-69166667D01*
X56988095Y-69261905D01*
X57702381Y-68214286D02*
X57702381Y-68023810D01*
X57654762Y-67928571D01*
X57607143Y-67880952D01*
X57464286Y-67785714D01*
X57273810Y-67738095D01*
X56892857Y-67738095D01*
X56797619Y-67785714D01*
X56750000Y-67833333D01*
X56702381Y-67928571D01*
X56702381Y-68119048D01*
X56750000Y-68214286D01*
X56797619Y-68261905D01*
X56892857Y-68309524D01*
X57130952Y-68309524D01*
X57226190Y-68261905D01*
X57273810Y-68214286D01*
X57321429Y-68119048D01*
X57321429Y-67928571D01*
X57273810Y-67833333D01*
X57226190Y-67785714D01*
X57130952Y-67738095D01*
X102102381Y-46392857D02*
X101626190Y-46726191D01*
X102102381Y-46964286D02*
X101102381Y-46964286D01*
X101102381Y-46583333D01*
X101150000Y-46488095D01*
X101197619Y-46440476D01*
X101292857Y-46392857D01*
X101435714Y-46392857D01*
X101530952Y-46440476D01*
X101578571Y-46488095D01*
X101626190Y-46583333D01*
X101626190Y-46964286D01*
X101197619Y-46011905D02*
X101150000Y-45964286D01*
X101102381Y-45869048D01*
X101102381Y-45630952D01*
X101150000Y-45535714D01*
X101197619Y-45488095D01*
X101292857Y-45440476D01*
X101388095Y-45440476D01*
X101530952Y-45488095D01*
X102102381Y-46059524D01*
X102102381Y-45440476D01*
X101102381Y-44821429D02*
X101102381Y-44726190D01*
X101150000Y-44630952D01*
X101197619Y-44583333D01*
X101292857Y-44535714D01*
X101483333Y-44488095D01*
X101721429Y-44488095D01*
X101911905Y-44535714D01*
X102007143Y-44583333D01*
X102054762Y-44630952D01*
X102102381Y-44726190D01*
X102102381Y-44821429D01*
X102054762Y-44916667D01*
X102007143Y-44964286D01*
X101911905Y-45011905D01*
X101721429Y-45059524D01*
X101483333Y-45059524D01*
X101292857Y-45011905D01*
X101197619Y-44964286D01*
X101150000Y-44916667D01*
X101102381Y-44821429D01*
X106702381Y-53392857D02*
X106226190Y-53726191D01*
X106702381Y-53964286D02*
X105702381Y-53964286D01*
X105702381Y-53583333D01*
X105750000Y-53488095D01*
X105797619Y-53440476D01*
X105892857Y-53392857D01*
X106035714Y-53392857D01*
X106130952Y-53440476D01*
X106178571Y-53488095D01*
X106226190Y-53583333D01*
X106226190Y-53964286D01*
X105797619Y-53011905D02*
X105750000Y-52964286D01*
X105702381Y-52869048D01*
X105702381Y-52630952D01*
X105750000Y-52535714D01*
X105797619Y-52488095D01*
X105892857Y-52440476D01*
X105988095Y-52440476D01*
X106130952Y-52488095D01*
X106702381Y-53059524D01*
X106702381Y-52440476D01*
X106702381Y-51488095D02*
X106702381Y-52059524D01*
X106702381Y-51773810D02*
X105702381Y-51773810D01*
X105845238Y-51869048D01*
X105940476Y-51964286D01*
X105988095Y-52059524D01*
X138607143Y-116452381D02*
X138273809Y-115976190D01*
X138035714Y-116452381D02*
X138035714Y-115452381D01*
X138416667Y-115452381D01*
X138511905Y-115500000D01*
X138559524Y-115547619D01*
X138607143Y-115642857D01*
X138607143Y-115785714D01*
X138559524Y-115880952D01*
X138511905Y-115928571D01*
X138416667Y-115976190D01*
X138035714Y-115976190D01*
X138988095Y-115547619D02*
X139035714Y-115500000D01*
X139130952Y-115452381D01*
X139369048Y-115452381D01*
X139464286Y-115500000D01*
X139511905Y-115547619D01*
X139559524Y-115642857D01*
X139559524Y-115738095D01*
X139511905Y-115880952D01*
X138940476Y-116452381D01*
X139559524Y-116452381D01*
X139940476Y-115547619D02*
X139988095Y-115500000D01*
X140083333Y-115452381D01*
X140321429Y-115452381D01*
X140416667Y-115500000D01*
X140464286Y-115547619D01*
X140511905Y-115642857D01*
X140511905Y-115738095D01*
X140464286Y-115880952D01*
X139892857Y-116452381D01*
X140511905Y-116452381D01*
X134607143Y-112702381D02*
X134273809Y-112226190D01*
X134035714Y-112702381D02*
X134035714Y-111702381D01*
X134416667Y-111702381D01*
X134511905Y-111750000D01*
X134559524Y-111797619D01*
X134607143Y-111892857D01*
X134607143Y-112035714D01*
X134559524Y-112130952D01*
X134511905Y-112178571D01*
X134416667Y-112226190D01*
X134035714Y-112226190D01*
X134988095Y-111797619D02*
X135035714Y-111750000D01*
X135130952Y-111702381D01*
X135369048Y-111702381D01*
X135464286Y-111750000D01*
X135511905Y-111797619D01*
X135559524Y-111892857D01*
X135559524Y-111988095D01*
X135511905Y-112130952D01*
X134940476Y-112702381D01*
X135559524Y-112702381D01*
X135892857Y-111702381D02*
X136511905Y-111702381D01*
X136178571Y-112083333D01*
X136321429Y-112083333D01*
X136416667Y-112130952D01*
X136464286Y-112178571D01*
X136511905Y-112273810D01*
X136511905Y-112511905D01*
X136464286Y-112607143D01*
X136416667Y-112654762D01*
X136321429Y-112702381D01*
X136035714Y-112702381D01*
X135940476Y-112654762D01*
X135892857Y-112607143D01*
X130357143Y-111702381D02*
X130023809Y-111226190D01*
X129785714Y-111702381D02*
X129785714Y-110702381D01*
X130166667Y-110702381D01*
X130261905Y-110750000D01*
X130309524Y-110797619D01*
X130357143Y-110892857D01*
X130357143Y-111035714D01*
X130309524Y-111130952D01*
X130261905Y-111178571D01*
X130166667Y-111226190D01*
X129785714Y-111226190D01*
X130738095Y-110797619D02*
X130785714Y-110750000D01*
X130880952Y-110702381D01*
X131119048Y-110702381D01*
X131214286Y-110750000D01*
X131261905Y-110797619D01*
X131309524Y-110892857D01*
X131309524Y-110988095D01*
X131261905Y-111130952D01*
X130690476Y-111702381D01*
X131309524Y-111702381D01*
X132166667Y-111035714D02*
X132166667Y-111702381D01*
X131928571Y-110654762D02*
X131690476Y-111369048D01*
X132309524Y-111369048D01*
X126357143Y-112552381D02*
X126023809Y-112076190D01*
X125785714Y-112552381D02*
X125785714Y-111552381D01*
X126166667Y-111552381D01*
X126261905Y-111600000D01*
X126309524Y-111647619D01*
X126357143Y-111742857D01*
X126357143Y-111885714D01*
X126309524Y-111980952D01*
X126261905Y-112028571D01*
X126166667Y-112076190D01*
X125785714Y-112076190D01*
X126738095Y-111647619D02*
X126785714Y-111600000D01*
X126880952Y-111552381D01*
X127119048Y-111552381D01*
X127214286Y-111600000D01*
X127261905Y-111647619D01*
X127309524Y-111742857D01*
X127309524Y-111838095D01*
X127261905Y-111980952D01*
X126690476Y-112552381D01*
X127309524Y-112552381D01*
X128214286Y-111552381D02*
X127738095Y-111552381D01*
X127690476Y-112028571D01*
X127738095Y-111980952D01*
X127833333Y-111933333D01*
X128071429Y-111933333D01*
X128166667Y-111980952D01*
X128214286Y-112028571D01*
X128261905Y-112123810D01*
X128261905Y-112361905D01*
X128214286Y-112457143D01*
X128166667Y-112504762D01*
X128071429Y-112552381D01*
X127833333Y-112552381D01*
X127738095Y-112504762D01*
X127690476Y-112457143D01*
X91202381Y-115642857D02*
X90726190Y-115976191D01*
X91202381Y-116214286D02*
X90202381Y-116214286D01*
X90202381Y-115833333D01*
X90250000Y-115738095D01*
X90297619Y-115690476D01*
X90392857Y-115642857D01*
X90535714Y-115642857D01*
X90630952Y-115690476D01*
X90678571Y-115738095D01*
X90726190Y-115833333D01*
X90726190Y-116214286D01*
X90297619Y-115261905D02*
X90250000Y-115214286D01*
X90202381Y-115119048D01*
X90202381Y-114880952D01*
X90250000Y-114785714D01*
X90297619Y-114738095D01*
X90392857Y-114690476D01*
X90488095Y-114690476D01*
X90630952Y-114738095D01*
X91202381Y-115309524D01*
X91202381Y-114690476D01*
X90202381Y-113833333D02*
X90202381Y-114023810D01*
X90250000Y-114119048D01*
X90297619Y-114166667D01*
X90440476Y-114261905D01*
X90630952Y-114309524D01*
X91011905Y-114309524D01*
X91107143Y-114261905D01*
X91154762Y-114214286D01*
X91202381Y-114119048D01*
X91202381Y-113928571D01*
X91154762Y-113833333D01*
X91107143Y-113785714D01*
X91011905Y-113738095D01*
X90773810Y-113738095D01*
X90678571Y-113785714D01*
X90630952Y-113833333D01*
X90583333Y-113928571D01*
X90583333Y-114119048D01*
X90630952Y-114214286D01*
X90678571Y-114261905D01*
X90773810Y-114309524D01*
X80952381Y-133642857D02*
X80476190Y-133976191D01*
X80952381Y-134214286D02*
X79952381Y-134214286D01*
X79952381Y-133833333D01*
X80000000Y-133738095D01*
X80047619Y-133690476D01*
X80142857Y-133642857D01*
X80285714Y-133642857D01*
X80380952Y-133690476D01*
X80428571Y-133738095D01*
X80476190Y-133833333D01*
X80476190Y-134214286D01*
X80047619Y-133261905D02*
X80000000Y-133214286D01*
X79952381Y-133119048D01*
X79952381Y-132880952D01*
X80000000Y-132785714D01*
X80047619Y-132738095D01*
X80142857Y-132690476D01*
X80238095Y-132690476D01*
X80380952Y-132738095D01*
X80952381Y-133309524D01*
X80952381Y-132690476D01*
X79952381Y-132357143D02*
X79952381Y-131690476D01*
X80952381Y-132119048D01*
X61157143Y-118452381D02*
X60823809Y-117976190D01*
X60585714Y-118452381D02*
X60585714Y-117452381D01*
X60966667Y-117452381D01*
X61061905Y-117500000D01*
X61109524Y-117547619D01*
X61157143Y-117642857D01*
X61157143Y-117785714D01*
X61109524Y-117880952D01*
X61061905Y-117928571D01*
X60966667Y-117976190D01*
X60585714Y-117976190D01*
X61538095Y-117547619D02*
X61585714Y-117500000D01*
X61680952Y-117452381D01*
X61919048Y-117452381D01*
X62014286Y-117500000D01*
X62061905Y-117547619D01*
X62109524Y-117642857D01*
X62109524Y-117738095D01*
X62061905Y-117880952D01*
X61490476Y-118452381D01*
X62109524Y-118452381D01*
X62585714Y-118452381D02*
X62776190Y-118452381D01*
X62871429Y-118404762D01*
X62919048Y-118357143D01*
X63014286Y-118214286D01*
X63061905Y-118023810D01*
X63061905Y-117642857D01*
X63014286Y-117547619D01*
X62966667Y-117500000D01*
X62871429Y-117452381D01*
X62680952Y-117452381D01*
X62585714Y-117500000D01*
X62538095Y-117547619D01*
X62490476Y-117642857D01*
X62490476Y-117880952D01*
X62538095Y-117976190D01*
X62585714Y-118023810D01*
X62680952Y-118071429D01*
X62871429Y-118071429D01*
X62966667Y-118023810D01*
X63014286Y-117976190D01*
X63061905Y-117880952D01*
X85107143Y-136602381D02*
X84773809Y-136126190D01*
X84535714Y-136602381D02*
X84535714Y-135602381D01*
X84916667Y-135602381D01*
X85011905Y-135650000D01*
X85059524Y-135697619D01*
X85107143Y-135792857D01*
X85107143Y-135935714D01*
X85059524Y-136030952D01*
X85011905Y-136078571D01*
X84916667Y-136126190D01*
X84535714Y-136126190D01*
X85440476Y-135602381D02*
X86059524Y-135602381D01*
X85726190Y-135983333D01*
X85869048Y-135983333D01*
X85964286Y-136030952D01*
X86011905Y-136078571D01*
X86059524Y-136173810D01*
X86059524Y-136411905D01*
X86011905Y-136507143D01*
X85964286Y-136554762D01*
X85869048Y-136602381D01*
X85583333Y-136602381D01*
X85488095Y-136554762D01*
X85440476Y-136507143D01*
X86678571Y-135602381D02*
X86773810Y-135602381D01*
X86869048Y-135650000D01*
X86916667Y-135697619D01*
X86964286Y-135792857D01*
X87011905Y-135983333D01*
X87011905Y-136221429D01*
X86964286Y-136411905D01*
X86916667Y-136507143D01*
X86869048Y-136554762D01*
X86773810Y-136602381D01*
X86678571Y-136602381D01*
X86583333Y-136554762D01*
X86535714Y-136507143D01*
X86488095Y-136411905D01*
X86440476Y-136221429D01*
X86440476Y-135983333D01*
X86488095Y-135792857D01*
X86535714Y-135697619D01*
X86583333Y-135650000D01*
X86678571Y-135602381D01*
X106952381Y-61595238D02*
X106476190Y-61928572D01*
X106952381Y-62166667D02*
X105952381Y-62166667D01*
X105952381Y-61785714D01*
X106000000Y-61690476D01*
X106047619Y-61642857D01*
X106142857Y-61595238D01*
X106285714Y-61595238D01*
X106380952Y-61642857D01*
X106428571Y-61690476D01*
X106476190Y-61785714D01*
X106476190Y-62166667D01*
X105952381Y-61309524D02*
X106952381Y-60976191D01*
X105952381Y-60642857D01*
X106952381Y-59785714D02*
X106952381Y-60357143D01*
X106952381Y-60071429D02*
X105952381Y-60071429D01*
X106095238Y-60166667D01*
X106190476Y-60261905D01*
X106238095Y-60357143D01*
X59904762Y-78333333D02*
X59952381Y-78190476D01*
X59952381Y-77952380D01*
X59904762Y-77857142D01*
X59857143Y-77809523D01*
X59761905Y-77761904D01*
X59666667Y-77761904D01*
X59571429Y-77809523D01*
X59523810Y-77857142D01*
X59476190Y-77952380D01*
X59428571Y-78142857D01*
X59380952Y-78238095D01*
X59333333Y-78285714D01*
X59238095Y-78333333D01*
X59142857Y-78333333D01*
X59047619Y-78285714D01*
X59000000Y-78238095D01*
X58952381Y-78142857D01*
X58952381Y-77904761D01*
X59000000Y-77761904D01*
X58952381Y-77428571D02*
X59952381Y-77190476D01*
X59238095Y-76999999D01*
X59952381Y-76809523D01*
X58952381Y-76571428D01*
X59952381Y-75666666D02*
X59952381Y-76238095D01*
X59952381Y-75952381D02*
X58952381Y-75952381D01*
X59095238Y-76047619D01*
X59190476Y-76142857D01*
X59238095Y-76238095D01*
X125738095Y-59452381D02*
X126309524Y-59452381D01*
X126023809Y-60452381D02*
X126023809Y-59452381D01*
X126642857Y-60452381D02*
X126642857Y-59452381D01*
X127023810Y-59452381D01*
X127119048Y-59500000D01*
X127166667Y-59547619D01*
X127214286Y-59642857D01*
X127214286Y-59785714D01*
X127166667Y-59880952D01*
X127119048Y-59928571D01*
X127023810Y-59976190D01*
X126642857Y-59976190D01*
X128166667Y-60452381D02*
X127595238Y-60452381D01*
X127880952Y-60452381D02*
X127880952Y-59452381D01*
X127785714Y-59595238D01*
X127690476Y-59690476D01*
X127595238Y-59738095D01*
X125738095Y-49452381D02*
X126309524Y-49452381D01*
X126023809Y-50452381D02*
X126023809Y-49452381D01*
X126642857Y-50452381D02*
X126642857Y-49452381D01*
X127023810Y-49452381D01*
X127119048Y-49500000D01*
X127166667Y-49547619D01*
X127214286Y-49642857D01*
X127214286Y-49785714D01*
X127166667Y-49880952D01*
X127119048Y-49928571D01*
X127023810Y-49976190D01*
X126642857Y-49976190D01*
X127595238Y-49547619D02*
X127642857Y-49500000D01*
X127738095Y-49452381D01*
X127976191Y-49452381D01*
X128071429Y-49500000D01*
X128119048Y-49547619D01*
X128166667Y-49642857D01*
X128166667Y-49738095D01*
X128119048Y-49880952D01*
X127547619Y-50452381D01*
X128166667Y-50452381D01*
X125738095Y-40952381D02*
X126309524Y-40952381D01*
X126023809Y-41952381D02*
X126023809Y-40952381D01*
X126642857Y-41952381D02*
X126642857Y-40952381D01*
X127023810Y-40952381D01*
X127119048Y-41000000D01*
X127166667Y-41047619D01*
X127214286Y-41142857D01*
X127214286Y-41285714D01*
X127166667Y-41380952D01*
X127119048Y-41428571D01*
X127023810Y-41476190D01*
X126642857Y-41476190D01*
X127547619Y-40952381D02*
X128166667Y-40952381D01*
X127833333Y-41333333D01*
X127976191Y-41333333D01*
X128071429Y-41380952D01*
X128119048Y-41428571D01*
X128166667Y-41523810D01*
X128166667Y-41761905D01*
X128119048Y-41857143D01*
X128071429Y-41904762D01*
X127976191Y-41952381D01*
X127690476Y-41952381D01*
X127595238Y-41904762D01*
X127547619Y-41857143D01*
X125738095Y-56152381D02*
X126309524Y-56152381D01*
X126023809Y-57152381D02*
X126023809Y-56152381D01*
X126642857Y-57152381D02*
X126642857Y-56152381D01*
X127023810Y-56152381D01*
X127119048Y-56200000D01*
X127166667Y-56247619D01*
X127214286Y-56342857D01*
X127214286Y-56485714D01*
X127166667Y-56580952D01*
X127119048Y-56628571D01*
X127023810Y-56676190D01*
X126642857Y-56676190D01*
X128071429Y-56485714D02*
X128071429Y-57152381D01*
X127833333Y-56104762D02*
X127595238Y-56819048D01*
X128214286Y-56819048D01*
X125738095Y-45952381D02*
X126309524Y-45952381D01*
X126023809Y-46952381D02*
X126023809Y-45952381D01*
X126642857Y-46952381D02*
X126642857Y-45952381D01*
X127023810Y-45952381D01*
X127119048Y-46000000D01*
X127166667Y-46047619D01*
X127214286Y-46142857D01*
X127214286Y-46285714D01*
X127166667Y-46380952D01*
X127119048Y-46428571D01*
X127023810Y-46476190D01*
X126642857Y-46476190D01*
X128119048Y-45952381D02*
X127642857Y-45952381D01*
X127595238Y-46428571D01*
X127642857Y-46380952D01*
X127738095Y-46333333D01*
X127976191Y-46333333D01*
X128071429Y-46380952D01*
X128119048Y-46428571D01*
X128166667Y-46523810D01*
X128166667Y-46761905D01*
X128119048Y-46857143D01*
X128071429Y-46904762D01*
X127976191Y-46952381D01*
X127738095Y-46952381D01*
X127642857Y-46904762D01*
X127595238Y-46857143D01*
X125738095Y-52952381D02*
X126309524Y-52952381D01*
X126023809Y-53952381D02*
X126023809Y-52952381D01*
X126642857Y-53952381D02*
X126642857Y-52952381D01*
X127023810Y-52952381D01*
X127119048Y-53000000D01*
X127166667Y-53047619D01*
X127214286Y-53142857D01*
X127214286Y-53285714D01*
X127166667Y-53380952D01*
X127119048Y-53428571D01*
X127023810Y-53476190D01*
X126642857Y-53476190D01*
X128071429Y-52952381D02*
X127880952Y-52952381D01*
X127785714Y-53000000D01*
X127738095Y-53047619D01*
X127642857Y-53190476D01*
X127595238Y-53380952D01*
X127595238Y-53761905D01*
X127642857Y-53857143D01*
X127690476Y-53904762D01*
X127785714Y-53952381D01*
X127976191Y-53952381D01*
X128071429Y-53904762D01*
X128119048Y-53857143D01*
X128166667Y-53761905D01*
X128166667Y-53523810D01*
X128119048Y-53428571D01*
X128071429Y-53380952D01*
X127976191Y-53333333D01*
X127785714Y-53333333D01*
X127690476Y-53380952D01*
X127642857Y-53428571D01*
X127595238Y-53523810D01*
X65252381Y-90211905D02*
X66061905Y-90211905D01*
X66157143Y-90164286D01*
X66204762Y-90116667D01*
X66252381Y-90021429D01*
X66252381Y-89830952D01*
X66204762Y-89735714D01*
X66157143Y-89688095D01*
X66061905Y-89640476D01*
X65252381Y-89640476D01*
X66252381Y-88640476D02*
X66252381Y-89211905D01*
X66252381Y-88926191D02*
X65252381Y-88926191D01*
X65395238Y-89021429D01*
X65490476Y-89116667D01*
X65538095Y-89211905D01*
D14*
X115757857Y-78914286D02*
X116729286Y-78914286D01*
X116843571Y-78857143D01*
X116900714Y-78800000D01*
X116957857Y-78685714D01*
X116957857Y-78457143D01*
X116900714Y-78342857D01*
X116843571Y-78285714D01*
X116729286Y-78228571D01*
X115757857Y-78228571D01*
X115872143Y-77714286D02*
X115815000Y-77657143D01*
X115757857Y-77542857D01*
X115757857Y-77257143D01*
X115815000Y-77142857D01*
X115872143Y-77085714D01*
X115986429Y-77028571D01*
X116100714Y-77028571D01*
X116272143Y-77085714D01*
X116957857Y-77771428D01*
X116957857Y-77028571D01*
D11*
X109238095Y-92952381D02*
X109238095Y-93761905D01*
X109285714Y-93857143D01*
X109333333Y-93904762D01*
X109428571Y-93952381D01*
X109619048Y-93952381D01*
X109714286Y-93904762D01*
X109761905Y-93857143D01*
X109809524Y-93761905D01*
X109809524Y-92952381D01*
X110190476Y-92952381D02*
X110809524Y-92952381D01*
X110476190Y-93333333D01*
X110619048Y-93333333D01*
X110714286Y-93380952D01*
X110761905Y-93428571D01*
X110809524Y-93523810D01*
X110809524Y-93761905D01*
X110761905Y-93857143D01*
X110714286Y-93904762D01*
X110619048Y-93952381D01*
X110333333Y-93952381D01*
X110238095Y-93904762D01*
X110190476Y-93857143D01*
D14*
X74342857Y-47664286D02*
X75314286Y-47664286D01*
X75428571Y-47607143D01*
X75485714Y-47550000D01*
X75542857Y-47435714D01*
X75542857Y-47207143D01*
X75485714Y-47092857D01*
X75428571Y-47035714D01*
X75314286Y-46978571D01*
X74342857Y-46978571D01*
X74342857Y-45835714D02*
X74342857Y-46407143D01*
X74914286Y-46464286D01*
X74857143Y-46407143D01*
X74800000Y-46292857D01*
X74800000Y-46007143D01*
X74857143Y-45892857D01*
X74914286Y-45835714D01*
X75028571Y-45778571D01*
X75314286Y-45778571D01*
X75428571Y-45835714D01*
X75485714Y-45892857D01*
X75542857Y-46007143D01*
X75542857Y-46292857D01*
X75485714Y-46407143D01*
X75428571Y-46464286D01*
X93835714Y-47092857D02*
X93835714Y-48064286D01*
X93892857Y-48178571D01*
X93950000Y-48235714D01*
X94064286Y-48292857D01*
X94292857Y-48292857D01*
X94407143Y-48235714D01*
X94464286Y-48178571D01*
X94521429Y-48064286D01*
X94521429Y-47092857D01*
X94978572Y-47092857D02*
X95778572Y-47092857D01*
X95264286Y-48292857D01*
X98335714Y-54092857D02*
X98335714Y-55064286D01*
X98392857Y-55178571D01*
X98450000Y-55235714D01*
X98564286Y-55292857D01*
X98792857Y-55292857D01*
X98907143Y-55235714D01*
X98964286Y-55178571D01*
X99021429Y-55064286D01*
X99021429Y-54092857D01*
X99764286Y-54607143D02*
X99650000Y-54550000D01*
X99592857Y-54492857D01*
X99535714Y-54378571D01*
X99535714Y-54321429D01*
X99592857Y-54207143D01*
X99650000Y-54150000D01*
X99764286Y-54092857D01*
X99992857Y-54092857D01*
X100107143Y-54150000D01*
X100164286Y-54207143D01*
X100221429Y-54321429D01*
X100221429Y-54378571D01*
X100164286Y-54492857D01*
X100107143Y-54550000D01*
X99992857Y-54607143D01*
X99764286Y-54607143D01*
X99650000Y-54664286D01*
X99592857Y-54721429D01*
X99535714Y-54835714D01*
X99535714Y-55064286D01*
X99592857Y-55178571D01*
X99650000Y-55235714D01*
X99764286Y-55292857D01*
X99992857Y-55292857D01*
X100107143Y-55235714D01*
X100164286Y-55178571D01*
X100221429Y-55064286D01*
X100221429Y-54835714D01*
X100164286Y-54721429D01*
X100107143Y-54664286D01*
X99992857Y-54607143D01*
D11*
X74802381Y-90642857D02*
X74326190Y-90976191D01*
X74802381Y-91214286D02*
X73802381Y-91214286D01*
X73802381Y-90833333D01*
X73850000Y-90738095D01*
X73897619Y-90690476D01*
X73992857Y-90642857D01*
X74135714Y-90642857D01*
X74230952Y-90690476D01*
X74278571Y-90738095D01*
X74326190Y-90833333D01*
X74326190Y-91214286D01*
X73802381Y-90309524D02*
X73802381Y-89690476D01*
X74183333Y-90023810D01*
X74183333Y-89880952D01*
X74230952Y-89785714D01*
X74278571Y-89738095D01*
X74373810Y-89690476D01*
X74611905Y-89690476D01*
X74707143Y-89738095D01*
X74754762Y-89785714D01*
X74802381Y-89880952D01*
X74802381Y-90166667D01*
X74754762Y-90261905D01*
X74707143Y-90309524D01*
X74802381Y-88738095D02*
X74802381Y-89309524D01*
X74802381Y-89023810D02*
X73802381Y-89023810D01*
X73945238Y-89119048D01*
X74040476Y-89214286D01*
X74088095Y-89309524D01*
X82607143Y-93702381D02*
X82273809Y-93226190D01*
X82035714Y-93702381D02*
X82035714Y-92702381D01*
X82416667Y-92702381D01*
X82511905Y-92750000D01*
X82559524Y-92797619D01*
X82607143Y-92892857D01*
X82607143Y-93035714D01*
X82559524Y-93130952D01*
X82511905Y-93178571D01*
X82416667Y-93226190D01*
X82035714Y-93226190D01*
X82940476Y-92702381D02*
X83559524Y-92702381D01*
X83226190Y-93083333D01*
X83369048Y-93083333D01*
X83464286Y-93130952D01*
X83511905Y-93178571D01*
X83559524Y-93273810D01*
X83559524Y-93511905D01*
X83511905Y-93607143D01*
X83464286Y-93654762D01*
X83369048Y-93702381D01*
X83083333Y-93702381D01*
X82988095Y-93654762D01*
X82940476Y-93607143D01*
X83940476Y-92797619D02*
X83988095Y-92750000D01*
X84083333Y-92702381D01*
X84321429Y-92702381D01*
X84416667Y-92750000D01*
X84464286Y-92797619D01*
X84511905Y-92892857D01*
X84511905Y-92988095D01*
X84464286Y-93130952D01*
X83892857Y-93702381D01*
X84511905Y-93702381D01*
X82607143Y-86552381D02*
X82273809Y-86076190D01*
X82035714Y-86552381D02*
X82035714Y-85552381D01*
X82416667Y-85552381D01*
X82511905Y-85600000D01*
X82559524Y-85647619D01*
X82607143Y-85742857D01*
X82607143Y-85885714D01*
X82559524Y-85980952D01*
X82511905Y-86028571D01*
X82416667Y-86076190D01*
X82035714Y-86076190D01*
X82940476Y-85552381D02*
X83559524Y-85552381D01*
X83226190Y-85933333D01*
X83369048Y-85933333D01*
X83464286Y-85980952D01*
X83511905Y-86028571D01*
X83559524Y-86123810D01*
X83559524Y-86361905D01*
X83511905Y-86457143D01*
X83464286Y-86504762D01*
X83369048Y-86552381D01*
X83083333Y-86552381D01*
X82988095Y-86504762D01*
X82940476Y-86457143D01*
X83892857Y-85552381D02*
X84511905Y-85552381D01*
X84178571Y-85933333D01*
X84321429Y-85933333D01*
X84416667Y-85980952D01*
X84464286Y-86028571D01*
X84511905Y-86123810D01*
X84511905Y-86361905D01*
X84464286Y-86457143D01*
X84416667Y-86504762D01*
X84321429Y-86552381D01*
X84035714Y-86552381D01*
X83940476Y-86504762D01*
X83892857Y-86457143D01*
X86107143Y-92952381D02*
X85773809Y-92476190D01*
X85535714Y-92952381D02*
X85535714Y-91952381D01*
X85916667Y-91952381D01*
X86011905Y-92000000D01*
X86059524Y-92047619D01*
X86107143Y-92142857D01*
X86107143Y-92285714D01*
X86059524Y-92380952D01*
X86011905Y-92428571D01*
X85916667Y-92476190D01*
X85535714Y-92476190D01*
X86440476Y-91952381D02*
X87059524Y-91952381D01*
X86726190Y-92333333D01*
X86869048Y-92333333D01*
X86964286Y-92380952D01*
X87011905Y-92428571D01*
X87059524Y-92523810D01*
X87059524Y-92761905D01*
X87011905Y-92857143D01*
X86964286Y-92904762D01*
X86869048Y-92952381D01*
X86583333Y-92952381D01*
X86488095Y-92904762D01*
X86440476Y-92857143D01*
X87916667Y-92285714D02*
X87916667Y-92952381D01*
X87678571Y-91904762D02*
X87440476Y-92619048D01*
X88059524Y-92619048D01*
X57702381Y-63642857D02*
X57226190Y-63976191D01*
X57702381Y-64214286D02*
X56702381Y-64214286D01*
X56702381Y-63833333D01*
X56750000Y-63738095D01*
X56797619Y-63690476D01*
X56892857Y-63642857D01*
X57035714Y-63642857D01*
X57130952Y-63690476D01*
X57178571Y-63738095D01*
X57226190Y-63833333D01*
X57226190Y-64214286D01*
X56702381Y-63309524D02*
X56702381Y-62690476D01*
X57083333Y-63023810D01*
X57083333Y-62880952D01*
X57130952Y-62785714D01*
X57178571Y-62738095D01*
X57273810Y-62690476D01*
X57511905Y-62690476D01*
X57607143Y-62738095D01*
X57654762Y-62785714D01*
X57702381Y-62880952D01*
X57702381Y-63166667D01*
X57654762Y-63261905D01*
X57607143Y-63309524D01*
X56702381Y-61785714D02*
X56702381Y-62261905D01*
X57178571Y-62309524D01*
X57130952Y-62261905D01*
X57083333Y-62166667D01*
X57083333Y-61928571D01*
X57130952Y-61833333D01*
X57178571Y-61785714D01*
X57273810Y-61738095D01*
X57511905Y-61738095D01*
X57607143Y-61785714D01*
X57654762Y-61833333D01*
X57702381Y-61928571D01*
X57702381Y-62166667D01*
X57654762Y-62261905D01*
X57607143Y-62309524D01*
X59904762Y-56333333D02*
X59952381Y-56190476D01*
X59952381Y-55952380D01*
X59904762Y-55857142D01*
X59857143Y-55809523D01*
X59761905Y-55761904D01*
X59666667Y-55761904D01*
X59571429Y-55809523D01*
X59523810Y-55857142D01*
X59476190Y-55952380D01*
X59428571Y-56142857D01*
X59380952Y-56238095D01*
X59333333Y-56285714D01*
X59238095Y-56333333D01*
X59142857Y-56333333D01*
X59047619Y-56285714D01*
X59000000Y-56238095D01*
X58952381Y-56142857D01*
X58952381Y-55904761D01*
X59000000Y-55761904D01*
X58952381Y-55428571D02*
X59952381Y-55190476D01*
X59238095Y-54999999D01*
X59952381Y-54809523D01*
X58952381Y-54571428D01*
X59047619Y-54238095D02*
X59000000Y-54190476D01*
X58952381Y-54095238D01*
X58952381Y-53857142D01*
X59000000Y-53761904D01*
X59047619Y-53714285D01*
X59142857Y-53666666D01*
X59238095Y-53666666D01*
X59380952Y-53714285D01*
X59952381Y-54285714D01*
X59952381Y-53666666D01*
X78911905Y-91752381D02*
X78911905Y-92561905D01*
X78959524Y-92657143D01*
X79007143Y-92704762D01*
X79102381Y-92752381D01*
X79292858Y-92752381D01*
X79388096Y-92704762D01*
X79435715Y-92657143D01*
X79483334Y-92561905D01*
X79483334Y-91752381D01*
X80483334Y-92752381D02*
X79911905Y-92752381D01*
X80197619Y-92752381D02*
X80197619Y-91752381D01*
X80102381Y-91895238D01*
X80007143Y-91990476D01*
X79911905Y-92038095D01*
X81102381Y-91752381D02*
X81197620Y-91752381D01*
X81292858Y-91800000D01*
X81340477Y-91847619D01*
X81388096Y-91942857D01*
X81435715Y-92133333D01*
X81435715Y-92371429D01*
X81388096Y-92561905D01*
X81340477Y-92657143D01*
X81292858Y-92704762D01*
X81197620Y-92752381D01*
X81102381Y-92752381D01*
X81007143Y-92704762D01*
X80959524Y-92657143D01*
X80911905Y-92561905D01*
X80864286Y-92371429D01*
X80864286Y-92133333D01*
X80911905Y-91942857D01*
X80959524Y-91847619D01*
X81007143Y-91800000D01*
X81102381Y-91752381D01*
X77761905Y-55202381D02*
X77761905Y-54202381D01*
X78000000Y-54202381D01*
X78142858Y-54250000D01*
X78238096Y-54345238D01*
X78285715Y-54440476D01*
X78333334Y-54630952D01*
X78333334Y-54773810D01*
X78285715Y-54964286D01*
X78238096Y-55059524D01*
X78142858Y-55154762D01*
X78000000Y-55202381D01*
X77761905Y-55202381D01*
X78714286Y-54297619D02*
X78761905Y-54250000D01*
X78857143Y-54202381D01*
X79095239Y-54202381D01*
X79190477Y-54250000D01*
X79238096Y-54297619D01*
X79285715Y-54392857D01*
X79285715Y-54488095D01*
X79238096Y-54630952D01*
X78666667Y-55202381D01*
X79285715Y-55202381D01*
X138707143Y-72857143D02*
X138659524Y-72904762D01*
X138516667Y-72952381D01*
X138421429Y-72952381D01*
X138278571Y-72904762D01*
X138183333Y-72809524D01*
X138135714Y-72714286D01*
X138088095Y-72523810D01*
X138088095Y-72380952D01*
X138135714Y-72190476D01*
X138183333Y-72095238D01*
X138278571Y-72000000D01*
X138421429Y-71952381D01*
X138516667Y-71952381D01*
X138659524Y-72000000D01*
X138707143Y-72047619D01*
X139088095Y-72047619D02*
X139135714Y-72000000D01*
X139230952Y-71952381D01*
X139469048Y-71952381D01*
X139564286Y-72000000D01*
X139611905Y-72047619D01*
X139659524Y-72142857D01*
X139659524Y-72238095D01*
X139611905Y-72380952D01*
X139040476Y-72952381D01*
X139659524Y-72952381D01*
X140516667Y-72285714D02*
X140516667Y-72952381D01*
X140278571Y-71904762D02*
X140040476Y-72619048D01*
X140659524Y-72619048D01*
X135607143Y-65357143D02*
X135559524Y-65404762D01*
X135416667Y-65452381D01*
X135321429Y-65452381D01*
X135178571Y-65404762D01*
X135083333Y-65309524D01*
X135035714Y-65214286D01*
X134988095Y-65023810D01*
X134988095Y-64880952D01*
X135035714Y-64690476D01*
X135083333Y-64595238D01*
X135178571Y-64500000D01*
X135321429Y-64452381D01*
X135416667Y-64452381D01*
X135559524Y-64500000D01*
X135607143Y-64547619D01*
X135988095Y-64547619D02*
X136035714Y-64500000D01*
X136130952Y-64452381D01*
X136369048Y-64452381D01*
X136464286Y-64500000D01*
X136511905Y-64547619D01*
X136559524Y-64642857D01*
X136559524Y-64738095D01*
X136511905Y-64880952D01*
X135940476Y-65452381D01*
X136559524Y-65452381D01*
X137464286Y-64452381D02*
X136988095Y-64452381D01*
X136940476Y-64928571D01*
X136988095Y-64880952D01*
X137083333Y-64833333D01*
X137321429Y-64833333D01*
X137416667Y-64880952D01*
X137464286Y-64928571D01*
X137511905Y-65023810D01*
X137511905Y-65261905D01*
X137464286Y-65357143D01*
X137416667Y-65404762D01*
X137321429Y-65452381D01*
X137083333Y-65452381D01*
X136988095Y-65404762D01*
X136940476Y-65357143D01*
X139757143Y-61142857D02*
X139804762Y-61190476D01*
X139852381Y-61333333D01*
X139852381Y-61428571D01*
X139804762Y-61571429D01*
X139709524Y-61666667D01*
X139614286Y-61714286D01*
X139423810Y-61761905D01*
X139280952Y-61761905D01*
X139090476Y-61714286D01*
X138995238Y-61666667D01*
X138900000Y-61571429D01*
X138852381Y-61428571D01*
X138852381Y-61333333D01*
X138900000Y-61190476D01*
X138947619Y-61142857D01*
X138947619Y-60761905D02*
X138900000Y-60714286D01*
X138852381Y-60619048D01*
X138852381Y-60380952D01*
X138900000Y-60285714D01*
X138947619Y-60238095D01*
X139042857Y-60190476D01*
X139138095Y-60190476D01*
X139280952Y-60238095D01*
X139852381Y-60809524D01*
X139852381Y-60190476D01*
X138852381Y-59333333D02*
X138852381Y-59523810D01*
X138900000Y-59619048D01*
X138947619Y-59666667D01*
X139090476Y-59761905D01*
X139280952Y-59809524D01*
X139661905Y-59809524D01*
X139757143Y-59761905D01*
X139804762Y-59714286D01*
X139852381Y-59619048D01*
X139852381Y-59428571D01*
X139804762Y-59333333D01*
X139757143Y-59285714D01*
X139661905Y-59238095D01*
X139423810Y-59238095D01*
X139328571Y-59285714D01*
X139280952Y-59333333D01*
X139233333Y-59428571D01*
X139233333Y-59619048D01*
X139280952Y-59714286D01*
X139328571Y-59761905D01*
X139423810Y-59809524D01*
X145457143Y-75257143D02*
X145409524Y-75304762D01*
X145266667Y-75352381D01*
X145171429Y-75352381D01*
X145028571Y-75304762D01*
X144933333Y-75209524D01*
X144885714Y-75114286D01*
X144838095Y-74923810D01*
X144838095Y-74780952D01*
X144885714Y-74590476D01*
X144933333Y-74495238D01*
X145028571Y-74400000D01*
X145171429Y-74352381D01*
X145266667Y-74352381D01*
X145409524Y-74400000D01*
X145457143Y-74447619D01*
X145838095Y-74447619D02*
X145885714Y-74400000D01*
X145980952Y-74352381D01*
X146219048Y-74352381D01*
X146314286Y-74400000D01*
X146361905Y-74447619D01*
X146409524Y-74542857D01*
X146409524Y-74638095D01*
X146361905Y-74780952D01*
X145790476Y-75352381D01*
X146409524Y-75352381D01*
X146742857Y-74352381D02*
X147409524Y-74352381D01*
X146980952Y-75352381D01*
X145607143Y-53457143D02*
X145559524Y-53504762D01*
X145416667Y-53552381D01*
X145321429Y-53552381D01*
X145178571Y-53504762D01*
X145083333Y-53409524D01*
X145035714Y-53314286D01*
X144988095Y-53123810D01*
X144988095Y-52980952D01*
X145035714Y-52790476D01*
X145083333Y-52695238D01*
X145178571Y-52600000D01*
X145321429Y-52552381D01*
X145416667Y-52552381D01*
X145559524Y-52600000D01*
X145607143Y-52647619D01*
X145988095Y-52647619D02*
X146035714Y-52600000D01*
X146130952Y-52552381D01*
X146369048Y-52552381D01*
X146464286Y-52600000D01*
X146511905Y-52647619D01*
X146559524Y-52742857D01*
X146559524Y-52838095D01*
X146511905Y-52980952D01*
X145940476Y-53552381D01*
X146559524Y-53552381D01*
X147130952Y-52980952D02*
X147035714Y-52933333D01*
X146988095Y-52885714D01*
X146940476Y-52790476D01*
X146940476Y-52742857D01*
X146988095Y-52647619D01*
X147035714Y-52600000D01*
X147130952Y-52552381D01*
X147321429Y-52552381D01*
X147416667Y-52600000D01*
X147464286Y-52647619D01*
X147511905Y-52742857D01*
X147511905Y-52790476D01*
X147464286Y-52885714D01*
X147416667Y-52933333D01*
X147321429Y-52980952D01*
X147130952Y-52980952D01*
X147035714Y-53028571D01*
X146988095Y-53076190D01*
X146940476Y-53171429D01*
X146940476Y-53361905D01*
X146988095Y-53457143D01*
X147035714Y-53504762D01*
X147130952Y-53552381D01*
X147321429Y-53552381D01*
X147416667Y-53504762D01*
X147464286Y-53457143D01*
X147511905Y-53361905D01*
X147511905Y-53171429D01*
X147464286Y-53076190D01*
X147416667Y-53028571D01*
X147321429Y-52980952D01*
X119107143Y-92142857D02*
X119154762Y-92190476D01*
X119202381Y-92333333D01*
X119202381Y-92428571D01*
X119154762Y-92571429D01*
X119059524Y-92666667D01*
X118964286Y-92714286D01*
X118773810Y-92761905D01*
X118630952Y-92761905D01*
X118440476Y-92714286D01*
X118345238Y-92666667D01*
X118250000Y-92571429D01*
X118202381Y-92428571D01*
X118202381Y-92333333D01*
X118250000Y-92190476D01*
X118297619Y-92142857D01*
X118297619Y-91761905D02*
X118250000Y-91714286D01*
X118202381Y-91619048D01*
X118202381Y-91380952D01*
X118250000Y-91285714D01*
X118297619Y-91238095D01*
X118392857Y-91190476D01*
X118488095Y-91190476D01*
X118630952Y-91238095D01*
X119202381Y-91809524D01*
X119202381Y-91190476D01*
X119202381Y-90714286D02*
X119202381Y-90523810D01*
X119154762Y-90428571D01*
X119107143Y-90380952D01*
X118964286Y-90285714D01*
X118773810Y-90238095D01*
X118392857Y-90238095D01*
X118297619Y-90285714D01*
X118250000Y-90333333D01*
X118202381Y-90428571D01*
X118202381Y-90619048D01*
X118250000Y-90714286D01*
X118297619Y-90761905D01*
X118392857Y-90809524D01*
X118630952Y-90809524D01*
X118726190Y-90761905D01*
X118773810Y-90714286D01*
X118821429Y-90619048D01*
X118821429Y-90428571D01*
X118773810Y-90333333D01*
X118726190Y-90285714D01*
X118630952Y-90238095D01*
X106452381Y-136392857D02*
X105976190Y-136726191D01*
X106452381Y-136964286D02*
X105452381Y-136964286D01*
X105452381Y-136583333D01*
X105500000Y-136488095D01*
X105547619Y-136440476D01*
X105642857Y-136392857D01*
X105785714Y-136392857D01*
X105880952Y-136440476D01*
X105928571Y-136488095D01*
X105976190Y-136583333D01*
X105976190Y-136964286D01*
X105452381Y-136059524D02*
X105452381Y-135440476D01*
X105833333Y-135773810D01*
X105833333Y-135630952D01*
X105880952Y-135535714D01*
X105928571Y-135488095D01*
X106023810Y-135440476D01*
X106261905Y-135440476D01*
X106357143Y-135488095D01*
X106404762Y-135535714D01*
X106452381Y-135630952D01*
X106452381Y-135916667D01*
X106404762Y-136011905D01*
X106357143Y-136059524D01*
X105452381Y-134583333D02*
X105452381Y-134773810D01*
X105500000Y-134869048D01*
X105547619Y-134916667D01*
X105690476Y-135011905D01*
X105880952Y-135059524D01*
X106261905Y-135059524D01*
X106357143Y-135011905D01*
X106404762Y-134964286D01*
X106452381Y-134869048D01*
X106452381Y-134678571D01*
X106404762Y-134583333D01*
X106357143Y-134535714D01*
X106261905Y-134488095D01*
X106023810Y-134488095D01*
X105928571Y-134535714D01*
X105880952Y-134583333D01*
X105833333Y-134678571D01*
X105833333Y-134869048D01*
X105880952Y-134964286D01*
X105928571Y-135011905D01*
X106023810Y-135059524D01*
X109202381Y-129642857D02*
X108726190Y-129976191D01*
X109202381Y-130214286D02*
X108202381Y-130214286D01*
X108202381Y-129833333D01*
X108250000Y-129738095D01*
X108297619Y-129690476D01*
X108392857Y-129642857D01*
X108535714Y-129642857D01*
X108630952Y-129690476D01*
X108678571Y-129738095D01*
X108726190Y-129833333D01*
X108726190Y-130214286D01*
X108202381Y-129309524D02*
X108202381Y-128690476D01*
X108583333Y-129023810D01*
X108583333Y-128880952D01*
X108630952Y-128785714D01*
X108678571Y-128738095D01*
X108773810Y-128690476D01*
X109011905Y-128690476D01*
X109107143Y-128738095D01*
X109154762Y-128785714D01*
X109202381Y-128880952D01*
X109202381Y-129166667D01*
X109154762Y-129261905D01*
X109107143Y-129309524D01*
X108202381Y-128357143D02*
X108202381Y-127690476D01*
X109202381Y-128119048D01*
X84952381Y-127892857D02*
X84476190Y-128226191D01*
X84952381Y-128464286D02*
X83952381Y-128464286D01*
X83952381Y-128083333D01*
X84000000Y-127988095D01*
X84047619Y-127940476D01*
X84142857Y-127892857D01*
X84285714Y-127892857D01*
X84380952Y-127940476D01*
X84428571Y-127988095D01*
X84476190Y-128083333D01*
X84476190Y-128464286D01*
X83952381Y-127559524D02*
X83952381Y-126940476D01*
X84333333Y-127273810D01*
X84333333Y-127130952D01*
X84380952Y-127035714D01*
X84428571Y-126988095D01*
X84523810Y-126940476D01*
X84761905Y-126940476D01*
X84857143Y-126988095D01*
X84904762Y-127035714D01*
X84952381Y-127130952D01*
X84952381Y-127416667D01*
X84904762Y-127511905D01*
X84857143Y-127559524D01*
X84380952Y-126369048D02*
X84333333Y-126464286D01*
X84285714Y-126511905D01*
X84190476Y-126559524D01*
X84142857Y-126559524D01*
X84047619Y-126511905D01*
X84000000Y-126464286D01*
X83952381Y-126369048D01*
X83952381Y-126178571D01*
X84000000Y-126083333D01*
X84047619Y-126035714D01*
X84142857Y-125988095D01*
X84190476Y-125988095D01*
X84285714Y-126035714D01*
X84333333Y-126083333D01*
X84380952Y-126178571D01*
X84380952Y-126369048D01*
X84428571Y-126464286D01*
X84476190Y-126511905D01*
X84571429Y-126559524D01*
X84761905Y-126559524D01*
X84857143Y-126511905D01*
X84904762Y-126464286D01*
X84952381Y-126369048D01*
X84952381Y-126178571D01*
X84904762Y-126083333D01*
X84857143Y-126035714D01*
X84761905Y-125988095D01*
X84571429Y-125988095D01*
X84476190Y-126035714D01*
X84428571Y-126083333D01*
X84380952Y-126178571D01*
X99452381Y-115142857D02*
X98976190Y-115476191D01*
X99452381Y-115714286D02*
X98452381Y-115714286D01*
X98452381Y-115333333D01*
X98500000Y-115238095D01*
X98547619Y-115190476D01*
X98642857Y-115142857D01*
X98785714Y-115142857D01*
X98880952Y-115190476D01*
X98928571Y-115238095D01*
X98976190Y-115333333D01*
X98976190Y-115714286D01*
X98452381Y-114809524D02*
X98452381Y-114190476D01*
X98833333Y-114523810D01*
X98833333Y-114380952D01*
X98880952Y-114285714D01*
X98928571Y-114238095D01*
X99023810Y-114190476D01*
X99261905Y-114190476D01*
X99357143Y-114238095D01*
X99404762Y-114285714D01*
X99452381Y-114380952D01*
X99452381Y-114666667D01*
X99404762Y-114761905D01*
X99357143Y-114809524D01*
X99452381Y-113714286D02*
X99452381Y-113523810D01*
X99404762Y-113428571D01*
X99357143Y-113380952D01*
X99214286Y-113285714D01*
X99023810Y-113238095D01*
X98642857Y-113238095D01*
X98547619Y-113285714D01*
X98500000Y-113333333D01*
X98452381Y-113428571D01*
X98452381Y-113619048D01*
X98500000Y-113714286D01*
X98547619Y-113761905D01*
X98642857Y-113809524D01*
X98880952Y-113809524D01*
X98976190Y-113761905D01*
X99023810Y-113714286D01*
X99071429Y-113619048D01*
X99071429Y-113428571D01*
X99023810Y-113333333D01*
X98976190Y-113285714D01*
X98880952Y-113238095D01*
X97502382Y-115142857D02*
X97026191Y-115476191D01*
X97502382Y-115714286D02*
X96502382Y-115714286D01*
X96502382Y-115333333D01*
X96550001Y-115238095D01*
X96597620Y-115190476D01*
X96692858Y-115142857D01*
X96835715Y-115142857D01*
X96930953Y-115190476D01*
X96978572Y-115238095D01*
X97026191Y-115333333D01*
X97026191Y-115714286D01*
X96835715Y-114285714D02*
X97502382Y-114285714D01*
X96454763Y-114523810D02*
X97169049Y-114761905D01*
X97169049Y-114142857D01*
X96502382Y-113571429D02*
X96502382Y-113476190D01*
X96550001Y-113380952D01*
X96597620Y-113333333D01*
X96692858Y-113285714D01*
X96883334Y-113238095D01*
X97121430Y-113238095D01*
X97311906Y-113285714D01*
X97407144Y-113333333D01*
X97454763Y-113380952D01*
X97502382Y-113476190D01*
X97502382Y-113571429D01*
X97454763Y-113666667D01*
X97407144Y-113714286D01*
X97311906Y-113761905D01*
X97121430Y-113809524D01*
X96883334Y-113809524D01*
X96692858Y-113761905D01*
X96597620Y-113714286D01*
X96550001Y-113666667D01*
X96502382Y-113571429D01*
X95452381Y-115142857D02*
X94976190Y-115476191D01*
X95452381Y-115714286D02*
X94452381Y-115714286D01*
X94452381Y-115333333D01*
X94500000Y-115238095D01*
X94547619Y-115190476D01*
X94642857Y-115142857D01*
X94785714Y-115142857D01*
X94880952Y-115190476D01*
X94928571Y-115238095D01*
X94976190Y-115333333D01*
X94976190Y-115714286D01*
X94785714Y-114285714D02*
X95452381Y-114285714D01*
X94404762Y-114523810D02*
X95119048Y-114761905D01*
X95119048Y-114142857D01*
X95452381Y-113238095D02*
X95452381Y-113809524D01*
X95452381Y-113523810D02*
X94452381Y-113523810D01*
X94595238Y-113619048D01*
X94690476Y-113714286D01*
X94738095Y-113809524D01*
X128857143Y-98202381D02*
X128523809Y-97726190D01*
X128285714Y-98202381D02*
X128285714Y-97202381D01*
X128666667Y-97202381D01*
X128761905Y-97250000D01*
X128809524Y-97297619D01*
X128857143Y-97392857D01*
X128857143Y-97535714D01*
X128809524Y-97630952D01*
X128761905Y-97678571D01*
X128666667Y-97726190D01*
X128285714Y-97726190D01*
X129714286Y-97535714D02*
X129714286Y-98202381D01*
X129476190Y-97154762D02*
X129238095Y-97869048D01*
X129857143Y-97869048D01*
X130190476Y-97297619D02*
X130238095Y-97250000D01*
X130333333Y-97202381D01*
X130571429Y-97202381D01*
X130666667Y-97250000D01*
X130714286Y-97297619D01*
X130761905Y-97392857D01*
X130761905Y-97488095D01*
X130714286Y-97630952D01*
X130142857Y-98202381D01*
X130761905Y-98202381D01*
D17*
X102419429Y-117982714D02*
X102419429Y-118599571D01*
X102455714Y-118672143D01*
X102492000Y-118708429D01*
X102564571Y-118744714D01*
X102709714Y-118744714D01*
X102782286Y-118708429D01*
X102818571Y-118672143D01*
X102854857Y-118599571D01*
X102854857Y-117982714D01*
X103254000Y-118744714D02*
X103399143Y-118744714D01*
X103471715Y-118708429D01*
X103508000Y-118672143D01*
X103580572Y-118563286D01*
X103616857Y-118418143D01*
X103616857Y-118127857D01*
X103580572Y-118055286D01*
X103544286Y-118019000D01*
X103471715Y-117982714D01*
X103326572Y-117982714D01*
X103254000Y-118019000D01*
X103217715Y-118055286D01*
X103181429Y-118127857D01*
X103181429Y-118309286D01*
X103217715Y-118381857D01*
X103254000Y-118418143D01*
X103326572Y-118454429D01*
X103471715Y-118454429D01*
X103544286Y-118418143D01*
X103580572Y-118381857D01*
X103616857Y-118309286D01*
M02*
