M48
;DRILL file {KiCad 4.0.0-rc1-stable} date Tue 08 Dec 2015 07:54:22 AM PST
;FORMAT={-:-/ absolute / metric / decimal}
FMAT,2
METRIC,TZ
T1C0.400
T2C0.500
T3C0.550
T4C0.635
T5C0.998
T6C1.016
T7C3.000
%
G90
G05
M71
T1
X52.4Y-105.
X52.75Y-51.
X52.75Y-58.95
X52.75Y-73.025
X52.75Y-80.975
X53.59Y-113.738
X53.852Y-120.25
X54.174Y-123.178
X55.688Y-106.25
X55.8Y-112.5
X55.839Y-125.
X55.998Y-117.9
X57.25Y-49.25
X57.25Y-60.75
X57.25Y-71.25
X57.25Y-82.75
X58.25Y-63.
X58.5Y-99.25
X59.Y-117.5
X59.75Y-99.25
X76.5Y-46.
X77.Y-51.5
X79.Y-48.75
X80.25Y-49.
X82.Y-46.5
X82.35Y-91.75
X83.75Y-134.25
X85.75Y-48.75
X86.5Y-122.25
X87.Y-124.25
X88.Y-125.
X88.15Y-134.1
X92.5Y-49.5
X93.25Y-119.25
X94.5Y-42.5
X96.25Y-123.25
X98.25Y-68.
X99.066Y-67.184
X99.5Y-49.5
X99.5Y-119.325
X103.75Y-72.5
X104.Y-108.5
X104.Y-120.5
X104.25Y-97.25
X104.75Y-135.5
X105.25Y-130.25
X106.5Y-63.25
X106.75Y-108.5
X107.25Y-100.
X107.5Y-81.25
X107.908Y-83.592
X109.25Y-85.75
X109.25Y-87.
X109.25Y-81.25
X110.Y-83.
X111.Y-82.
X111.25Y-73.75
X111.5Y-134.
X111.75Y-85.5
X112.25Y-82.
X112.704Y-83.5
X112.75Y-100.
X113.25Y-86.75
X113.5Y-82.
X113.75Y-73.75
X114.Y-70.25
X114.227Y-88.925
X114.25Y-73.
X114.5Y-50.
X115.5Y-83.75
X116.306Y-82.653
X118.75Y-81.75
X120.Y-89.6
X120.359Y-81.857
X121.Y-86.75
X121.Y-61.
X121.Y-79.
X121.833Y-77.3
X122.1Y-75.4
X123.5Y-80.25
X123.603Y-76.412
X123.75Y-84.75
X124.Y-85.75
X124.272Y-81.625
X125.5Y-79.25
X125.5Y-81.75
X125.625Y-75.5
X125.75Y-87.
X126.Y-83.75
X126.125Y-73.7
X126.311Y-109.149
X126.45Y-90.253
X126.75Y-87.
X126.983Y-92.
X126.994Y-93.5
X127.5Y-90.25
X127.8Y-87.
X128.25Y-106.
X128.5Y-80.
X129.Y-81.
X129.5Y-90.5
X129.75Y-71.5
X129.75Y-73.
X130.25Y-114.75
X131.275Y-86.025
X131.275Y-87.271
X131.5Y-83.5
X131.75Y-65.75
X131.75Y-82.
X131.75Y-108.984
X132.Y-64.5
X132.509Y-81.497
X132.75Y-76.125
X133.25Y-104.25
X133.5Y-65.175
X133.75Y-99.5
X134.Y-76.125
X134.25Y-63.25
X135.25Y-76.125
X135.25Y-80.
X135.503Y-80.759
X135.75Y-82.
X136.Y-83.5
X136.Y-109.013
X136.75Y-69.
X137.5Y-58.5
X138.25Y-82.75
X138.25Y-84.25
X139.5Y-67.5
X140.25Y-62.
X140.5Y-60.
X141.625Y-61.05
X141.97Y-66.441
X142.Y-59.
X142.5Y-73.75
X144.Y-71.
X144.25Y-65.75
X144.35Y-72.5
X144.75Y-61.
X144.75Y-59.25
X144.875Y-66.281
X144.875Y-69.767
X145.Y-63.75
X145.5Y-53.75
X146.5Y-73.75
X147.Y-65.
T4
X130.Y-41.5
X130.Y-46.5
X130.Y-50.
X130.Y-53.5
X130.Y-56.7
X130.Y-60.
T5
X54.5Y-86.73
X54.5Y-89.27
T6
X118.25Y-98.84
X118.25Y-101.38
X118.25Y-103.92
X118.25Y-106.46
X118.25Y-109.
T7
X56.Y-44.
X56.Y-132.
X144.Y-44.
X144.Y-132.
T2
X52.788Y-95.501G85X53.438Y-95.501
G05
X52.788Y-95.501G85X53.438Y-95.501
G05
X52.788Y-102.501G85X53.438Y-102.501
G05
X52.788Y-102.501G85X53.438Y-102.501
G05
T3
X55.813Y-96.351G85X55.813Y-96.651
G05
X55.813Y-96.351G85X55.813Y-96.651
G05
X55.813Y-101.351G85X55.813Y-101.651
G05
X55.813Y-101.351G85X55.813Y-101.651
G05
T0
M30
