G04 #@! TF.FileFunction,Copper,L3,Inr,Signal*
%FSLAX46Y46*%
G04 Gerber Fmt 4.6, Leading zero omitted, Abs format (unit mm)*
G04 Created by KiCad (PCBNEW 4.0.0-rc1-stable) date Tue 08 Dec 2015 07:53:02 AM PST*
%MOMM*%
G01*
G04 APERTURE LIST*
%ADD10C,0.100000*%
%ADD11C,0.150000*%
%ADD12C,0.300000*%
%ADD13C,0.400000*%
%ADD14O,0.950000X1.250000*%
%ADD15O,1.550000X1.000000*%
%ADD16O,3.014980X1.506220*%
%ADD17R,2.032000X1.727200*%
%ADD18O,2.032000X1.727200*%
%ADD19C,1.143000*%
%ADD20C,0.600000*%
%ADD21C,0.250000*%
G04 APERTURE END LIST*
D10*
D11*
X177002200Y-166007200D02*
X177002200Y-198007200D01*
X285002200Y-198007200D01*
X285002200Y-166007200D01*
X177002200Y-166007200D01*
D10*
D11*
X10000000Y-10000000D02*
X10000000Y-200007200D01*
X287002200Y-200007200D01*
X287002200Y-10000000D01*
X10000000Y-10000000D01*
D10*
D11*
X12000000Y-12000000D02*
X12000000Y-198007200D01*
X285002200Y-198007200D01*
X285002200Y-12000000D01*
X12000000Y-12000000D01*
D10*
D11*
X60000000Y-12000000D02*
X60000000Y-10000000D01*
D10*
D11*
X110000000Y-12000000D02*
X110000000Y-10000000D01*
D10*
D11*
X160000000Y-12000000D02*
X160000000Y-10000000D01*
D10*
D11*
X210000000Y-12000000D02*
X210000000Y-10000000D01*
D10*
D11*
X260000000Y-12000000D02*
X260000000Y-10000000D01*
D10*
D11*
X35990476Y-11588095D02*
X35247619Y-11588095D01*
X35619048Y-11588095D02*
X35619048Y-10288095D01*
X35495238Y-10473810D01*
X35371429Y-10597619D01*
X35247619Y-10659524D01*
D10*
D11*
X85247619Y-10411905D02*
X85309524Y-10350000D01*
X85433333Y-10288095D01*
X85742857Y-10288095D01*
X85866667Y-10350000D01*
X85928571Y-10411905D01*
X85990476Y-10535714D01*
X85990476Y-10659524D01*
X85928571Y-10845238D01*
X85185714Y-11588095D01*
X85990476Y-11588095D01*
D10*
D11*
X135185714Y-10288095D02*
X135990476Y-10288095D01*
X135557143Y-10783333D01*
X135742857Y-10783333D01*
X135866667Y-10845238D01*
X135928571Y-10907143D01*
X135990476Y-11030952D01*
X135990476Y-11340476D01*
X135928571Y-11464286D01*
X135866667Y-11526190D01*
X135742857Y-11588095D01*
X135371429Y-11588095D01*
X135247619Y-11526190D01*
X135185714Y-11464286D01*
D10*
D11*
X185866667Y-10721429D02*
X185866667Y-11588095D01*
X185557143Y-10226190D02*
X185247619Y-11154762D01*
X186052381Y-11154762D01*
D10*
D11*
X235928571Y-10288095D02*
X235309524Y-10288095D01*
X235247619Y-10907143D01*
X235309524Y-10845238D01*
X235433333Y-10783333D01*
X235742857Y-10783333D01*
X235866667Y-10845238D01*
X235928571Y-10907143D01*
X235990476Y-11030952D01*
X235990476Y-11340476D01*
X235928571Y-11464286D01*
X235866667Y-11526190D01*
X235742857Y-11588095D01*
X235433333Y-11588095D01*
X235309524Y-11526190D01*
X235247619Y-11464286D01*
D10*
D11*
X285866667Y-10288095D02*
X285619048Y-10288095D01*
X285495238Y-10350000D01*
X285433333Y-10411905D01*
X285309524Y-10597619D01*
X285247619Y-10845238D01*
X285247619Y-11340476D01*
X285309524Y-11464286D01*
X285371429Y-11526190D01*
X285495238Y-11588095D01*
X285742857Y-11588095D01*
X285866667Y-11526190D01*
X285928571Y-11464286D01*
X285990476Y-11340476D01*
X285990476Y-11030952D01*
X285928571Y-10907143D01*
X285866667Y-10845238D01*
X285742857Y-10783333D01*
X285495238Y-10783333D01*
X285371429Y-10845238D01*
X285309524Y-10907143D01*
X285247619Y-11030952D01*
D10*
D11*
X60000000Y-198007200D02*
X60000000Y-200007200D01*
D10*
D11*
X110000000Y-198007200D02*
X110000000Y-200007200D01*
D10*
D11*
X160000000Y-198007200D02*
X160000000Y-200007200D01*
D10*
D11*
X210000000Y-198007200D02*
X210000000Y-200007200D01*
D10*
D11*
X260000000Y-198007200D02*
X260000000Y-200007200D01*
D10*
D11*
X35990476Y-199595295D02*
X35247619Y-199595295D01*
X35619048Y-199595295D02*
X35619048Y-198295295D01*
X35495238Y-198481010D01*
X35371429Y-198604819D01*
X35247619Y-198666724D01*
D10*
D11*
X85247619Y-198419105D02*
X85309524Y-198357200D01*
X85433333Y-198295295D01*
X85742857Y-198295295D01*
X85866667Y-198357200D01*
X85928571Y-198419105D01*
X85990476Y-198542914D01*
X85990476Y-198666724D01*
X85928571Y-198852438D01*
X85185714Y-199595295D01*
X85990476Y-199595295D01*
D10*
D11*
X135185714Y-198295295D02*
X135990476Y-198295295D01*
X135557143Y-198790533D01*
X135742857Y-198790533D01*
X135866667Y-198852438D01*
X135928571Y-198914343D01*
X135990476Y-199038152D01*
X135990476Y-199347676D01*
X135928571Y-199471486D01*
X135866667Y-199533390D01*
X135742857Y-199595295D01*
X135371429Y-199595295D01*
X135247619Y-199533390D01*
X135185714Y-199471486D01*
D10*
D11*
X185866667Y-198728629D02*
X185866667Y-199595295D01*
X185557143Y-198233390D02*
X185247619Y-199161962D01*
X186052381Y-199161962D01*
D10*
D11*
X235928571Y-198295295D02*
X235309524Y-198295295D01*
X235247619Y-198914343D01*
X235309524Y-198852438D01*
X235433333Y-198790533D01*
X235742857Y-198790533D01*
X235866667Y-198852438D01*
X235928571Y-198914343D01*
X235990476Y-199038152D01*
X235990476Y-199347676D01*
X235928571Y-199471486D01*
X235866667Y-199533390D01*
X235742857Y-199595295D01*
X235433333Y-199595295D01*
X235309524Y-199533390D01*
X235247619Y-199471486D01*
D10*
D11*
X285866667Y-198295295D02*
X285619048Y-198295295D01*
X285495238Y-198357200D01*
X285433333Y-198419105D01*
X285309524Y-198604819D01*
X285247619Y-198852438D01*
X285247619Y-199347676D01*
X285309524Y-199471486D01*
X285371429Y-199533390D01*
X285495238Y-199595295D01*
X285742857Y-199595295D01*
X285866667Y-199533390D01*
X285928571Y-199471486D01*
X285990476Y-199347676D01*
X285990476Y-199038152D01*
X285928571Y-198914343D01*
X285866667Y-198852438D01*
X285742857Y-198790533D01*
X285495238Y-198790533D01*
X285371429Y-198852438D01*
X285309524Y-198914343D01*
X285247619Y-199038152D01*
D10*
D11*
X10000000Y-60000000D02*
X12000000Y-60000000D01*
D10*
D11*
X10000000Y-110000000D02*
X12000000Y-110000000D01*
D10*
D11*
X10000000Y-160000000D02*
X12000000Y-160000000D01*
D10*
D11*
X10690476Y-35216667D02*
X11309524Y-35216667D01*
X10566667Y-35588095D02*
X11000000Y-34288095D01*
X11433333Y-35588095D01*
D10*
D11*
X11092857Y-84907143D02*
X11278571Y-84969048D01*
X11340476Y-85030952D01*
X11402381Y-85154762D01*
X11402381Y-85340476D01*
X11340476Y-85464286D01*
X11278571Y-85526190D01*
X11154762Y-85588095D01*
X10659524Y-85588095D01*
X10659524Y-84288095D01*
X11092857Y-84288095D01*
X11216667Y-84350000D01*
X11278571Y-84411905D01*
X11340476Y-84535714D01*
X11340476Y-84659524D01*
X11278571Y-84783333D01*
X11216667Y-84845238D01*
X11092857Y-84907143D01*
X10659524Y-84907143D01*
D10*
D11*
X11402381Y-135464286D02*
X11340476Y-135526190D01*
X11154762Y-135588095D01*
X11030952Y-135588095D01*
X10845238Y-135526190D01*
X10721429Y-135402381D01*
X10659524Y-135278571D01*
X10597619Y-135030952D01*
X10597619Y-134845238D01*
X10659524Y-134597619D01*
X10721429Y-134473810D01*
X10845238Y-134350000D01*
X11030952Y-134288095D01*
X11154762Y-134288095D01*
X11340476Y-134350000D01*
X11402381Y-134411905D01*
D10*
D11*
X10659524Y-185588095D02*
X10659524Y-184288095D01*
X10969048Y-184288095D01*
X11154762Y-184350000D01*
X11278571Y-184473810D01*
X11340476Y-184597619D01*
X11402381Y-184845238D01*
X11402381Y-185030952D01*
X11340476Y-185278571D01*
X11278571Y-185402381D01*
X11154762Y-185526190D01*
X10969048Y-185588095D01*
X10659524Y-185588095D01*
D10*
D11*
X287002200Y-60000000D02*
X285002200Y-60000000D01*
D10*
D11*
X287002200Y-110000000D02*
X285002200Y-110000000D01*
D10*
D11*
X287002200Y-160000000D02*
X285002200Y-160000000D01*
D10*
D11*
X285692676Y-35216667D02*
X286311724Y-35216667D01*
X285568867Y-35588095D02*
X286002200Y-34288095D01*
X286435533Y-35588095D01*
D10*
D11*
X286095057Y-84907143D02*
X286280771Y-84969048D01*
X286342676Y-85030952D01*
X286404581Y-85154762D01*
X286404581Y-85340476D01*
X286342676Y-85464286D01*
X286280771Y-85526190D01*
X286156962Y-85588095D01*
X285661724Y-85588095D01*
X285661724Y-84288095D01*
X286095057Y-84288095D01*
X286218867Y-84350000D01*
X286280771Y-84411905D01*
X286342676Y-84535714D01*
X286342676Y-84659524D01*
X286280771Y-84783333D01*
X286218867Y-84845238D01*
X286095057Y-84907143D01*
X285661724Y-84907143D01*
D10*
D11*
X286404581Y-135464286D02*
X286342676Y-135526190D01*
X286156962Y-135588095D01*
X286033152Y-135588095D01*
X285847438Y-135526190D01*
X285723629Y-135402381D01*
X285661724Y-135278571D01*
X285599819Y-135030952D01*
X285599819Y-134845238D01*
X285661724Y-134597619D01*
X285723629Y-134473810D01*
X285847438Y-134350000D01*
X286033152Y-134288095D01*
X286156962Y-134288095D01*
X286342676Y-134350000D01*
X286404581Y-134411905D01*
D10*
D11*
X285661724Y-185588095D02*
X285661724Y-184288095D01*
X285971248Y-184288095D01*
X286156962Y-184350000D01*
X286280771Y-184473810D01*
X286342676Y-184597619D01*
X286404581Y-184845238D01*
X286404581Y-185030952D01*
X286342676Y-185278571D01*
X286280771Y-185402381D01*
X286156962Y-185526190D01*
X285971248Y-185588095D01*
X285661724Y-185588095D01*
D10*
D11*
X200359343Y-193785771D02*
X200359343Y-192285771D01*
X200716486Y-192285771D01*
X200930771Y-192357200D01*
X201073629Y-192500057D01*
X201145057Y-192642914D01*
X201216486Y-192928629D01*
X201216486Y-193142914D01*
X201145057Y-193428629D01*
X201073629Y-193571486D01*
X200930771Y-193714343D01*
X200716486Y-193785771D01*
X200359343Y-193785771D01*
X202502200Y-193785771D02*
X202502200Y-193000057D01*
X202430771Y-192857200D01*
X202287914Y-192785771D01*
X202002200Y-192785771D01*
X201859343Y-192857200D01*
X202502200Y-193714343D02*
X202359343Y-193785771D01*
X202002200Y-193785771D01*
X201859343Y-193714343D01*
X201787914Y-193571486D01*
X201787914Y-193428629D01*
X201859343Y-193285771D01*
X202002200Y-193214343D01*
X202359343Y-193214343D01*
X202502200Y-193142914D01*
X203002200Y-192785771D02*
X203573629Y-192785771D01*
X203216486Y-192285771D02*
X203216486Y-193571486D01*
X203287914Y-193714343D01*
X203430772Y-193785771D01*
X203573629Y-193785771D01*
X204645057Y-193714343D02*
X204502200Y-193785771D01*
X204216486Y-193785771D01*
X204073629Y-193714343D01*
X204002200Y-193571486D01*
X204002200Y-193000057D01*
X204073629Y-192857200D01*
X204216486Y-192785771D01*
X204502200Y-192785771D01*
X204645057Y-192857200D01*
X204716486Y-193000057D01*
X204716486Y-193142914D01*
X204002200Y-193285771D01*
X205359343Y-193642914D02*
X205430771Y-193714343D01*
X205359343Y-193785771D01*
X205287914Y-193714343D01*
X205359343Y-193642914D01*
X205359343Y-193785771D01*
X205359343Y-192857200D02*
X205430771Y-192928629D01*
X205359343Y-193000057D01*
X205287914Y-192928629D01*
X205359343Y-192857200D01*
X205359343Y-193000057D01*
D10*
D11*
X177002200Y-194507200D02*
X285002200Y-194507200D01*
D10*
D11*
X178359343Y-196585771D02*
X178359343Y-195085771D01*
X179216486Y-196585771D02*
X178573629Y-195728629D01*
X179216486Y-195085771D02*
X178359343Y-195942914D01*
X179859343Y-196585771D02*
X179859343Y-195585771D01*
X179859343Y-195085771D02*
X179787914Y-195157200D01*
X179859343Y-195228629D01*
X179930771Y-195157200D01*
X179859343Y-195085771D01*
X179859343Y-195228629D01*
X181430772Y-196442914D02*
X181359343Y-196514343D01*
X181145057Y-196585771D01*
X181002200Y-196585771D01*
X180787915Y-196514343D01*
X180645057Y-196371486D01*
X180573629Y-196228629D01*
X180502200Y-195942914D01*
X180502200Y-195728629D01*
X180573629Y-195442914D01*
X180645057Y-195300057D01*
X180787915Y-195157200D01*
X181002200Y-195085771D01*
X181145057Y-195085771D01*
X181359343Y-195157200D01*
X181430772Y-195228629D01*
X182716486Y-196585771D02*
X182716486Y-195800057D01*
X182645057Y-195657200D01*
X182502200Y-195585771D01*
X182216486Y-195585771D01*
X182073629Y-195657200D01*
X182716486Y-196514343D02*
X182573629Y-196585771D01*
X182216486Y-196585771D01*
X182073629Y-196514343D01*
X182002200Y-196371486D01*
X182002200Y-196228629D01*
X182073629Y-196085771D01*
X182216486Y-196014343D01*
X182573629Y-196014343D01*
X182716486Y-195942914D01*
X184073629Y-196585771D02*
X184073629Y-195085771D01*
X184073629Y-196514343D02*
X183930772Y-196585771D01*
X183645058Y-196585771D01*
X183502200Y-196514343D01*
X183430772Y-196442914D01*
X183359343Y-196300057D01*
X183359343Y-195871486D01*
X183430772Y-195728629D01*
X183502200Y-195657200D01*
X183645058Y-195585771D01*
X183930772Y-195585771D01*
X184073629Y-195657200D01*
X185930772Y-195800057D02*
X186430772Y-195800057D01*
X186645058Y-196585771D02*
X185930772Y-196585771D01*
X185930772Y-195085771D01*
X186645058Y-195085771D01*
X187287915Y-196442914D02*
X187359343Y-196514343D01*
X187287915Y-196585771D01*
X187216486Y-196514343D01*
X187287915Y-196442914D01*
X187287915Y-196585771D01*
X188002201Y-196585771D02*
X188002201Y-195085771D01*
X188359344Y-195085771D01*
X188573629Y-195157200D01*
X188716487Y-195300057D01*
X188787915Y-195442914D01*
X188859344Y-195728629D01*
X188859344Y-195942914D01*
X188787915Y-196228629D01*
X188716487Y-196371486D01*
X188573629Y-196514343D01*
X188359344Y-196585771D01*
X188002201Y-196585771D01*
X189502201Y-196442914D02*
X189573629Y-196514343D01*
X189502201Y-196585771D01*
X189430772Y-196514343D01*
X189502201Y-196442914D01*
X189502201Y-196585771D01*
X190145058Y-196157200D02*
X190859344Y-196157200D01*
X190002201Y-196585771D02*
X190502201Y-195085771D01*
X191002201Y-196585771D01*
X191502201Y-196442914D02*
X191573629Y-196514343D01*
X191502201Y-196585771D01*
X191430772Y-196514343D01*
X191502201Y-196442914D01*
X191502201Y-196585771D01*
X194502201Y-196585771D02*
X194502201Y-195085771D01*
X194645058Y-196014343D02*
X195073629Y-196585771D01*
X195073629Y-195585771D02*
X194502201Y-196157200D01*
X195716487Y-196585771D02*
X195716487Y-195585771D01*
X195716487Y-195085771D02*
X195645058Y-195157200D01*
X195716487Y-195228629D01*
X195787915Y-195157200D01*
X195716487Y-195085771D01*
X195716487Y-195228629D01*
X197073630Y-196514343D02*
X196930773Y-196585771D01*
X196645059Y-196585771D01*
X196502201Y-196514343D01*
X196430773Y-196442914D01*
X196359344Y-196300057D01*
X196359344Y-195871486D01*
X196430773Y-195728629D01*
X196502201Y-195657200D01*
X196645059Y-195585771D01*
X196930773Y-195585771D01*
X197073630Y-195657200D01*
X198359344Y-196585771D02*
X198359344Y-195800057D01*
X198287915Y-195657200D01*
X198145058Y-195585771D01*
X197859344Y-195585771D01*
X197716487Y-195657200D01*
X198359344Y-196514343D02*
X198216487Y-196585771D01*
X197859344Y-196585771D01*
X197716487Y-196514343D01*
X197645058Y-196371486D01*
X197645058Y-196228629D01*
X197716487Y-196085771D01*
X197859344Y-196014343D01*
X198216487Y-196014343D01*
X198359344Y-195942914D01*
X199716487Y-196585771D02*
X199716487Y-195085771D01*
X199716487Y-196514343D02*
X199573630Y-196585771D01*
X199287916Y-196585771D01*
X199145058Y-196514343D01*
X199073630Y-196442914D01*
X199002201Y-196300057D01*
X199002201Y-195871486D01*
X199073630Y-195728629D01*
X199145058Y-195657200D01*
X199287916Y-195585771D01*
X199573630Y-195585771D01*
X199716487Y-195657200D01*
X202216487Y-195585771D02*
X202216487Y-196585771D01*
X201859344Y-195014343D02*
X201502201Y-196085771D01*
X202430773Y-196085771D01*
X203002201Y-196442914D02*
X203073629Y-196514343D01*
X203002201Y-196585771D01*
X202930772Y-196514343D01*
X203002201Y-196442914D01*
X203002201Y-196585771D01*
X204002201Y-195085771D02*
X204145058Y-195085771D01*
X204287915Y-195157200D01*
X204359344Y-195228629D01*
X204430773Y-195371486D01*
X204502201Y-195657200D01*
X204502201Y-196014343D01*
X204430773Y-196300057D01*
X204359344Y-196442914D01*
X204287915Y-196514343D01*
X204145058Y-196585771D01*
X204002201Y-196585771D01*
X203859344Y-196514343D01*
X203787915Y-196442914D01*
X203716487Y-196300057D01*
X203645058Y-196014343D01*
X203645058Y-195657200D01*
X203716487Y-195371486D01*
X203787915Y-195228629D01*
X203859344Y-195157200D01*
X204002201Y-195085771D01*
X205145058Y-196442914D02*
X205216486Y-196514343D01*
X205145058Y-196585771D01*
X205073629Y-196514343D01*
X205145058Y-196442914D01*
X205145058Y-196585771D01*
X206145058Y-195085771D02*
X206287915Y-195085771D01*
X206430772Y-195157200D01*
X206502201Y-195228629D01*
X206573630Y-195371486D01*
X206645058Y-195657200D01*
X206645058Y-196014343D01*
X206573630Y-196300057D01*
X206502201Y-196442914D01*
X206430772Y-196514343D01*
X206287915Y-196585771D01*
X206145058Y-196585771D01*
X206002201Y-196514343D01*
X205930772Y-196442914D01*
X205859344Y-196300057D01*
X205787915Y-196014343D01*
X205787915Y-195657200D01*
X205859344Y-195371486D01*
X205930772Y-195228629D01*
X206002201Y-195157200D01*
X206145058Y-195085771D01*
X207287915Y-196014343D02*
X208430772Y-196014343D01*
X209145058Y-196585771D02*
X209145058Y-195585771D01*
X209145058Y-195871486D02*
X209216486Y-195728629D01*
X209287915Y-195657200D01*
X209430772Y-195585771D01*
X209573629Y-195585771D01*
X210716486Y-196514343D02*
X210573629Y-196585771D01*
X210287915Y-196585771D01*
X210145057Y-196514343D01*
X210073629Y-196442914D01*
X210002200Y-196300057D01*
X210002200Y-195871486D01*
X210073629Y-195728629D01*
X210145057Y-195657200D01*
X210287915Y-195585771D01*
X210573629Y-195585771D01*
X210716486Y-195657200D01*
X212145057Y-196585771D02*
X211287914Y-196585771D01*
X211716486Y-196585771D02*
X211716486Y-195085771D01*
X211573629Y-195300057D01*
X211430771Y-195442914D01*
X211287914Y-195514343D01*
X212787914Y-196014343D02*
X213930771Y-196014343D01*
X214573628Y-196514343D02*
X214716485Y-196585771D01*
X215002200Y-196585771D01*
X215145057Y-196514343D01*
X215216485Y-196371486D01*
X215216485Y-196300057D01*
X215145057Y-196157200D01*
X215002200Y-196085771D01*
X214787914Y-196085771D01*
X214645057Y-196014343D01*
X214573628Y-195871486D01*
X214573628Y-195800057D01*
X214645057Y-195657200D01*
X214787914Y-195585771D01*
X215002200Y-195585771D01*
X215145057Y-195657200D01*
X215645057Y-195585771D02*
X216216486Y-195585771D01*
X215859343Y-195085771D02*
X215859343Y-196371486D01*
X215930771Y-196514343D01*
X216073629Y-196585771D01*
X216216486Y-196585771D01*
X217359343Y-196585771D02*
X217359343Y-195800057D01*
X217287914Y-195657200D01*
X217145057Y-195585771D01*
X216859343Y-195585771D01*
X216716486Y-195657200D01*
X217359343Y-196514343D02*
X217216486Y-196585771D01*
X216859343Y-196585771D01*
X216716486Y-196514343D01*
X216645057Y-196371486D01*
X216645057Y-196228629D01*
X216716486Y-196085771D01*
X216859343Y-196014343D01*
X217216486Y-196014343D01*
X217359343Y-195942914D01*
X218073629Y-196585771D02*
X218073629Y-195085771D01*
X218073629Y-195657200D02*
X218216486Y-195585771D01*
X218502200Y-195585771D01*
X218645057Y-195657200D01*
X218716486Y-195728629D01*
X218787915Y-195871486D01*
X218787915Y-196300057D01*
X218716486Y-196442914D01*
X218645057Y-196514343D01*
X218502200Y-196585771D01*
X218216486Y-196585771D01*
X218073629Y-196514343D01*
X219645058Y-196585771D02*
X219502200Y-196514343D01*
X219430772Y-196371486D01*
X219430772Y-195085771D01*
X220787914Y-196514343D02*
X220645057Y-196585771D01*
X220359343Y-196585771D01*
X220216486Y-196514343D01*
X220145057Y-196371486D01*
X220145057Y-195800057D01*
X220216486Y-195657200D01*
X220359343Y-195585771D01*
X220645057Y-195585771D01*
X220787914Y-195657200D01*
X220859343Y-195800057D01*
X220859343Y-195942914D01*
X220145057Y-196085771D01*
D10*
D11*
X177002200Y-191507200D02*
X285002200Y-191507200D01*
D10*
D12*
X264216486Y-193785771D02*
X263716486Y-193071486D01*
X263359343Y-193785771D02*
X263359343Y-192285771D01*
X263930771Y-192285771D01*
X264073629Y-192357200D01*
X264145057Y-192428629D01*
X264216486Y-192571486D01*
X264216486Y-192785771D01*
X264145057Y-192928629D01*
X264073629Y-193000057D01*
X263930771Y-193071486D01*
X263359343Y-193071486D01*
X265430771Y-193714343D02*
X265287914Y-193785771D01*
X265002200Y-193785771D01*
X264859343Y-193714343D01*
X264787914Y-193571486D01*
X264787914Y-193000057D01*
X264859343Y-192857200D01*
X265002200Y-192785771D01*
X265287914Y-192785771D01*
X265430771Y-192857200D01*
X265502200Y-193000057D01*
X265502200Y-193142914D01*
X264787914Y-193285771D01*
X266002200Y-192785771D02*
X266359343Y-193785771D01*
X266716485Y-192785771D01*
X267287914Y-193642914D02*
X267359342Y-193714343D01*
X267287914Y-193785771D01*
X267216485Y-193714343D01*
X267287914Y-193642914D01*
X267287914Y-193785771D01*
X267287914Y-192857200D02*
X267359342Y-192928629D01*
X267287914Y-193000057D01*
X267216485Y-192928629D01*
X267287914Y-192857200D01*
X267287914Y-193000057D01*
D10*
D11*
X178287914Y-193714343D02*
X178502200Y-193785771D01*
X178859343Y-193785771D01*
X179002200Y-193714343D01*
X179073629Y-193642914D01*
X179145057Y-193500057D01*
X179145057Y-193357200D01*
X179073629Y-193214343D01*
X179002200Y-193142914D01*
X178859343Y-193071486D01*
X178573629Y-193000057D01*
X178430771Y-192928629D01*
X178359343Y-192857200D01*
X178287914Y-192714343D01*
X178287914Y-192571486D01*
X178359343Y-192428629D01*
X178430771Y-192357200D01*
X178573629Y-192285771D01*
X178930771Y-192285771D01*
X179145057Y-192357200D01*
X179787914Y-193785771D02*
X179787914Y-192785771D01*
X179787914Y-192285771D02*
X179716485Y-192357200D01*
X179787914Y-192428629D01*
X179859342Y-192357200D01*
X179787914Y-192285771D01*
X179787914Y-192428629D01*
X180359343Y-192785771D02*
X181145057Y-192785771D01*
X180359343Y-193785771D01*
X181145057Y-193785771D01*
X182287914Y-193714343D02*
X182145057Y-193785771D01*
X181859343Y-193785771D01*
X181716486Y-193714343D01*
X181645057Y-193571486D01*
X181645057Y-193000057D01*
X181716486Y-192857200D01*
X181859343Y-192785771D01*
X182145057Y-192785771D01*
X182287914Y-192857200D01*
X182359343Y-193000057D01*
X182359343Y-193142914D01*
X181645057Y-193285771D01*
X183002200Y-193642914D02*
X183073628Y-193714343D01*
X183002200Y-193785771D01*
X182930771Y-193714343D01*
X183002200Y-193642914D01*
X183002200Y-193785771D01*
X183002200Y-192857200D02*
X183073628Y-192928629D01*
X183002200Y-193000057D01*
X182930771Y-192928629D01*
X183002200Y-192857200D01*
X183002200Y-193000057D01*
X184787914Y-193357200D02*
X185502200Y-193357200D01*
X184645057Y-193785771D02*
X185145057Y-192285771D01*
X185645057Y-193785771D01*
X186787914Y-192785771D02*
X186787914Y-193785771D01*
X186430771Y-192214343D02*
X186073628Y-193285771D01*
X187002200Y-193285771D01*
D10*
D11*
X263359343Y-196585771D02*
X263359343Y-195085771D01*
X264716486Y-196585771D02*
X264716486Y-195085771D01*
X264716486Y-196514343D02*
X264573629Y-196585771D01*
X264287915Y-196585771D01*
X264145057Y-196514343D01*
X264073629Y-196442914D01*
X264002200Y-196300057D01*
X264002200Y-195871486D01*
X264073629Y-195728629D01*
X264145057Y-195657200D01*
X264287915Y-195585771D01*
X264573629Y-195585771D01*
X264716486Y-195657200D01*
X265430772Y-196442914D02*
X265502200Y-196514343D01*
X265430772Y-196585771D01*
X265359343Y-196514343D01*
X265430772Y-196442914D01*
X265430772Y-196585771D01*
X265430772Y-195657200D02*
X265502200Y-195728629D01*
X265430772Y-195800057D01*
X265359343Y-195728629D01*
X265430772Y-195657200D01*
X265430772Y-195800057D01*
X268073629Y-196585771D02*
X267216486Y-196585771D01*
X267645058Y-196585771D02*
X267645058Y-195085771D01*
X267502201Y-195300057D01*
X267359343Y-195442914D01*
X267216486Y-195514343D01*
X269787914Y-195014343D02*
X268502200Y-196942914D01*
X271073629Y-196585771D02*
X270216486Y-196585771D01*
X270645058Y-196585771D02*
X270645058Y-195085771D01*
X270502201Y-195300057D01*
X270359343Y-195442914D01*
X270216486Y-195514343D01*
D10*
D11*
X177002200Y-187507200D02*
X285002200Y-187507200D01*
D10*
D13*
X178454581Y-188211962D02*
X179597438Y-188211962D01*
X178776010Y-190211962D02*
X179026010Y-188211962D01*
X180014105Y-190211962D02*
X180180771Y-188878629D01*
X180264105Y-188211962D02*
X180156962Y-188307200D01*
X180240295Y-188402438D01*
X180347439Y-188307200D01*
X180264105Y-188211962D01*
X180240295Y-188402438D01*
X180847438Y-188878629D02*
X181609343Y-188878629D01*
X181216486Y-188211962D02*
X181002200Y-189926248D01*
X181073630Y-190116724D01*
X181252201Y-190211962D01*
X181442677Y-190211962D01*
X182395058Y-190211962D02*
X182216487Y-190116724D01*
X182145057Y-189926248D01*
X182359343Y-188211962D01*
X183930772Y-190116724D02*
X183728391Y-190211962D01*
X183347439Y-190211962D01*
X183168867Y-190116724D01*
X183097438Y-189926248D01*
X183192676Y-189164343D01*
X183311724Y-188973867D01*
X183514105Y-188878629D01*
X183895057Y-188878629D01*
X184073629Y-188973867D01*
X184145057Y-189164343D01*
X184121248Y-189354819D01*
X183145057Y-189545295D01*
X184895057Y-190021486D02*
X184978392Y-190116724D01*
X184871248Y-190211962D01*
X184787915Y-190116724D01*
X184895057Y-190021486D01*
X184871248Y-190211962D01*
X185026010Y-188973867D02*
X185109344Y-189069105D01*
X185002200Y-189164343D01*
X184918867Y-189069105D01*
X185026010Y-188973867D01*
X185002200Y-189164343D01*
D10*
D11*
X178859343Y-185600057D02*
X178359343Y-185600057D01*
X178359343Y-186385771D02*
X178359343Y-184885771D01*
X179073629Y-184885771D01*
X179645057Y-186385771D02*
X179645057Y-185385771D01*
X179645057Y-184885771D02*
X179573628Y-184957200D01*
X179645057Y-185028629D01*
X179716485Y-184957200D01*
X179645057Y-184885771D01*
X179645057Y-185028629D01*
X180573629Y-186385771D02*
X180430771Y-186314343D01*
X180359343Y-186171486D01*
X180359343Y-184885771D01*
X181716485Y-186314343D02*
X181573628Y-186385771D01*
X181287914Y-186385771D01*
X181145057Y-186314343D01*
X181073628Y-186171486D01*
X181073628Y-185600057D01*
X181145057Y-185457200D01*
X181287914Y-185385771D01*
X181573628Y-185385771D01*
X181716485Y-185457200D01*
X181787914Y-185600057D01*
X181787914Y-185742914D01*
X181073628Y-185885771D01*
X182430771Y-186242914D02*
X182502199Y-186314343D01*
X182430771Y-186385771D01*
X182359342Y-186314343D01*
X182430771Y-186242914D01*
X182430771Y-186385771D01*
X182430771Y-185457200D02*
X182502199Y-185528629D01*
X182430771Y-185600057D01*
X182359342Y-185528629D01*
X182430771Y-185457200D01*
X182430771Y-185600057D01*
X184859342Y-186314343D02*
X184716485Y-186385771D01*
X184430771Y-186385771D01*
X184287914Y-186314343D01*
X184216485Y-186171486D01*
X184216485Y-185600057D01*
X184287914Y-185457200D01*
X184430771Y-185385771D01*
X184716485Y-185385771D01*
X184859342Y-185457200D01*
X184930771Y-185600057D01*
X184930771Y-185742914D01*
X184216485Y-185885771D01*
X185573628Y-186385771D02*
X185573628Y-185385771D01*
X185573628Y-184885771D02*
X185502199Y-184957200D01*
X185573628Y-185028629D01*
X185645056Y-184957200D01*
X185573628Y-184885771D01*
X185573628Y-185028629D01*
X186287914Y-185385771D02*
X186287914Y-186385771D01*
X186287914Y-185528629D02*
X186359342Y-185457200D01*
X186502200Y-185385771D01*
X186716485Y-185385771D01*
X186859342Y-185457200D01*
X186930771Y-185600057D01*
X186930771Y-186385771D01*
X187645057Y-186385771D02*
X187645057Y-184885771D01*
X187787914Y-185814343D02*
X188216485Y-186385771D01*
X188216485Y-185385771D02*
X187645057Y-185957200D01*
X189502200Y-186385771D02*
X189502200Y-184885771D01*
X189502200Y-186314343D02*
X189359343Y-186385771D01*
X189073629Y-186385771D01*
X188930771Y-186314343D01*
X188859343Y-186242914D01*
X188787914Y-186100057D01*
X188787914Y-185671486D01*
X188859343Y-185528629D01*
X188930771Y-185457200D01*
X189073629Y-185385771D01*
X189359343Y-185385771D01*
X189502200Y-185457200D01*
X190216486Y-186385771D02*
X190216486Y-185385771D01*
X190216486Y-184885771D02*
X190145057Y-184957200D01*
X190216486Y-185028629D01*
X190287914Y-184957200D01*
X190216486Y-184885771D01*
X190216486Y-185028629D01*
X190859343Y-186314343D02*
X191002200Y-186385771D01*
X191287915Y-186385771D01*
X191430772Y-186314343D01*
X191502200Y-186171486D01*
X191502200Y-186100057D01*
X191430772Y-185957200D01*
X191287915Y-185885771D01*
X191073629Y-185885771D01*
X190930772Y-185814343D01*
X190859343Y-185671486D01*
X190859343Y-185600057D01*
X190930772Y-185457200D01*
X191073629Y-185385771D01*
X191287915Y-185385771D01*
X191430772Y-185457200D01*
X192145058Y-185385771D02*
X192145058Y-186885771D01*
X192145058Y-185457200D02*
X192287915Y-185385771D01*
X192573629Y-185385771D01*
X192716486Y-185457200D01*
X192787915Y-185528629D01*
X192859344Y-185671486D01*
X192859344Y-186100057D01*
X192787915Y-186242914D01*
X192716486Y-186314343D01*
X192573629Y-186385771D01*
X192287915Y-186385771D01*
X192145058Y-186314343D01*
X193716487Y-186385771D02*
X193573629Y-186314343D01*
X193502201Y-186171486D01*
X193502201Y-184885771D01*
X194930772Y-186385771D02*
X194930772Y-185600057D01*
X194859343Y-185457200D01*
X194716486Y-185385771D01*
X194430772Y-185385771D01*
X194287915Y-185457200D01*
X194930772Y-186314343D02*
X194787915Y-186385771D01*
X194430772Y-186385771D01*
X194287915Y-186314343D01*
X194216486Y-186171486D01*
X194216486Y-186028629D01*
X194287915Y-185885771D01*
X194430772Y-185814343D01*
X194787915Y-185814343D01*
X194930772Y-185742914D01*
X195502201Y-185385771D02*
X195859344Y-186385771D01*
X196216486Y-185385771D02*
X195859344Y-186385771D01*
X195716486Y-186742914D01*
X195645058Y-186814343D01*
X195502201Y-186885771D01*
X196787915Y-186242914D02*
X196859343Y-186314343D01*
X196787915Y-186385771D01*
X196716486Y-186314343D01*
X196787915Y-186242914D01*
X196787915Y-186385771D01*
X197502201Y-186385771D02*
X197502201Y-184885771D01*
X197645058Y-185814343D02*
X198073629Y-186385771D01*
X198073629Y-185385771D02*
X197502201Y-185957200D01*
X198716487Y-186385771D02*
X198716487Y-185385771D01*
X198716487Y-184885771D02*
X198645058Y-184957200D01*
X198716487Y-185028629D01*
X198787915Y-184957200D01*
X198716487Y-184885771D01*
X198716487Y-185028629D01*
X200073630Y-186314343D02*
X199930773Y-186385771D01*
X199645059Y-186385771D01*
X199502201Y-186314343D01*
X199430773Y-186242914D01*
X199359344Y-186100057D01*
X199359344Y-185671486D01*
X199430773Y-185528629D01*
X199502201Y-185457200D01*
X199645059Y-185385771D01*
X199930773Y-185385771D01*
X200073630Y-185457200D01*
X201359344Y-186385771D02*
X201359344Y-185600057D01*
X201287915Y-185457200D01*
X201145058Y-185385771D01*
X200859344Y-185385771D01*
X200716487Y-185457200D01*
X201359344Y-186314343D02*
X201216487Y-186385771D01*
X200859344Y-186385771D01*
X200716487Y-186314343D01*
X200645058Y-186171486D01*
X200645058Y-186028629D01*
X200716487Y-185885771D01*
X200859344Y-185814343D01*
X201216487Y-185814343D01*
X201359344Y-185742914D01*
X202716487Y-186385771D02*
X202716487Y-184885771D01*
X202716487Y-186314343D02*
X202573630Y-186385771D01*
X202287916Y-186385771D01*
X202145058Y-186314343D01*
X202073630Y-186242914D01*
X202002201Y-186100057D01*
X202002201Y-185671486D01*
X202073630Y-185528629D01*
X202145058Y-185457200D01*
X202287916Y-185385771D01*
X202573630Y-185385771D01*
X202716487Y-185457200D01*
X203073630Y-186528629D02*
X204216487Y-186528629D01*
X204573630Y-185385771D02*
X204573630Y-186885771D01*
X204573630Y-185457200D02*
X204716487Y-185385771D01*
X205002201Y-185385771D01*
X205145058Y-185457200D01*
X205216487Y-185528629D01*
X205287916Y-185671486D01*
X205287916Y-186100057D01*
X205216487Y-186242914D01*
X205145058Y-186314343D01*
X205002201Y-186385771D01*
X204716487Y-186385771D01*
X204573630Y-186314343D01*
X206573630Y-186314343D02*
X206430773Y-186385771D01*
X206145059Y-186385771D01*
X206002201Y-186314343D01*
X205930773Y-186242914D01*
X205859344Y-186100057D01*
X205859344Y-185671486D01*
X205930773Y-185528629D01*
X206002201Y-185457200D01*
X206145059Y-185385771D01*
X206430773Y-185385771D01*
X206573630Y-185457200D01*
X207216487Y-186385771D02*
X207216487Y-184885771D01*
X207216487Y-185457200D02*
X207359344Y-185385771D01*
X207645058Y-185385771D01*
X207787915Y-185457200D01*
X207859344Y-185528629D01*
X207930773Y-185671486D01*
X207930773Y-186100057D01*
X207859344Y-186242914D01*
X207787915Y-186314343D01*
X207645058Y-186385771D01*
X207359344Y-186385771D01*
X207216487Y-186314343D01*
D10*
D11*
X177002200Y-181507200D02*
X285002200Y-181507200D01*
D10*
D11*
X178287914Y-183614343D02*
X178502200Y-183685771D01*
X178859343Y-183685771D01*
X179002200Y-183614343D01*
X179073629Y-183542914D01*
X179145057Y-183400057D01*
X179145057Y-183257200D01*
X179073629Y-183114343D01*
X179002200Y-183042914D01*
X178859343Y-182971486D01*
X178573629Y-182900057D01*
X178430771Y-182828629D01*
X178359343Y-182757200D01*
X178287914Y-182614343D01*
X178287914Y-182471486D01*
X178359343Y-182328629D01*
X178430771Y-182257200D01*
X178573629Y-182185771D01*
X178930771Y-182185771D01*
X179145057Y-182257200D01*
X179787914Y-183685771D02*
X179787914Y-182185771D01*
X180430771Y-183685771D02*
X180430771Y-182900057D01*
X180359342Y-182757200D01*
X180216485Y-182685771D01*
X180002200Y-182685771D01*
X179859342Y-182757200D01*
X179787914Y-182828629D01*
X181716485Y-183614343D02*
X181573628Y-183685771D01*
X181287914Y-183685771D01*
X181145057Y-183614343D01*
X181073628Y-183471486D01*
X181073628Y-182900057D01*
X181145057Y-182757200D01*
X181287914Y-182685771D01*
X181573628Y-182685771D01*
X181716485Y-182757200D01*
X181787914Y-182900057D01*
X181787914Y-183042914D01*
X181073628Y-183185771D01*
X183002199Y-183614343D02*
X182859342Y-183685771D01*
X182573628Y-183685771D01*
X182430771Y-183614343D01*
X182359342Y-183471486D01*
X182359342Y-182900057D01*
X182430771Y-182757200D01*
X182573628Y-182685771D01*
X182859342Y-182685771D01*
X183002199Y-182757200D01*
X183073628Y-182900057D01*
X183073628Y-183042914D01*
X182359342Y-183185771D01*
X183502199Y-182685771D02*
X184073628Y-182685771D01*
X183716485Y-182185771D02*
X183716485Y-183471486D01*
X183787913Y-183614343D01*
X183930771Y-183685771D01*
X184073628Y-183685771D01*
X184573628Y-183542914D02*
X184645056Y-183614343D01*
X184573628Y-183685771D01*
X184502199Y-183614343D01*
X184573628Y-183542914D01*
X184573628Y-183685771D01*
X184573628Y-182757200D02*
X184645056Y-182828629D01*
X184573628Y-182900057D01*
X184502199Y-182828629D01*
X184573628Y-182757200D01*
X184573628Y-182900057D01*
D10*
D11*
X197002200Y-191507200D02*
X197002200Y-194507200D01*
D10*
D11*
X261002200Y-191507200D02*
X261002200Y-198007200D01*
D10*
X50000000Y-138000000D02*
X50000000Y-38000000D01*
X150000000Y-138000000D02*
X50000000Y-138000000D01*
X150000000Y-38000000D02*
X150000000Y-138000000D01*
X50000000Y-38000000D02*
X150000000Y-38000000D01*
D14*
X55812540Y-96500900D03*
X55812540Y-101500900D03*
D15*
X53112540Y-95500900D03*
X53112540Y-102500900D03*
D16*
X54500000Y-86730000D03*
X54500000Y-89270000D03*
D14*
X55812540Y-101500900D03*
X55812540Y-96500900D03*
D15*
X53112540Y-102500900D03*
X53112540Y-95500900D03*
D17*
X118250000Y-109000000D03*
D18*
X118250000Y-106460000D03*
X118250000Y-103920000D03*
X118250000Y-101380000D03*
X118250000Y-98840000D03*
D19*
X130000000Y-60000000D03*
X130000000Y-50000000D03*
X130000000Y-41500000D03*
X130000000Y-56700000D03*
X130000000Y-46500000D03*
X130000000Y-53500000D03*
D20*
X57250000Y-82750000D03*
X57250000Y-71250000D03*
X57250000Y-60750000D03*
X57250000Y-49250000D03*
X59000000Y-117500000D03*
X139500006Y-67500000D03*
X144875020Y-69766956D03*
X120000000Y-89600000D03*
X129750000Y-73000000D03*
X118750000Y-81750000D03*
X107250000Y-100000000D03*
X93250000Y-119250000D03*
X99500000Y-119325031D03*
X104000000Y-120500000D03*
X104750000Y-135500000D03*
X111500000Y-134000000D03*
X83750000Y-134250000D03*
X130250000Y-114750000D03*
X82350000Y-91750000D03*
X104250000Y-97250000D03*
X82000000Y-46500000D03*
X85750000Y-48750000D03*
X126982631Y-92000000D03*
X140499996Y-60000000D03*
X138250000Y-82750000D03*
X145500000Y-53750000D03*
X137500000Y-58500000D03*
X106500000Y-63250000D03*
X144350000Y-72500000D03*
X134250000Y-63250000D03*
X99500000Y-49500000D03*
X94500000Y-42500000D03*
X92500000Y-49500000D03*
X114500000Y-50000000D03*
X77000000Y-51500000D03*
X76500000Y-46000000D03*
X58500000Y-99249988D03*
X111250000Y-73750014D03*
X52400000Y-105000000D03*
X59750000Y-99250000D03*
X53590372Y-113738452D03*
X58250000Y-63000000D03*
X126310547Y-109149099D03*
X106750000Y-108500000D03*
X136000000Y-109012860D03*
X131750000Y-108983699D03*
X104000000Y-108500000D03*
X112750002Y-100000000D03*
X129750000Y-71499992D03*
X113500000Y-82000002D03*
X103750000Y-72500000D03*
X126993936Y-93500000D03*
X138250000Y-84250000D03*
X116305579Y-82653327D03*
X121000000Y-61000000D03*
X142500000Y-73749998D03*
X146499996Y-73750000D03*
X133750000Y-99500000D03*
X133249996Y-104250000D03*
X55687565Y-106250000D03*
X55800000Y-112500000D03*
X55998080Y-117900000D03*
X54173939Y-123177981D03*
X135250000Y-76125032D03*
X142000000Y-59000000D03*
X134000000Y-76125032D03*
X141624980Y-61050013D03*
X132750000Y-76125032D03*
X140249998Y-62000002D03*
X123500000Y-80250000D03*
X145000000Y-63750000D03*
X123602670Y-76412191D03*
X144250000Y-65750000D03*
X125624980Y-75500012D03*
X144874980Y-66281437D03*
X144749994Y-61000000D03*
X136750000Y-69000002D03*
X144750012Y-59250000D03*
X126124980Y-73700000D03*
X141970483Y-66440965D03*
X122100000Y-75400000D03*
X131750000Y-65750000D03*
X125500000Y-79250000D03*
X147000002Y-64999998D03*
X132000002Y-64500000D03*
X121000000Y-79000000D03*
X129499999Y-90500000D03*
X126000000Y-83750000D03*
X98250004Y-68000000D03*
X78999996Y-48750000D03*
X99065694Y-67184306D03*
X80250000Y-49000000D03*
X136000000Y-83500000D03*
X105250000Y-130250000D03*
X128249998Y-106000000D03*
X88150300Y-134099700D03*
X120358573Y-81857317D03*
X114000000Y-70250000D03*
X111749980Y-85500012D03*
X123750000Y-84750000D03*
X115500000Y-83750000D03*
X112250000Y-82000008D03*
X120999978Y-86750000D03*
X113250012Y-86750000D03*
X127500000Y-90250010D03*
X114226918Y-88925041D03*
X126750002Y-87000000D03*
X110000000Y-83000000D03*
X112703913Y-83500021D03*
X127800013Y-87000000D03*
X125750000Y-87000000D03*
X107908043Y-83591955D03*
X124000004Y-85750000D03*
X107500000Y-81250000D03*
X125500000Y-81750000D03*
X114250000Y-73000000D03*
X124272284Y-81624980D03*
X113750000Y-73750000D03*
X131274947Y-87271324D03*
X109250000Y-87000000D03*
X131274947Y-86025020D03*
X109250000Y-85750000D03*
X87000000Y-124250002D03*
X132508958Y-81497014D03*
X96250002Y-123250000D03*
X135502986Y-80758958D03*
X86500000Y-122250000D03*
X131750000Y-82000006D03*
X88000000Y-125000000D03*
X135250000Y-80000000D03*
X111000000Y-82000000D03*
X129000000Y-81000000D03*
X109250006Y-81250000D03*
X128499997Y-80000003D03*
X133499990Y-65174980D03*
X121832736Y-77300000D03*
X53851920Y-120250000D03*
X55838595Y-125000000D03*
X131499994Y-83500000D03*
X52750000Y-80975000D03*
X52750000Y-73025000D03*
X126449994Y-90253144D03*
X52750000Y-51000000D03*
X52750000Y-58950000D03*
X144000000Y-71000012D03*
X135750004Y-82000000D03*
D21*
X118750000Y-81325736D02*
X118750000Y-81750000D01*
X111250000Y-73750014D02*
X118750000Y-81250014D01*
X118750000Y-81250014D02*
X118750000Y-81325736D01*
X53112540Y-89407460D02*
X53250000Y-89270000D01*
X103750000Y-72500000D02*
X67750000Y-72500000D01*
X67750000Y-72500000D02*
X58250000Y-63000000D01*
X113924264Y-82000002D02*
X113500000Y-82000002D01*
X115652254Y-82000002D02*
X113924264Y-82000002D01*
X116305579Y-82653327D02*
X115652254Y-82000002D01*
X121000000Y-61000000D02*
X121000000Y-50500000D01*
X121000000Y-50500000D02*
X130000000Y-41500000D01*
X142799999Y-74049997D02*
X142500000Y-73749998D01*
X148250000Y-73250000D02*
X146874998Y-74625002D01*
X148250000Y-58000000D02*
X148250000Y-73250000D01*
X143375004Y-74625002D02*
X142799999Y-74049997D01*
X146874998Y-74625002D02*
X143375004Y-74625002D01*
X130000000Y-46500000D02*
X136750000Y-46500000D01*
X136750000Y-46500000D02*
X148250000Y-58000000D01*
X130000000Y-53500000D02*
X142500000Y-53500000D01*
X142500000Y-53500000D02*
X147750000Y-58750000D01*
X146500000Y-73750000D02*
X146499996Y-73750000D01*
X147750000Y-58750000D02*
X147750000Y-72500000D01*
X147750000Y-72500000D02*
X146500000Y-73750000D01*
X133750000Y-99924264D02*
X133750000Y-99500000D01*
X133750000Y-103749996D02*
X133750000Y-99924264D01*
X133249996Y-104250000D02*
X133750000Y-103749996D01*
X145000000Y-63750000D02*
X146000000Y-64750000D01*
X134300005Y-78199995D02*
X125550005Y-78199995D01*
X146000000Y-64750000D02*
X146000000Y-66500000D01*
X146000000Y-66500000D02*
X134300005Y-78199995D01*
X125550005Y-78199995D02*
X123799999Y-79950001D01*
X123799999Y-79950001D02*
X123500000Y-80250000D01*
X125514861Y-74500000D02*
X123902669Y-76112192D01*
X135500000Y-74500000D02*
X125514861Y-74500000D01*
X123902669Y-76112192D02*
X123602670Y-76412191D01*
X144250000Y-65750000D02*
X135500000Y-74500000D01*
X126049244Y-75500012D02*
X125624980Y-75500012D01*
X135656405Y-75500012D02*
X126049244Y-75500012D01*
X144874980Y-66281437D02*
X135656405Y-75500012D01*
X144749994Y-61000008D02*
X144749994Y-61000000D01*
X136750000Y-69000002D02*
X144749994Y-61000008D01*
X144750012Y-60999982D02*
X144749994Y-61000000D01*
X144750012Y-59250000D02*
X144750012Y-60999982D01*
X126549244Y-73700000D02*
X126124980Y-73700000D01*
X134711448Y-73700000D02*
X126549244Y-73700000D01*
X141970483Y-66440965D02*
X134711448Y-73700000D01*
X131750000Y-65750000D02*
X122100000Y-75400000D01*
X125924264Y-79250000D02*
X125500000Y-79250000D01*
X134500000Y-79250000D02*
X125924264Y-79250000D01*
X147000002Y-66749998D02*
X134500000Y-79250000D01*
X147000002Y-64999998D02*
X147000002Y-66749998D01*
X121000000Y-75500002D02*
X131700003Y-64799999D01*
X131700003Y-64799999D02*
X132000002Y-64500000D01*
X121000000Y-79000000D02*
X121000000Y-75500002D01*
X131899967Y-88100032D02*
X129799998Y-90200001D01*
X131899967Y-84824969D02*
X131899967Y-88100032D01*
X130824998Y-83750000D02*
X131899967Y-84824969D01*
X126000000Y-83750000D02*
X130824998Y-83750000D01*
X129799998Y-90200001D02*
X129499999Y-90500000D01*
X78999996Y-48750000D02*
X98249998Y-68000000D01*
X98765695Y-66884307D02*
X99065694Y-67184306D01*
X80250000Y-49000000D02*
X80881388Y-49000000D01*
X80881388Y-49000000D02*
X98765695Y-66884307D01*
X105250000Y-130250000D02*
X109000000Y-130250000D01*
X109000000Y-130250000D02*
X136000000Y-103250000D01*
X136000000Y-103250000D02*
X136000000Y-83924264D01*
X136000000Y-83924264D02*
X136000000Y-83500000D01*
X127949999Y-106299999D02*
X128249998Y-106000000D01*
X100150298Y-134099700D02*
X127949999Y-106299999D01*
X88150300Y-134099700D02*
X100150298Y-134099700D01*
X113000000Y-74498744D02*
X120058574Y-81557318D01*
X113000000Y-71250000D02*
X113000000Y-74498744D01*
X120058574Y-81557318D02*
X120358573Y-81857317D01*
X114000000Y-70250000D02*
X113000000Y-71250000D01*
X112174244Y-85500012D02*
X111749980Y-85500012D01*
X123750000Y-84750000D02*
X121438587Y-84750000D01*
X121438587Y-84750000D02*
X120688575Y-85500012D01*
X120688575Y-85500012D02*
X112174244Y-85500012D01*
X115075736Y-83750000D02*
X115500000Y-83750000D01*
X113999992Y-83750000D02*
X115075736Y-83750000D01*
X112250000Y-82000008D02*
X113999992Y-83750000D01*
X113250012Y-86750000D02*
X120999978Y-86750000D01*
X127200001Y-89950011D02*
X127500000Y-90250010D01*
X114226918Y-88925041D02*
X126175031Y-88925041D01*
X126175031Y-88925041D02*
X127200001Y-89950011D01*
X126750002Y-86575736D02*
X126750002Y-87000000D01*
X120149989Y-84050011D02*
X124224277Y-84050011D01*
X119374987Y-84825013D02*
X120149989Y-84050011D01*
X111825013Y-84825013D02*
X119374987Y-84825013D01*
X110000000Y-83000000D02*
X111825013Y-84825013D01*
X124224277Y-84050011D02*
X126750002Y-86575736D01*
X112692932Y-83400000D02*
X113667934Y-84375002D01*
X118650000Y-83600000D02*
X124824277Y-83600000D01*
X113667934Y-84375002D02*
X117874998Y-84375002D01*
X127800013Y-86575736D02*
X127800013Y-87000000D01*
X117874998Y-84375002D02*
X118650000Y-83600000D01*
X124824277Y-83600000D02*
X127800013Y-86575736D01*
X107908043Y-83591955D02*
X108208042Y-83891954D01*
X108208042Y-83891954D02*
X108333008Y-83891954D01*
X108333008Y-83891954D02*
X111841054Y-87400000D01*
X125350000Y-87400000D02*
X125500000Y-87250000D01*
X111841054Y-87400000D02*
X125350000Y-87400000D01*
X125500000Y-87250000D02*
X125750000Y-87000000D01*
X123700005Y-86049999D02*
X124000004Y-85750000D01*
X112600000Y-86200000D02*
X112750001Y-86049999D01*
X111400000Y-86200000D02*
X112600000Y-86200000D01*
X107500000Y-82300000D02*
X111400000Y-86200000D01*
X112750001Y-86049999D02*
X123700005Y-86049999D01*
X107500000Y-81250000D02*
X107500000Y-82300000D01*
X125200001Y-81450001D02*
X125500000Y-81750000D01*
X124749979Y-80999979D02*
X125200001Y-81450001D01*
X122074977Y-80999979D02*
X124749979Y-80999979D01*
X120374999Y-79300001D02*
X122074977Y-80999979D01*
X114250000Y-73000000D02*
X120374999Y-79124999D01*
X120374999Y-79124999D02*
X120374999Y-79300001D01*
X113750000Y-73750000D02*
X121624980Y-81624980D01*
X123848020Y-81624980D02*
X124272284Y-81624980D01*
X121624980Y-81624980D02*
X123848020Y-81624980D01*
X109250000Y-87000000D02*
X110550022Y-88300022D01*
X110550022Y-88300022D02*
X130246249Y-88300022D01*
X130246249Y-88300022D02*
X130974948Y-87571323D01*
X130974948Y-87571323D02*
X131274947Y-87271324D01*
X109250000Y-85750000D02*
X111350011Y-87850011D01*
X111350011Y-87850011D02*
X129399989Y-87850011D01*
X129399989Y-87850011D02*
X131224980Y-86025020D01*
X131224980Y-86025020D02*
X131274947Y-86025020D01*
X132508958Y-81497014D02*
X133500000Y-82488056D01*
X133500000Y-82488056D02*
X133500000Y-93250000D01*
X133500000Y-93250000D02*
X130000000Y-96750000D01*
X130000000Y-96750000D02*
X109500000Y-96750000D01*
X87250000Y-119000000D02*
X87250000Y-124000002D01*
X109500000Y-96750000D02*
X87250000Y-119000000D01*
X87250000Y-124000002D02*
X87000000Y-124250002D01*
X135502986Y-80758958D02*
X134750000Y-81511944D01*
X134750000Y-81511944D02*
X134750000Y-96500000D01*
X134750000Y-96500000D02*
X132750000Y-98500000D01*
X132750000Y-98500000D02*
X132750000Y-100250000D01*
X109750000Y-123250000D02*
X96674266Y-123250000D01*
X132750000Y-100250000D02*
X109750000Y-123250000D01*
X96674266Y-123250000D02*
X96250002Y-123250000D01*
X131750000Y-82000006D02*
X133000000Y-83250006D01*
X133000000Y-83250006D02*
X133000000Y-91827438D01*
X133000000Y-91827438D02*
X129492051Y-95335387D01*
X129492051Y-95335387D02*
X109278202Y-95335387D01*
X109278202Y-95335387D02*
X86500000Y-118113589D01*
X86500000Y-118113589D02*
X86500000Y-121825736D01*
X86500000Y-121825736D02*
X86500000Y-122250000D01*
X135250000Y-80000000D02*
X134000000Y-81250000D01*
X134000000Y-81250000D02*
X134000000Y-95000000D01*
X134000000Y-95000000D02*
X131500000Y-97500000D01*
X131500000Y-97500000D02*
X131500000Y-99750000D01*
X131500000Y-99750000D02*
X113000000Y-118250000D01*
X88000000Y-121074998D02*
X88000000Y-124575736D01*
X113000000Y-118250000D02*
X90824998Y-118250000D01*
X90824998Y-118250000D02*
X88000000Y-121074998D01*
X88000000Y-124575736D02*
X88000000Y-125000000D01*
X111299999Y-81700001D02*
X111000000Y-82000000D01*
X115974990Y-81374990D02*
X111625010Y-81374990D01*
X127000000Y-83000000D02*
X117600000Y-83000000D01*
X111625010Y-81374990D02*
X111299999Y-81700001D01*
X117600000Y-83000000D02*
X115974990Y-81374990D01*
X129000000Y-81000000D02*
X127000000Y-83000000D01*
X109550005Y-80950001D02*
X109250006Y-81250000D01*
X109700006Y-80800000D02*
X109550005Y-80950001D01*
X116400000Y-80800000D02*
X109700006Y-80800000D01*
X128499997Y-80000003D02*
X126008398Y-82491602D01*
X118091602Y-82491602D02*
X116400000Y-80800000D01*
X126008398Y-82491602D02*
X118091602Y-82491602D01*
X121832736Y-77300000D02*
X122700000Y-76432736D01*
X122700000Y-76432736D02*
X122700000Y-75974970D01*
X122700000Y-75974970D02*
X133199991Y-65474979D01*
X133199991Y-65474979D02*
X133499990Y-65174980D01*
X52750000Y-73025000D02*
X53650000Y-73025000D01*
X129750000Y-92750000D02*
X132349978Y-90150022D01*
X53650000Y-73025000D02*
X73375000Y-92750000D01*
X73375000Y-92750000D02*
X129750000Y-92750000D01*
X132349978Y-90150022D02*
X132349978Y-84349984D01*
X132349978Y-84349984D02*
X131799993Y-83799999D01*
X131799993Y-83799999D02*
X131499994Y-83500000D01*
X52750000Y-58950000D02*
X52750000Y-59000000D01*
X52750000Y-59000000D02*
X84003144Y-90253144D01*
X126025730Y-90253144D02*
X126449994Y-90253144D01*
X84003144Y-90253144D02*
X126025730Y-90253144D01*
X143700001Y-71300011D02*
X144000000Y-71000012D01*
X138500000Y-79250004D02*
X138500000Y-76500012D01*
X135750004Y-82000000D02*
X138500000Y-79250004D01*
X138500000Y-76500012D02*
X143700001Y-71300011D01*
M02*
